<svg id="レイヤー_4" data-name="レイヤー 4" xmlns="http://www.w3.org/2000/svg" viewBox="0 0 120 120"><defs><style>.cls-1{fill:#39ad36}.cls-2{fill:none;stroke:#fff;stroke-linecap:round;stroke-linejoin:round;stroke-width:5px}</style></defs><path class="cls-1" d="M80.2 77.4A38 38 0 0142.8 117 40.6 40.6 0 0115 105.3c-7-7-9.5-17.4-9.5-27.9s3-20.6 9.8-27.5 17-9.5 27.5-9.5a35.8 35.8 0 0126.1 11 36.1 36.1 0 0111.3 26z"/><path class="cls-2" d="M35.7 81.2s-3 6.5-13 4.5M49.7 80.2s3 6.5 13 4.5"/><path d="M65.8 86.8c5.8 5.5 3.3 6.5 3.3 6.5a2.2 2.2 0 01-.4 0c-3 0-2.9-6.5-2.9-6.5m0-2a2 2 0 00-2 2c0 .9.1 5.2 2.1 7.3a3.8 3.8 0 002.8 1.2 4.2 4.2 0 00.8-.1 2 2 0 00.4-.1 3 3 0 001.7-2.2c.3-2-1-4.4-4.4-7.6a2 2 0 00-1.4-.5z" fill="#fff"/><path class="cls-2" d="M20.6 102.9s8-2 13-4.7 7.5-2 8.8 1.2-5.7 6.8-5.7 6.8l-6.6 3.6"/><path class="cls-2" d="M64.7 102.9s-8-2-13-4.7-7.5-2-8.8 1.2 5.8 6.8 5.8 6.8l6.5 3.6M60.2 69.8h-1.3a5.3 5.3 0 01-1.5-.2 4.7 4.7 0 01-1.3-.6l-1.1-.8a7.7 7.7 0 01-2.3-2.5 14.9 14.9 0 01-1.3-2.9c-.4-1-.6-2-.8-3l-.7-3v-.1a5.8 5.8 0 000-.7v-.8a5.1 5.1 0 000-.7 2.1 2.1 0 01.1-1.3l.1-.2.2-.1a1.6 1.6 0 01.5-.4 2.1 2.1 0 01.4-.2h.5l1 .2.2.2a3.7 3.7 0 01.3.3 1.7 1.7 0 01.3.7l.1.8v1.3A8 8 0 0054 57l.5 2.6.6 2a10.4 10.4 0 00.7 1.8 5.1 5.1 0 001 1.4 7.1 7.1 0 001.5 1 .7.7 0 00.2.2h.6a2.5 2.5 0 00.4 0 3 3 0 00.5 0 1.1 1.1 0 00.3-.2l.6-.3a.5.5 0 00.2-.1l.3-.5 1-2.3.2-.2a1.6 1.6 0 01.5-.4 2.1 2.1 0 01.4-.1l.5-.1 1 .3.2.2.1.2a1.8 1.8 0 01.4.5 2.4 2.4 0 01.1.4l.1.4-.4 1.4h-.1v.1a6.3 6.3 0 01-.4.8l-.3.6a4 4 0 01-.5.8 6 6 0 01-.7.8 4.3 4.3 0 01-1 .7l-1 .4a7.7 7.7 0 01-1.1.3zm-1-11.8l-1-.3-.2-.1a2.7 2.7 0 01-.8-1.3l-.3-.9-.2-1c0-.4-.2-.7-.3-1v-.2l.3-1 .2-.3a1.6 1.6 0 01.6-.4 2.1 2.1 0 01.4-.1l.5-.1 1 .2.2.2.1-.4.3-.2a1.6 1.6 0 01.5-.4 2.1 2.1 0 01.4-.1l.5-.1 1 .2.2.2a2.4 2.4 0 01.7 1.3l.3 1a5.3 5.3 0 00.2.8 6.1 6.1 0 01.2 1.1v.3l-.3 1-.2.2a1.6 1.6 0 01-.6.5 2 2 0 01-.4 0l-.5.2-1-.3-.2-.2v.3l-.3.2a1.6 1.6 0 01-.6.5 2 2 0 01-.4 0z"/><path class="cls-2" d="M60 68.8H59a4.3 4.3 0 01-1.2-.2 3.6 3.6 0 01-1-.5l-1.2-.7a6.7 6.7 0 01-2-2.2 13.8 13.8 0 01-1.1-2.7q-.5-1.4-.8-2.9t-.7-2.9a6.7 6.7 0 000-.8v-.7a6.2 6.2 0 000-.8 1.1 1.1 0 010-.7l.2-.2a.5.5 0 01.2-.1h1a2.8 2.8 0 01.2.3.7.7 0 01.1.3l.1.3V56a8.9 8.9 0 00.2 1.3l.3 1.3.3 1.4.5 2a11.3 11.3 0 00.8 2 6 6 0 001.2 1.6 8 8 0 001.8 1.2 1.7 1.7 0 00.5.2h.6a3.5 3.5 0 00.6 0 4.1 4.1 0 00.6 0 2.1 2.1 0 00.6-.2l.6-.3a1.5 1.5 0 00.5-.5l.4-.5.9-2.2.2-.1a.5.5 0 01.2-.2h.4l.5.1.2.2a.8.8 0 010 .2 1.3 1.3 0 01.2.2v.3l-.1.5h-.1l-.3.6a5.2 5.2 0 01-.3.7l-.3.6a3 3 0 01-.4.6 5.1 5.1 0 01-.6.7 3.3 3.3 0 01-.8.6l-.9.3a6.7 6.7 0 01-1 .3zM59.2 57l-.5-.1a1.7 1.7 0 01-.5-.8l-.3-1-.2-.9-.2-1v-.5l.3-.1a.5.5 0 01.1-.2h.5l.5.1a1.4 1.4 0 01.4.8 9.6 9.6 0 00.3 1l.3 1 .3.9-.2.5-.1.1a.5.5 0 01-.2.2h-.2zm3-.7l-.5-.1a3 3 0 01-.5-.9 6.3 6.3 0 01-.3-.9l-.2-1-.3-1 .2-.5.1-.1a.5.5 0 01.2-.2h.5l.5.1a1.4 1.4 0 01.4.8l.2 1a6.3 6.3 0 00.4 1 5 5 0 01.3 1l-.2.4-.2.2a.5.5 0 01-.1.1h-.2zM81.7 59.4a9.2 9.2 0 01-2.4 0 14 14 0 01-2.4-.6 8.3 8.3 0 00-2-.4 4.5 4.5 0 00-1.2.1 4.7 4.7 0 00-.6.2 7.2 7.2 0 01-.8.2 2.2 2.2 0 00-.5.2 2.5 2.5 0 00-.5.2l-.3.3-.1.4-.4.4v.1a1.6 1.6 0 01-.7.5 2 2 0 01-.3 0l-.5.2-1-.3-.2-.3a1.6 1.6 0 01-.5-.6 2 2 0 010-.3l-.2-.5.7-1.8.1-.2a7.1 7.1 0 011.1-1 5.9 5.9 0 011.5-.8l1.5-.5 1.4-.3a8.3 8.3 0 012.4 0 13.5 13.5 0 012.2.4 19.5 19.5 0 002 .5 4.1 4.1 0 001.4 0 3.7 3.7 0 01.4-.2 1.6 1.6 0 00.3-.2 2.8 2.8 0 00.3-.2l.2-.2a2.7 2.7 0 01.3-.4 1.5 1.5 0 01.5-.4 2.2 2.2 0 01.4 0l.5-.2 1 .3.3.3a1.8 1.8 0 01.4.6 2.4 2.4 0 01.1.4l.1.5-.2 1-.2.1a8.7 8.7 0 01-.8.9 6 6 0 01-1 .7 8.5 8.5 0 01-1 .5 6.6 6.6 0 01-1.2.4z"/><path class="cls-2" d="M81.6 58.4a8.2 8.2 0 01-2.2 0 13 13 0 01-2.2-.5 9.2 9.2 0 00-2.1-.4 5.5 5.5 0 00-2.2.2 6.2 6.2 0 01-.8.2 3.2 3.2 0 00-.7.3 3.5 3.5 0 00-.7.4l-.5.4-.3.6-.1.2-.2.1a.5.5 0 01-.2.2H69l-.5-.1-.1-.2a.5.5 0 01-.2-.1 1 1 0 010-.2v-.3l.5-1.3a6.2 6.2 0 011-1 4.9 4.9 0 011.2-.6l1.4-.4 1.4-.3a7.2 7.2 0 012 0 12.4 12.4 0 012 .4 20.3 20.3 0 002 .5 5.1 5.1 0 002 0 2.7 2.7 0 01.4-.2 2.6 2.6 0 00.5-.2 3.9 3.9 0 00.4-.3l.3-.4v-.1a1.6 1.6 0 01.2-.2.5.5 0 01.2-.2h1l.2.2a.8.8 0 01.1.2 1.3 1.3 0 010 .3l.1.2-.1.5a7.7 7.7 0 01-.7.8 5 5 0 01-.9.6 7.5 7.5 0 01-.9.4 5.6 5.6 0 01-1 .3zM102.7 61.5l-.5.1h-.8a2.8 2.8 0 01-1-.2 4.6 4.6 0 01-.7-.3l-.6-.4H99a6.6 6.6 0 01-1-1.3 6 6 0 01-.7-1.5 6.9 6.9 0 00-.5-1 2.1 2.1 0 00-.6-.7l-.4-.2a1.7 1.7 0 00-.3 0 2.2 2.2 0 00-.4 0h-.2a2.8 2.8 0 01-.8.2l-.3.3-.2.2-.1 1.2-.2 1.5a9.4 9.4 0 00-.2 1.4 7.9 7.9 0 01-.2 1.7l-.1.3-.3.2a1.6 1.6 0 01-.6.4 2.1 2.1 0 01-.4.2H91l-1-.2-.2-.3a1.6 1.6 0 01-.4-.6 2 2 0 01-.2-.3V61.6l.4-4 .5-3.8.5-4 .6-3.8.1-.4.3-.3a1.6 1.6 0 01.6-.4 2.1 2.1 0 01.4-.1l.4-.1 1.1.2.2.3.1.1a1.8 1.8 0 01.3.6 2.8 2.8 0 01.2.4v.5a10.4 10.4 0 01-.1 1.9l-.4 1.6-.2 1.6v.2l.8-.2h.2a1 1 0 00.3 0 2.8 2.8 0 011 .2l.7.2.5.2.5.2.5.2v.2a9.3 9.3 0 011 1 5 5 0 01.8 1.7 7.8 7.8 0 00.6 1.2 2 2 0 00.6.6h.2a1.3 1.3 0 01.3-.1h.1l.4-1.3.2-.2a2 2 0 01.4-.3 1.6 1.6 0 01.6-.3h.5l1 .2.3.3a1.6 1.6 0 01.4.6 2.4 2.4 0 01.1.4l.1.4v.3l-.1.4a4 4 0 01-.2.5l-.2.5a1.5 1.5 0 000 .2v.2l-.2.1v.4h-.4l-.5.5a5.1 5.1 0 01-.7.6 4.9 4.9 0 01-.8.4 3.8 3.8 0 01-.5.1z"/><path class="cls-2" d="M102.1 60.6h-.6a1.8 1.8 0 01-.6 0 3.7 3.7 0 01-.6-.4l-.6-.3a5.5 5.5 0 01-1-1 5 5 0 01-.5-1.2 7.9 7.9 0 00-.6-1.3 3.2 3.2 0 00-.9-1 6 6 0 00-.5-.3 2.7 2.7 0 00-.6-.1 3.1 3.1 0 00-.6 0 2 2 0 00-.6.1 1.8 1.8 0 01-.5.2 1 1 0 00-.5.2l-.4.4-.4.5-.1 1.5-.3 1.4a10.2 10.2 0 00-.1 1.5 7 7 0 01-.2 1.5l-.2.2a.5.5 0 01-.2 0l-.2.2H91l-.5-.1-.1-.2a.5.5 0 01-.2-.2 1 1 0 010-.2v-.2l.4-4L91 54l.5-3.9.7-3.8.1-.2a.5.5 0 01.2-.1h1l.1.2a.7.7 0 01.2.3 1.8 1.8 0 010 .2v.3a9.4 9.4 0 010 1.7l-.4 1.6L93 52l-.1 1.6h.7l.3-.2a1.2 1.2 0 01.3-.1l.3-.1.3-.1a2 2 0 00.6 0 1.7 1.7 0 01.6.1l.6.2.5.2v.1l.5.2h.1a8.5 8.5 0 011 1.1 4.1 4.1 0 01.7 1.3 8.8 8.8 0 00.6 1.3 3 3 0 001 1.1l.3.1h.3a.9.9 0 00.3 0h.3a.3.3 0 01.2-.1.5.5 0 00.2-.2l.2-.1a1.1 1.1 0 00.2-.2l.4-1.1.1-.2a.9.9 0 01.2-.1.6.6 0 01.2-.1h.8a1.2 1.2 0 00.1.2.5.5 0 01.2.2 1.3 1.3 0 010 .2v.7a3.3 3.3 0 01-.2.5l-.1.4a2.4 2.4 0 00-.2.4l-.6.5a4 4 0 01-.6.5 3.9 3.9 0 01-.7.3 3.3 3.3 0 01-.6.1z"/><path class="cls-1" d="M60.2 69.8h-1.3a5.3 5.3 0 01-1.5-.2 4.7 4.7 0 01-1.3-.6l-1.1-.8a7.7 7.7 0 01-2.3-2.5 14.9 14.9 0 01-1.3-2.9c-.4-1-.6-2-.8-3l-.7-3v-.1a5.8 5.8 0 000-.7v-.8a5.1 5.1 0 000-.7 2.1 2.1 0 01.1-1.3l.1-.2.2-.1a1.6 1.6 0 01.5-.4 2.1 2.1 0 01.4-.2h.5l1 .2.2.2a3.7 3.7 0 01.3.3 1.7 1.7 0 01.3.7l.1.8v1.3A8 8 0 0054 57l.5 2.6.6 2a10.4 10.4 0 00.7 1.8 5.1 5.1 0 001 1.4 7.1 7.1 0 001.5 1 .7.7 0 00.2.2h.6a2.5 2.5 0 00.4 0 3 3 0 00.5 0 1.1 1.1 0 00.3-.2l.6-.3a.5.5 0 00.2-.1l.3-.5 1-2.3.2-.2a1.6 1.6 0 01.5-.4 2.1 2.1 0 01.4-.1l.5-.1 1 .3.2.2.1.2a1.8 1.8 0 01.4.5 2.4 2.4 0 01.1.4l.1.4-.4 1.4h-.1v.1a6.3 6.3 0 01-.4.8l-.3.6a4 4 0 01-.5.8 6 6 0 01-.7.8 4.3 4.3 0 01-1 .7l-1 .4a7.7 7.7 0 01-1.1.3zm-1-11.8l-1-.3-.2-.1a2.7 2.7 0 01-.8-1.3l-.3-.9-.2-1c0-.4-.2-.7-.3-1v-.2l.3-1 .2-.3a1.6 1.6 0 01.6-.4 2.1 2.1 0 01.4-.1l.5-.1 1 .2.2.2.1-.4.3-.2a1.6 1.6 0 01.5-.4 2.1 2.1 0 01.4-.1l.5-.1 1 .2.2.2a2.4 2.4 0 01.7 1.3l.3 1a5.3 5.3 0 00.2.8 6.1 6.1 0 01.2 1.1v.3l-.3 1-.2.2a1.6 1.6 0 01-.6.5 2 2 0 01-.4 0l-.5.2-1-.3-.2-.2v.3l-.3.2a1.6 1.6 0 01-.6.5 2 2 0 01-.4 0z"/><path class="cls-1" d="M60 68.8H59a4.3 4.3 0 01-1.2-.2 3.6 3.6 0 01-1-.5l-1.2-.7a6.7 6.7 0 01-2-2.2 13.8 13.8 0 01-1.1-2.7q-.5-1.4-.8-2.9t-.7-2.9a6.7 6.7 0 000-.8v-.7a6.2 6.2 0 000-.8 1.1 1.1 0 010-.7l.2-.2a.5.5 0 01.2-.1h1a2.8 2.8 0 01.2.3.7.7 0 01.1.3l.1.3V56a8.9 8.9 0 00.2 1.3l.3 1.3.3 1.4.5 2a11.3 11.3 0 00.8 2 6 6 0 001.2 1.6 8 8 0 001.8 1.2 1.7 1.7 0 00.5.2h.6a3.5 3.5 0 00.6 0 4.1 4.1 0 00.6 0 2.1 2.1 0 00.6-.2l.6-.3a1.5 1.5 0 00.5-.5l.4-.5.9-2.2.2-.1a.5.5 0 01.2-.2h.4l.5.1.2.2a.8.8 0 010 .2 1.3 1.3 0 01.2.2v.3l-.1.5h-.1l-.3.6a5.2 5.2 0 01-.3.7l-.3.6a3 3 0 01-.4.6 5.1 5.1 0 01-.6.7 3.3 3.3 0 01-.8.6l-.9.3a6.7 6.7 0 01-1 .3zM59.2 57l-.5-.1a1.7 1.7 0 01-.5-.8l-.3-1-.2-.9-.2-1v-.5l.3-.1a.5.5 0 01.1-.2h.5l.5.1a1.4 1.4 0 01.4.8 9.6 9.6 0 00.3 1l.3 1 .3.9-.2.5-.1.1a.5.5 0 01-.2.2h-.2zm3-.7l-.5-.1a3 3 0 01-.5-.9 6.3 6.3 0 01-.3-.9l-.2-1-.3-1 .2-.5.1-.1a.5.5 0 01.2-.2h.5l.5.1a1.4 1.4 0 01.4.8l.2 1a6.3 6.3 0 00.4 1 5 5 0 01.3 1l-.2.4-.2.2a.5.5 0 01-.1.1h-.2zM81.7 59.4a9.2 9.2 0 01-2.4 0 14 14 0 01-2.4-.6 8.3 8.3 0 00-2-.4 4.5 4.5 0 00-1.2.1 4.7 4.7 0 00-.6.2 7.2 7.2 0 01-.8.2 2.2 2.2 0 00-.5.2 2.5 2.5 0 00-.5.2l-.3.3-.1.4-.4.4v.1a1.6 1.6 0 01-.7.5 2 2 0 01-.3 0l-.5.2-1-.3-.2-.3a1.6 1.6 0 01-.5-.6 2 2 0 010-.3l-.2-.5.7-1.8.1-.2a7.1 7.1 0 011.1-1 5.9 5.9 0 011.5-.8l1.5-.5 1.4-.3a8.3 8.3 0 012.4 0 13.5 13.5 0 012.2.4 19.5 19.5 0 002 .5 4.1 4.1 0 001.4 0 3.7 3.7 0 01.4-.2 1.6 1.6 0 00.3-.2 2.8 2.8 0 00.3-.2l.2-.2a2.7 2.7 0 01.3-.4 1.5 1.5 0 01.5-.4 2.2 2.2 0 01.4 0l.5-.2 1 .3.3.3a1.8 1.8 0 01.4.6 2.4 2.4 0 01.1.4l.1.5-.2 1-.2.1a8.7 8.7 0 01-.8.9 6 6 0 01-1 .7 8.5 8.5 0 01-1 .5 6.6 6.6 0 01-1.2.4z"/><path class="cls-1" d="M81.6 58.4a8.2 8.2 0 01-2.2 0 13 13 0 01-2.2-.5 9.2 9.2 0 00-2.1-.4 5.5 5.5 0 00-2.2.2 6.2 6.2 0 01-.8.2 3.2 3.2 0 00-.7.3 3.5 3.5 0 00-.7.4l-.5.4-.3.6-.1.2-.2.1a.5.5 0 01-.2.2H69l-.5-.1-.1-.2a.5.5 0 01-.2-.1 1 1 0 010-.2v-.3l.5-1.3a6.2 6.2 0 011-1 4.9 4.9 0 011.2-.6l1.4-.4 1.4-.3a7.2 7.2 0 012 0 12.4 12.4 0 012 .4 20.3 20.3 0 002 .5 5.1 5.1 0 002 0 2.7 2.7 0 01.4-.2 2.6 2.6 0 00.5-.2 3.9 3.9 0 00.4-.3l.3-.4v-.1a1.6 1.6 0 01.2-.2.5.5 0 01.2-.2h1l.2.2a.8.8 0 01.1.2 1.3 1.3 0 010 .3l.1.2-.1.5a7.7 7.7 0 01-.7.8 5 5 0 01-.9.6 7.5 7.5 0 01-.9.4 5.6 5.6 0 01-1 .3zM102.7 61.5l-.5.1h-.8a2.8 2.8 0 01-1-.2 4.6 4.6 0 01-.7-.3l-.6-.4H99a6.6 6.6 0 01-1-1.3 6 6 0 01-.7-1.5 6.9 6.9 0 00-.5-1 2.1 2.1 0 00-.6-.7l-.4-.2a1.7 1.7 0 00-.3 0 2.2 2.2 0 00-.4 0h-.2a2.8 2.8 0 01-.8.2l-.3.3-.2.2-.1 1.2-.2 1.5a9.4 9.4 0 00-.2 1.4 7.9 7.9 0 01-.2 1.7l-.1.3-.3.2a1.6 1.6 0 01-.6.4 2.1 2.1 0 01-.4.2H91l-1-.2-.2-.3a1.6 1.6 0 01-.4-.6 2 2 0 01-.2-.3V61.6l.4-4 .5-3.8.5-4 .6-3.8.1-.4.3-.3a1.6 1.6 0 01.6-.4 2.1 2.1 0 01.4-.1l.4-.1 1.1.2.2.3.1.1a1.8 1.8 0 01.3.6 2.8 2.8 0 01.2.4v.5a10.4 10.4 0 01-.1 1.9l-.4 1.6-.2 1.6v.2l.8-.2h.2a1 1 0 00.3 0 2.8 2.8 0 011 .2l.7.2.5.2.5.2.5.2v.2a9.3 9.3 0 011 1 5 5 0 01.8 1.7 7.8 7.8 0 00.6 1.2 2 2 0 00.6.6h.2a1.3 1.3 0 01.3-.1h.1l.4-1.3.2-.2a2 2 0 01.4-.3 1.6 1.6 0 01.6-.3h.5l1 .2.3.3a1.6 1.6 0 01.4.6 2.4 2.4 0 01.1.4l.1.4v.3l-.1.4a4 4 0 01-.2.5l-.2.5a1.5 1.5 0 000 .2v.2l-.2.1v.4h-.4l-.5.5a5.1 5.1 0 01-.7.6 4.9 4.9 0 01-.8.4 3.8 3.8 0 01-.5.1z"/><path class="cls-1" d="M102.1 60.6h-.6a1.8 1.8 0 01-.6 0 3.7 3.7 0 01-.6-.4l-.6-.3a5.5 5.5 0 01-1-1 5 5 0 01-.5-1.2 7.9 7.9 0 00-.6-1.3 3.2 3.2 0 00-.9-1 6 6 0 00-.5-.3 2.7 2.7 0 00-.6-.1 3.1 3.1 0 00-.6 0 2 2 0 00-.6.1 1.8 1.8 0 01-.5.2 1 1 0 00-.5.2l-.4.4-.4.5-.1 1.5-.3 1.4a10.2 10.2 0 00-.1 1.5 7 7 0 01-.2 1.5l-.2.2a.5.5 0 01-.2 0l-.2.2H91l-.5-.1-.1-.2a.5.5 0 01-.2-.2 1 1 0 010-.2v-.2l.4-4L91 54l.5-3.9.7-3.8.1-.2a.5.5 0 01.2-.1h1l.1.2a.7.7 0 01.2.3 1.8 1.8 0 010 .2v.3a9.4 9.4 0 010 1.7l-.4 1.6L93 52l-.1 1.6h.7l.3-.2a1.2 1.2 0 01.3-.1l.3-.1.3-.1a2 2 0 00.6 0 1.7 1.7 0 01.6.1l.6.2.5.2v.1l.5.2h.1a8.5 8.5 0 011 1.1 4.1 4.1 0 01.7 1.3 8.8 8.8 0 00.6 1.3 3 3 0 001 1.1l.3.1h.3a.9.9 0 00.3 0h.3a.3.3 0 01.2-.1.5.5 0 00.2-.2l.2-.1a1.1 1.1 0 00.2-.2l.4-1.1.1-.2a.9.9 0 01.2-.1.6.6 0 01.2-.1h.8a1.2 1.2 0 00.1.2.5.5 0 01.2.2 1.3 1.3 0 010 .2v.7a3.3 3.3 0 01-.2.5l-.1.4a2.4 2.4 0 00-.2.4l-.6.5a4 4 0 01-.6.5 3.9 3.9 0 01-.7.3 3.3 3.3 0 01-.6.1z"/></svg>