<svg id="ぬりつぶし" xmlns="http://www.w3.org/2000/svg" viewBox="0 0 120 120"><defs><linearGradient id="名称未設定グラデーション_14" x1="-261.3" y1="182.2" x2="-186.7" y2="182.2" gradientTransform="rotate(-45 -228 -222.3)" gradientUnits="userSpaceOnUse"><stop offset=".1" stop-color="#e23b56"/><stop offset=".3" stop-color="#eba016"/><stop offset=".7" stop-color="#39ad36"/><stop offset=".8" stop-color="#3ba380"/><stop offset=".9" stop-color="#3a98b4"/></linearGradient><style>.cls-2{fill:#fff}</style></defs><path d="M86.4 33.6A37.9 37.9 0 0188 87.9 40.6 40.6 0 0160 99.4c-9.8 0-19-5.6-26.4-13S21.1 69.7 21.1 60s5.3-18.7 12.7-26.1A35.8 35.8 0 0160 23c9.8 0 19 3 26.4 10.5z" fill="url(#名称未設定グラデーション_14)"/><path class="cls-2" d="M50 57.5a4 4 0 01-4 4 3.9 3.9 0 110-7.9 4 4 0 014 4zM79 57.5a4 4 0 01-4 4 4 4 0 01-4-4 3.9 3.9 0 014-3.8 3.8 3.8 0 014 3.8z"/><path d="M46.5 70.3s2.5 9 12.2 9c0 0 10.8 1.4 14.3-8" fill="none" stroke="#fff" stroke-linecap="round" stroke-linejoin="round" stroke-width="5"/></svg>