<svg id="レイヤー_4" data-name="レイヤー 4" xmlns="http://www.w3.org/2000/svg" viewBox="0 0 120 120"><defs><style>.cls-1{fill:#eba016}.cls-2,.cls-3{fill:none;stroke:#fff;stroke-linecap:round;stroke-linejoin:round}.cls-2{stroke-width:5px}.cls-3{stroke-width:3px}</style></defs><path class="cls-1" d="M81.7 76.4c0 10.5-1.8 20.8-8.7 27.7S55.8 116 45.3 116a40.6 40.6 0 01-27.8-11.8A39.2 39.2 0 017.4 76.4a37.4 37.4 0 0111.2-26.6c7-7 16.2-11.6 26.7-11.6s18.3 6.1 25.2 13S81.7 66 81.7 76.4z"/><path class="cls-2" d="M30.9 71.3a2.5 2.5 0 01-.4 0 4 4 0 01-.6-.2l-.5-.1a4.4 4.4 0 01-1.2-.9 5 5 0 01-.8-1 9 9 0 01-.5-1.1 9 9 0 01-.4-1.1v-.2a3.1 3.1 0 010-1l.2-.7a3.6 3.6 0 01.3-.9l.3-.7.1-.1a13.8 13.8 0 011-1l.9-1a4.6 4.6 0 011.3-.8l.4-.2-.4-1.4v-.5c-.4 0-.7 0-1 .2l-2 .5-1.1.4-1.1-.2-.3-.3a1.6 1.6 0 01-.4-.6 2 2 0 01-.2-.3l-.1-.5.2-1 .1-.2a2.5 2.5 0 011.4-.9l1-.3 1.1-.3 1.1-.3h.4l-.2-.8a9.6 9.6 0 01-.2-1 2.9 2.9 0 01.1-1.3l.1-.2.2-.2a1.6 1.6 0 01.6-.5 2.2 2.2 0 01.4-.1l.4-.2 1.1.3.2.2.1.1a1.8 1.8 0 01.4.5 2.3 2.3 0 01.2.4v.3l.4 1.6.5-.1 1.6-.3L37 53a5.1 5.1 0 011.3-.2 5 5 0 01.6 0h.4l.2.3a1.6 1.6 0 01.5.6 2 2 0 01.1.4l.1.4-.2 1-.2.2a2.4 2.4 0 01-.3.4 2.2 2.2 0 01-.4.2l-.3.1-.2.1h.1l.2.3a1.6 1.6 0 01.5.5 2.2 2.2 0 01.1.4l.1.4v1.2l.5.2a7.6 7.6 0 011.7 1.4 9.9 9.9 0 011.2 2 10.4 10.4 0 01.8 1.8l.6 2v.2l-.2 1-.2.2a1.6 1.6 0 01-.6.5 2.2 2.2 0 01-.4.1l-.3.1h-.4l-.8-.1-.3-.3a5.2 5.2 0 01-.9-2 6.6 6.6 0 00-.5-1.5 5.1 5.1 0 00-.8-1.2l-.4-.3v.3a7 7 0 01-.4.8 3.2 3.2 0 00-.2.6v.2l-.2.2a4 4 0 01-.4.8 5.5 5.5 0 01-.4.6l.2.5.4 1-.3 1-.2.3a1.6 1.6 0 01-.6.5 2.2 2.2 0 01-.4.1l-.5.1-1-.1v-.1a1.6 1.6 0 01-.3-.2 5.8 5.8 0 01-.6.4 4.7 4.7 0 01-1 .5l-.9.2H31.1zm-.4-5.8a1.1 1.1 0 000 .1l-.1.5a1.5 1.5 0 000 .3 4.4 4.4 0 01.2.4 2.2 2.2 0 00.2.3 2.2 2.2 0 00.2.3 3.7 3.7 0 01.6-.2l.5-.3a3.1 3.1 0 00.3-.3l.5-.6-.1-.3a3.4 3.4 0 01-.3-.7l-.3-1a2.3 2.3 0 00-.5.3l-.7.7a2.7 2.7 0 00-.5.5zm4.1-6.6a3.5 3.5 0 01.6 0h.5a2.4 2.4 0 010-.8 4.3 4.3 0 01.3-.6v-.2l.3-.2-2 .4z"/><path class="cls-2" d="M42.6 67.8H42a4.2 4.2 0 01-.8-1.7 7.5 7.5 0 00-.6-1.6 6.1 6.1 0 00-1-1.5 7.1 7.1 0 00-1.3-1.1H38l-.2.7-.2.8a6 6 0 01-.3.7 4.2 4.2 0 00-.3.7 1 1 0 00-.3.5 2.3 2.3 0 01-.2.5 4.5 4.5 0 01-.3.5 4.3 4.3 0 00-.3.4l.3 1.1.2.7v.5l-.2.1a.5.5 0 01-.2.2h-.2l-.3.1H35a.6.6 0 01-.2-.2 1.2 1.2 0 01-.1-.3l-.2-.2a1.7 1.7 0 010-.3h-.1a5 5 0 01-.6.6 4.7 4.7 0 01-.7.5 3.6 3.6 0 01-.8.4l-.9.3h-.4a1.4 1.4 0 01-.5 0 3.1 3.1 0 01-.4-.1l-.4-.1a3.3 3.3 0 01-.9-.6 4 4 0 01-.6-.9 7.8 7.8 0 01-.8-2 2.1 2.1 0 010-.6v-.7a2.6 2.6 0 01.3-.7l.3-.6a12.9 12.9 0 01.9-1l.9-1a3.6 3.6 0 011.1-.6l1.2-.5-.2-.7-.5-1.5-.2-1.4-1 .1-1 .3-1 .2-1 .3-1 .3h-.5l-.2-.2a.5.5 0 01-.1-.2 1 1 0 01-.1-.2V57a1.5 1.5 0 01.9-.5l1-.3 1-.3 1-.3 1.4-.2a8.7 8.7 0 01-.2-.9 8.9 8.9 0 00-.2-.9 8.7 8.7 0 01-.2-.9 1.9 1.9 0 010-.9 1.2 1.2 0 00.2-.1.5.5 0 01.2-.2h.2l.3-.1.5.1.2.2a.8.8 0 01.1.2 1.3 1.3 0 01.1.2v.3l.8 2.6 1.5-.4 1.5-.2 1.5-.4a4 4 0 011.5 0 1.2 1.2 0 00.2 0 .5.5 0 01.1.3 1.1 1.1 0 01.1.2v.7a1.4 1.4 0 01-.2.2 1.2 1.2 0 01-.3.1l-.2.1-.3.1-5 1 .7 3 .1.4.7-.2a2.5 2.5 0 01.7-.1h.7a3.1 3.1 0 00.7-.1v-.4a1.2 1.2 0 000-.5 1.1 1.1 0 010-.5 3.4 3.4 0 01.2-.4 1.2 1.2 0 00.1-.2.5.5 0 01.2-.1l.2-.1h.8a1.2 1.2 0 00.1.2.5.5 0 01.2.2 1.2 1.2 0 010 .2l.1.2-.1 1.8 1.1.4a6.6 6.6 0 011.5 1.3 8.8 8.8 0 011 1.5A9.3 9.3 0 0143 65l.5 1.9v.5l-.2.1a.5.5 0 01-.2.2h-.2zm-9.6-.5l.8-1-.2-1a2.4 2.4 0 01-.3-.6l-.1-.7-.3-.7-.2-.7h-.2a6.6 6.6 0 00-.9.4 3.3 3.3 0 00-.7.6l-.7.6a3.8 3.8 0 00-.6.7 2.5 2.5 0 00-.1.5l-.1.4a2.5 2.5 0 00-.1.5.8.8 0 000 .4l.3.5a3.2 3.2 0 00.3.4 3.2 3.2 0 00.3.4 1.4 1.4 0 00.4.3h.7a2.7 2.7 0 01.5-.1 1.1 1.1 0 00.5-.3l.3-.3a4.1 4.1 0 00.4-.3zm2.3-3l.3-.6a3.8 3.8 0 00.2-.7l.2-.7a5.6 5.6 0 00.2-.6 1.2 1.2 0 01-.5 0 1.7 1.7 0 00-.4 0H35l-.4.2.2 1 .5 1.5zM53.8 66.4a4 4 0 01-1.1-.1 6.2 6.2 0 01-1.1-.5 3.6 3.6 0 01-1.2-1.2 5.7 5.7 0 01-.6-1.4 3.6 3.6 0 010-1.8 6.5 6.5 0 01.5-1.4v-.1a5.2 5.2 0 012-1.8 9 9 0 012.2-.7h-.3a10.6 10.6 0 00-1.2.2l-1.8 1a7.2 7.2 0 00-1.4 1l-.3.4a3 3 0 01-.4.5 1.8 1.8 0 01-1 .4h-.2l-.9-.2-.2-.1a2.4 2.4 0 01-.5-.6 1.8 1.8 0 01-.3-.9V59a7.6 7.6 0 01.4-1.9l.8-1.7a28.5 28.5 0 001.5-2.8l.6-1-3.3.8-.8.3H45a4 4 0 01-.5 0 2.6 2.6 0 01-.6-.1h-.1l-.1-.2a2.4 2.4 0 01-.6-.5 1.8 1.8 0 01-.3-1l.2-1 .2-.1a2.2 2.2 0 011-.8l.6-.2 4.2-1.2c.8 0 1.4-.2 2-.3a7.7 7.7 0 011.8-.2 7.6 7.6 0 01.8 0h.3l.2.2a2.4 2.4 0 01.5.5 2 2 0 01.3 1v.1l-.2 1-1.8 3-.5.8h.2a17.4 17.4 0 012.1-.1 4.5 4.5 0 012.5.8 7.2 7.2 0 012 2 7.7 7.7 0 011 2.8 5.7 5.7 0 01-.2 2.1 10.2 10.2 0 01-.7 1.8v.1a6.5 6.5 0 01-2.4 2 17.6 17.6 0 01-2.6 1.2h-.1zm0-3.9l1-.5a4 4 0 001-.7 1.2 1.2 0 00.2-.2h-.3a9.5 9.5 0 00-1.5.3l-.6.5a.3.3 0 000 .1 1.8 1.8 0 000 .4z"/><path class="cls-2" d="M54 65.4a3 3 0 01-1-.1 5.2 5.2 0 01-1-.4 2.6 2.6 0 01-.9-.8 4.7 4.7 0 01-.4-1.2 2.6 2.6 0 010-1.3 5.5 5.5 0 01.4-1.3 4.2 4.2 0 011.6-1.3 8 8 0 012.2-.7 5.5 5.5 0 011 0h1V58a5.2 5.2 0 00-.6-.8 6 6 0 00-.8-.7 3.5 3.5 0 00-1.5-.2 11.6 11.6 0 00-1.4.2l-2 1.1a8.2 8.2 0 00-1.8 1.3v.3l-.2.2a2 2 0 01-.3.3.8.8 0 01-.5.2l-.5-.2a1.4 1.4 0 01-.3-.3.8.8 0 01-.1-.4 6.5 6.5 0 01.4-1.7l.8-1.6a28.7 28.7 0 001.5-2.8 17.7 17.7 0 011.7-2.8V50l-1.6.2-4 1-.7.3h-.3a1.7 1.7 0 01-.4 0 1.4 1.4 0 01-.3-.4.8.8 0 01-.1-.4v-.5a1.2 1.2 0 01.6-.4l.7-.3 4-1 2.1-.4a6.6 6.6 0 012.1-.1 1.4 1.4 0 01.4.3 1 1 0 01.1.5l-.1.7-1.8 2.7a14.8 14.8 0 00-1.4 3l-.3.4h.2a5 5 0 011-.6 7.9 7.9 0 011.2-.4 16.2 16.2 0 012-.2 3.5 3.5 0 012 .7 6.1 6.1 0 011.6 1.8 6.6 6.6 0 01.8 2.4A4.6 4.6 0 0159 61a9 9 0 01-.7 1.6 5.4 5.4 0 01-2 1.7 16.5 16.5 0 01-2.4 1.1zm2.4-3.4a2.3 2.3 0 00.6-.8 7.6 7.6 0 00.3-1 5.7 5.7 0 00-1.8 0 10.6 10.6 0 00-1.8.3l-1 .9a1.4 1.4 0 00-.2.7 2.9 2.9 0 000 .7l.6.7h.8l1.4-.6a5 5 0 001.1-.9zM68 61.5a2.5 2.5 0 01-.4 0 4 4 0 01-.6-.2l-.5-.2a4.4 4.4 0 01-1.2-.8 5 5 0 01-.8-1 9 9 0 01-.5-1.1 9 9 0 01-.4-1.2v-.1a3.1 3.1 0 010-1l.2-.7a3.6 3.6 0 01.3-.9l.3-.7v-.2a13.8 13.8 0 011-1l1-.9a4.6 4.6 0 011.3-.9l.4-.1-.4-1.5v-.5a8.8 8.8 0 00-1 .2l-2 .5-1 .4-1.2-.2-.2-.3a1.6 1.6 0 01-.5-.5 2 2 0 01-.1-.4l-.2-.5.2-1 .2-.1a2.5 2.5 0 011.4-1l1-.2 1-.3 1.2-.3.3-.1-.1-.7a9.6 9.6 0 01-.2-1 2.9 2.9 0 010-1.3l.1-.3.3-.2a1.6 1.6 0 01.5-.4 2.3 2.3 0 01.4-.2l.5-.1 1 .2.3.3a1.7 1.7 0 01.4.5 2.4 2.4 0 01.2.5v.3l.4 1.7.6-.1 1.5-.3c.5 0 1-.2 1.4-.3a5.1 5.1 0 011.3-.2 5 5 0 01.6 0h.4l.2.3a1.6 1.6 0 01.5.5 2.2 2.2 0 01.1.4l.2.5-.3 1-.1.2a2.4 2.4 0 01-.4.3 2.3 2.3 0 01-.4.3l-.3.1h-.2.2l.2.3a1.6 1.6 0 01.4.6 2.2 2.2 0 01.2.4v1.6l.5.2h.1a7.6 7.6 0 011.7 1.5 9.9 9.9 0 011.2 1.7 10.4 10.4 0 01.8 1.9l.5 1.9.1.2-.2 1-.3.3a1.6 1.6 0 01-.5.5 2.2 2.2 0 01-.4.1l-.5.1-1-.2-.3-.3a5.2 5.2 0 01-1-2 6.6 6.6 0 00-.4-1.4 5.1 5.1 0 00-.8-1.2l-.4-.3v.3a7 7 0 01-.4.8 3.2 3.2 0 00-.2.6v.2l-.2.2a3.9 3.9 0 01-.4.8 5.4 5.4 0 01-.3.6l.1.6.4.8-.3 1.2-.2.2a1.6 1.6 0 01-.6.5 2.1 2.1 0 01-.4.1l-.5.1-.9-.2h-.1a1.6 1.6 0 01-.3-.2 5.6 5.6 0 01-.6.4 4.7 4.7 0 01-1 .5l-.8.2H68.4zm-.4-5.8a1 1 0 000 .1v.5a1.5 1.5 0 000 .3 4.3 4.3 0 01.1.4 2.2 2.2 0 00.2.3 2.3 2.3 0 00.2.2l.1.1a3.7 3.7 0 01.6-.2l.5-.4a3 3 0 00.2-.2l.5-.6V56a3.5 3.5 0 01-.4-.7l-.2-.7v-.3a2.3 2.3 0 00-.5.3l-.8.7a2.8 2.8 0 00-.5.5zm4.2-6.6a3.5 3.5 0 01.6 0h.4a2.3 2.3 0 01.1-.8 4.3 4.3 0 01.2-.6v-.2l.3-.2-2 .4z"/><path class="cls-2" d="M79.7 58l-.5-.1a4.2 4.2 0 01-.7-1.6 7.5 7.5 0 00-.6-1.7 6.1 6.1 0 00-1-1.4 7.1 7.1 0 00-1.4-1.1h-.3l-.2.7-.2.8a6 6 0 01-.3.7 4.2 4.2 0 00-.3.7 1 1 0 00-.3.5 2.3 2.3 0 01-.2.5 4.5 4.5 0 01-.3.5 4.3 4.3 0 00-.3.4l.3 1.1.3.7-.1.5-.2.1a.5.5 0 01-.2.2H73l-.3.1h-.5a.6.6 0 01-.2-.3 1.2 1.2 0 01-.1-.2l-.1-.2a1.7 1.7 0 01-.1-.3h-.1a5 5 0 01-.6.6 4.7 4.7 0 01-.7.5 3.6 3.6 0 01-.8.4l-.8.3h-.5a1.4 1.4 0 01-.4 0 3.1 3.1 0 01-.5-.1L67 60a3.3 3.3 0 01-.9-.6 4 4 0 01-.6-.8 7.8 7.8 0 01-.8-2 2.1 2.1 0 010-.7l.1-.7a2.6 2.6 0 01.2-.7l.3-.6a12.9 12.9 0 01.9-1l1-1a3.6 3.6 0 011-.6l1.2-.5-.2-.7-.5-1.6-.2-1.4-1 .2-1 .2-1 .3-1 .2-1 .4H63l-.2-.1a.5.5 0 01-.1-.2 1 1 0 010-.2l-.1-.2v-.5a1.5 1.5 0 011-.6l1-.3 1-.3 1-.3 1.4-.2a8.7 8.7 0 01-.2-.9 8.9 8.9 0 00-.2-.9 8.7 8.7 0 01-.2-.9 1.9 1.9 0 010-.9 1.2 1.2 0 00.2-.1.5.5 0 01.2-.2h.2l.3-.1.5.1.2.2a.8.8 0 01.1.2 1.3 1.3 0 01.1.2v.3l.6 2.6 1.5-.4 1.5-.3 1.6-.3a4 4 0 011.5-.1 1.2 1.2 0 00.1.1.5.5 0 01.2.2 1.1 1.1 0 010 .2l.1.2-.1.5a1.4 1.4 0 01-.2.2 1.2 1.2 0 01-.2.2h-.3l-.3.2-5 1 .7 2.9.2.4.6-.2a2.5 2.5 0 01.7 0h.7a3.1 3.1 0 00.6-.1l.1-.5a1.2 1.2 0 000-.5 1.1 1.1 0 010-.4 3.4 3.4 0 01.2-.5 1.2 1.2 0 00.1-.1.5.5 0 01.2-.2h.2l.2-.1h.5a1.2 1.2 0 00.2.2.5.5 0 01.1.2 1.2 1.2 0 01.1.2v2l1.1.5a6.6 6.6 0 011.5 1.3 8.8 8.8 0 011 1.5 9.3 9.3 0 01.8 1.7l.5 1.9v.5l-.2.1a.5.5 0 01-.2.2h-.2zm-9.5-.5l.8-1-.2-1a2.4 2.4 0 01-.3-.7l-.2-.7-.2-.7-.2-.7-.2.1a6.6 6.6 0 00-.9.4 3.3 3.3 0 00-.8.6l-.6.6a3.8 3.8 0 00-.7.7 2.5 2.5 0 000 .4l-.2.5a2.5 2.5 0 000 .4.8.8 0 000 .5l.3.4a3.2 3.2 0 00.2.5 3.2 3.2 0 00.3.4 1.4 1.4 0 00.5.3h.7a2.7 2.7 0 01.4-.1 1.1 1.1 0 00.5-.3l.4-.3a4.1 4.1 0 00.4-.3zm2.2-3l.3-.7a3.8 3.8 0 00.3-.6l.2-.7a5.6 5.6 0 00.1-.6 1.2 1.2 0 01-.4 0 1.7 1.7 0 00-.4 0H72l-.4.1.2 1 .5 1.6zM90.9 56.6a4 4 0 01-1-.1 6.2 6.2 0 01-1.2-.5 3.6 3.6 0 01-1.2-1.2 5.7 5.7 0 01-.6-1.4 3.6 3.6 0 010-1.8 6.5 6.5 0 01.6-1.5V50a5.2 5.2 0 012-1.7 9 9 0 012.1-.7h-.3a10.6 10.6 0 00-1.1.1c-.7.4-1.3.8-1.9 1a7.2 7.2 0 00-1.4 1v.1l-.3.4a3.1 3.1 0 01-.4.5 1.8 1.8 0 01-1 .4H85l-1-.2-.2-.1a2.4 2.4 0 01-.5-.6 1.8 1.8 0 01-.3-.9v-.2a7.6 7.6 0 01.5-2l.8-1.6a28.5 28.5 0 001.5-2.8l.6-1-3.3.8-.8.3h-.2a4 4 0 01-.5 0 2.6 2.6 0 01-.5-.1l-.1-.1-.1-.1a2.4 2.4 0 01-.6-.6 1.9 1.9 0 01-.3-.9v-.1l.2-.9.1-.2a2.2 2.2 0 011-.7l.7-.3 4.1-1 2-.4a7.7 7.7 0 011.7-.2 7.6 7.6 0 01.8 0h.3l.2.2a2.4 2.4 0 01.5.6 2 2 0 01.4.9v.2l-.3 1-1.7 3-.5.8h.2a17.3 17.3 0 012.1-.1 4.5 4.5 0 012.6.8 7.2 7.2 0 012 2 7.6 7.6 0 011 2.8 5.7 5.7 0 01-.3 2.2 10.3 10.3 0 01-.7 1.7v.1a6.5 6.5 0 01-2.4 2 17.7 17.7 0 01-2.6 1.2h-.1zm0-3.9l1-.5a4 4 0 001-.7 1.3 1.3 0 00.3-.2h-.4a9.5 9.5 0 00-1.4.3l-.7.5a.3.3 0 000 .1 1.8 1.8 0 000 .3v.2z"/><path class="cls-2" d="M91 55.6a3 3 0 01-1-.1 5.2 5.2 0 01-.9-.4 2.6 2.6 0 01-.8-.8 4.7 4.7 0 01-.5-1.2 2.6 2.6 0 010-1.3 5.5 5.5 0 01.5-1.2 4.2 4.2 0 011.6-1.4 8 8 0 012.1-.7 5.5 5.5 0 011 0h1v-.2a5.2 5.2 0 00-.6-.8 6 6 0 00-.8-.7 3.5 3.5 0 00-1.4-.2 11.6 11.6 0 00-1.5.2l-2 1.1a8.2 8.2 0 00-1.7 1.2l-.1.3-.1.2a2 2 0 01-.3.3.8.8 0 01-.5.2l-.5-.1a1.4 1.4 0 01-.3-.3.8.8 0 01-.2-.5 6.5 6.5 0 01.5-1.6l.7-1.6a28.7 28.7 0 001.6-2.9 17.7 17.7 0 011.6-2.8l-1.6.2-4 1-.6.3h-.4a1.7 1.7 0 01-.3-.1 1.4 1.4 0 01-.3-.3.8.8 0 01-.2-.4l.1-.5a1.2 1.2 0 01.6-.4l.7-.3 4-1 2-.4a6.6 6.6 0 012.2-.1 1.4 1.4 0 01.3.3 1 1 0 01.1.4l-.1.7-1.8 2.8a14.8 14.8 0 00-1.4 3l-.3.4h.2a5 5 0 011-.7 7.9 7.9 0 011.2-.4 16.2 16.2 0 012-.1 3.5 3.5 0 012 .6 6.1 6.1 0 011.6 1.8 6.6 6.6 0 01.8 2.4 4.6 4.6 0 01-.2 1.7 9 9 0 01-.6 1.6 5.4 5.4 0 01-2 1.7 16.5 16.5 0 01-2.4 1.1zm2.5-3.4a2.3 2.3 0 00.6-.8 7.6 7.6 0 00.3-1 5.7 5.7 0 00-1.8 0 10.6 10.6 0 00-1.8.3l-1 .9a1.4 1.4 0 00-.2.7 2.9 2.9 0 00.1.8l.5.6h.8l1.4-.6a5 5 0 001.1-.9zM99.2 46.2L99 46a1.6 1.6 0 01-.5-.6 2 2 0 01-.1-.3l-.1-.5.5-1.9.1-.1a7.2 7.2 0 011.2-1.2 5.9 5.9 0 011.4-.8l1.4-.5 1.5-.4a8.3 8.3 0 011.8-.2h.6a13.6 13.6 0 012.1.3 19.5 19.5 0 002 .4 4.2 4.2 0 00.6 0 4.1 4.1 0 00.9-.1 3.7 3.7 0 01.3-.3 1.6 1.6 0 00.3-.1 3 3 0 00.3-.3l.2-.1v-.1a2.7 2.7 0 01.2-.3 1.5 1.5 0 01.6-.5 2.2 2.2 0 01.4-.1l.4-.1 1.1.2.2.2.1.2a1.8 1.8 0 01.4.4 2.2 2.2 0 01.2.4v.5l-.1 1-.2.2a8.8 8.8 0 01-.7.9 6.1 6.1 0 01-1 .7 8.6 8.6 0 01-1 .6 6.7 6.7 0 01-1.2.4 9.2 9.2 0 01-1.7.2h-.8a14 14 0 01-2.4-.4 8.2 8.2 0 00-2-.3 4.6 4.6 0 00-1.7.3 7.2 7.2 0 01-.9.3 2.2 2.2 0 00-.5.2 2.4 2.4 0 00-.4.3l-.4.3-.1.4-.3.5a1.6 1.6 0 01-.6.5 2.1 2.1 0 01-.4.2h-.5z"/><path class="cls-2" d="M112.7 43a8.2 8.2 0 01-2.2 0 13 13 0 01-2.2-.3 9.2 9.2 0 00-2.2-.3 5.5 5.5 0 00-2.1.4 6.2 6.2 0 01-.8.2 3.2 3.2 0 00-.7.3 3.5 3.5 0 00-.6.5l-.6.4-.2.6-.1.2-.1.2a.5.5 0 01-.2.1h-.2l-.3.1h-.5l-.1-.2a.5.5 0 01-.2-.2 1 1 0 010-.2l-.1-.2.4-1.4a6.2 6.2 0 011-1 4.9 4.9 0 011.2-.7l1.3-.5 1.5-.4a7.2 7.2 0 012-.1 12.4 12.4 0 012 .3 20.4 20.4 0 002 .4 5.2 5.2 0 002-.2 2.7 2.7 0 01.4-.2 2.6 2.6 0 00.4-.3 3.8 3.8 0 00.4-.3l.3-.4.1-.1a1.7 1.7 0 01.1-.2.5.5 0 01.2-.2h.2l.3-.1h.5l.2.3a.8.8 0 01.1.2 1.2 1.2 0 01.1.2v.7a7.6 7.6 0 01-.7.8 5 5 0 01-.8.7 7.5 7.5 0 01-1 .5 5.6 5.6 0 01-.8.4z"/><path class="cls-1" d="M30.9 71.3a2.5 2.5 0 01-.4 0 4 4 0 01-.6-.2l-.5-.1a4.4 4.4 0 01-1.2-.9 5 5 0 01-.8-1 9 9 0 01-.5-1.1 9 9 0 01-.4-1.1v-.2a3.1 3.1 0 010-1l.2-.7a3.6 3.6 0 01.3-.9l.3-.7.1-.1a13.8 13.8 0 011-1l.9-1a4.6 4.6 0 011.3-.8l.4-.2-.4-1.4v-.5c-.4 0-.7 0-1 .2l-2 .5-1.1.4-1.1-.2-.3-.3a1.6 1.6 0 01-.4-.6 2 2 0 01-.2-.3l-.1-.5.2-1 .1-.2a2.5 2.5 0 011.4-.9l1-.3 1.1-.3 1.1-.3h.4l-.2-.8a9.6 9.6 0 01-.2-1 2.9 2.9 0 01.1-1.3l.1-.2.2-.2a1.6 1.6 0 01.6-.5 2.2 2.2 0 01.4-.1l.4-.2 1.1.3.2.2.1.1a1.8 1.8 0 01.4.5 2.3 2.3 0 01.2.4v.3l.4 1.6.5-.1 1.6-.3L37 53a5.1 5.1 0 011.3-.2 5 5 0 01.6 0h.4l.2.3a1.6 1.6 0 01.5.6 2 2 0 01.1.4l.1.4-.2 1-.2.2a2.4 2.4 0 01-.3.4 2.2 2.2 0 01-.4.2l-.3.1-.2.1h.1l.2.3a1.6 1.6 0 01.5.5 2.2 2.2 0 01.1.4l.1.4v1.2l.5.2a7.6 7.6 0 011.7 1.4 9.9 9.9 0 011.2 2 10.4 10.4 0 01.8 1.8l.6 2v.2l-.2 1-.2.2a1.6 1.6 0 01-.6.5 2.2 2.2 0 01-.4.1l-.3.1h-.4l-.8-.1-.3-.3a5.2 5.2 0 01-.9-2 6.6 6.6 0 00-.5-1.5 5.1 5.1 0 00-.8-1.2l-.4-.3v.3a7 7 0 01-.4.8 3.2 3.2 0 00-.2.6v.2l-.2.2a4 4 0 01-.4.8 5.5 5.5 0 01-.4.6l.2.5.4 1-.3 1-.2.3a1.6 1.6 0 01-.6.5 2.2 2.2 0 01-.4.1l-.5.1-1-.1v-.1a1.6 1.6 0 01-.3-.2 5.8 5.8 0 01-.6.4 4.7 4.7 0 01-1 .5l-.9.2H31.1zm-.4-5.8a1.1 1.1 0 000 .1l-.1.5a1.5 1.5 0 000 .3 4.4 4.4 0 01.2.4 2.2 2.2 0 00.2.3 2.2 2.2 0 00.2.3 3.7 3.7 0 01.6-.2l.5-.3a3.1 3.1 0 00.3-.3l.5-.6-.1-.3a3.4 3.4 0 01-.3-.7l-.3-1a2.3 2.3 0 00-.5.3l-.7.7a2.7 2.7 0 00-.5.5zm4.1-6.6a3.5 3.5 0 01.6 0h.5a2.4 2.4 0 010-.8 4.3 4.3 0 01.3-.6v-.2l.3-.2-2 .4z"/><path class="cls-1" d="M42.6 67.8H42a4.2 4.2 0 01-.8-1.7 7.5 7.5 0 00-.6-1.6 6.1 6.1 0 00-1-1.5 7.1 7.1 0 00-1.3-1.1H38l-.2.7-.2.8a6 6 0 01-.3.7 4.2 4.2 0 00-.3.7 1 1 0 00-.3.5 2.3 2.3 0 01-.2.5 4.5 4.5 0 01-.3.5 4.3 4.3 0 00-.3.4l.3 1.1.2.7v.5l-.2.1a.5.5 0 01-.2.2h-.2l-.3.1H35a.6.6 0 01-.2-.2 1.2 1.2 0 01-.1-.3l-.2-.2a1.7 1.7 0 010-.3h-.1a5 5 0 01-.6.6 4.7 4.7 0 01-.7.5 3.6 3.6 0 01-.8.4l-.9.3h-.4a1.4 1.4 0 01-.5 0 3.1 3.1 0 01-.4-.1l-.4-.1a3.3 3.3 0 01-.9-.6 4 4 0 01-.6-.9 7.8 7.8 0 01-.8-2 2.1 2.1 0 010-.6v-.7a2.6 2.6 0 01.3-.7l.3-.6a12.9 12.9 0 01.9-1l.9-1a3.6 3.6 0 011.1-.6l1.2-.5-.2-.7-.5-1.5-.2-1.4-1 .1-1 .3-1 .2-1 .3-1 .3h-.5l-.2-.2a.5.5 0 01-.1-.2 1 1 0 01-.1-.2V57a1.5 1.5 0 01.9-.5l1-.3 1-.3 1-.3 1.4-.2a8.7 8.7 0 01-.2-.9 8.9 8.9 0 00-.2-.9 8.7 8.7 0 01-.2-.9 1.9 1.9 0 010-.9 1.2 1.2 0 00.2-.1.5.5 0 01.2-.2h.2l.3-.1.5.1.2.2a.8.8 0 01.1.2 1.3 1.3 0 01.1.2v.3l.8 2.6 1.5-.4 1.5-.2 1.5-.4a4 4 0 011.5 0 1.2 1.2 0 00.2 0 .5.5 0 01.1.3 1.1 1.1 0 01.1.2v.7a1.4 1.4 0 01-.2.2 1.2 1.2 0 01-.3.1l-.2.1-.3.1-5 1 .7 3 .1.4.7-.2a2.5 2.5 0 01.7-.1h.7a3.1 3.1 0 00.7-.1v-.4a1.2 1.2 0 000-.5 1.1 1.1 0 010-.5 3.4 3.4 0 01.2-.4 1.2 1.2 0 00.1-.2.5.5 0 01.2-.1l.2-.1h.8a1.2 1.2 0 00.1.2.5.5 0 01.2.2 1.2 1.2 0 010 .2l.1.2-.1 1.8 1.1.4a6.6 6.6 0 011.5 1.3 8.8 8.8 0 011 1.5A9.3 9.3 0 0143 65l.5 1.9v.5l-.2.1a.5.5 0 01-.2.2h-.2zm-9.6-.5l.8-1-.2-1a2.4 2.4 0 01-.3-.6l-.1-.7-.3-.7-.2-.7h-.2a6.6 6.6 0 00-.9.4 3.3 3.3 0 00-.7.6l-.7.6a3.8 3.8 0 00-.6.7 2.5 2.5 0 00-.1.5l-.1.4a2.5 2.5 0 00-.1.5.8.8 0 000 .4l.3.5a3.2 3.2 0 00.3.4 3.2 3.2 0 00.3.4 1.4 1.4 0 00.4.3h.7a2.7 2.7 0 01.5-.1 1.1 1.1 0 00.5-.3l.3-.3a4.1 4.1 0 00.4-.3zm2.3-3l.3-.6a3.8 3.8 0 00.2-.7l.2-.7a5.6 5.6 0 00.2-.6 1.2 1.2 0 01-.5 0 1.7 1.7 0 00-.4 0H35l-.4.2.2 1 .5 1.5zM53.8 66.4a4 4 0 01-1.1-.1 6.2 6.2 0 01-1.1-.5 3.6 3.6 0 01-1.2-1.2 5.7 5.7 0 01-.6-1.4 3.6 3.6 0 010-1.8 6.5 6.5 0 01.5-1.4v-.1a5.2 5.2 0 012-1.8 9 9 0 012.2-.7h-.3a10.6 10.6 0 00-1.2.2l-1.8 1a7.2 7.2 0 00-1.4 1l-.3.4a3 3 0 01-.4.5 1.8 1.8 0 01-1 .4h-.2l-.9-.2-.2-.1a2.4 2.4 0 01-.5-.6 1.8 1.8 0 01-.3-.9V59a7.6 7.6 0 01.4-1.9l.8-1.7a28.5 28.5 0 001.5-2.8l.6-1-3.3.8-.8.3H45a4 4 0 01-.5 0 2.6 2.6 0 01-.6-.1h-.1l-.1-.2a2.4 2.4 0 01-.6-.5 1.8 1.8 0 01-.3-1l.2-1 .2-.1a2.2 2.2 0 011-.8l.6-.2 4.2-1.2c.8 0 1.4-.2 2-.3a7.7 7.7 0 011.8-.2 7.6 7.6 0 01.8 0h.3l.2.2a2.4 2.4 0 01.5.5 2 2 0 01.3 1v.1l-.2 1-1.8 3-.5.8h.2a17.4 17.4 0 012.1-.1 4.5 4.5 0 012.5.8 7.2 7.2 0 012 2 7.7 7.7 0 011 2.8 5.7 5.7 0 01-.2 2.1 10.2 10.2 0 01-.7 1.8v.1a6.5 6.5 0 01-2.4 2 17.6 17.6 0 01-2.6 1.2h-.1zm0-3.9l1-.5a4 4 0 001-.7 1.2 1.2 0 00.2-.2h-.3a9.5 9.5 0 00-1.5.3l-.6.5a.3.3 0 000 .1 1.8 1.8 0 000 .4z"/><path class="cls-1" d="M54 65.4a3 3 0 01-1-.1 5.2 5.2 0 01-1-.4 2.6 2.6 0 01-.9-.8 4.7 4.7 0 01-.4-1.2 2.6 2.6 0 010-1.3 5.5 5.5 0 01.4-1.3 4.2 4.2 0 011.6-1.3 8 8 0 012.2-.7 5.5 5.5 0 011 0h1V58a5.2 5.2 0 00-.6-.8 6 6 0 00-.8-.7 3.5 3.5 0 00-1.5-.2 11.6 11.6 0 00-1.4.2l-2 1.1a8.2 8.2 0 00-1.8 1.3v.3l-.2.2a2 2 0 01-.3.3.8.8 0 01-.5.2l-.5-.2a1.4 1.4 0 01-.3-.3.8.8 0 01-.1-.4 6.5 6.5 0 01.4-1.7l.8-1.6a28.7 28.7 0 001.5-2.8 17.7 17.7 0 011.7-2.8V50l-1.6.2-4 1-.7.3h-.3a1.7 1.7 0 01-.4 0 1.4 1.4 0 01-.3-.4.8.8 0 01-.1-.4v-.5a1.2 1.2 0 01.6-.4l.7-.3 4-1 2.1-.4a6.6 6.6 0 012.1-.1 1.4 1.4 0 01.4.3 1 1 0 01.1.5l-.1.7-1.8 2.7a14.8 14.8 0 00-1.4 3l-.3.4h.2a5 5 0 011-.6 7.9 7.9 0 011.2-.4 16.2 16.2 0 012-.2 3.5 3.5 0 012 .7 6.1 6.1 0 011.6 1.8 6.6 6.6 0 01.8 2.4A4.6 4.6 0 0159 61a9 9 0 01-.7 1.6 5.4 5.4 0 01-2 1.7 16.5 16.5 0 01-2.4 1.1zm2.4-3.4a2.3 2.3 0 00.6-.8 7.6 7.6 0 00.3-1 5.7 5.7 0 00-1.8 0 10.6 10.6 0 00-1.8.3l-1 .9a1.4 1.4 0 00-.2.7 2.9 2.9 0 000 .7l.6.7h.8l1.4-.6a5 5 0 001.1-.9zM68 61.5a2.5 2.5 0 01-.4 0 4 4 0 01-.6-.2l-.5-.2a4.4 4.4 0 01-1.2-.8 5 5 0 01-.8-1 9 9 0 01-.5-1.1 9 9 0 01-.4-1.2v-.1a3.1 3.1 0 010-1l.2-.7a3.6 3.6 0 01.3-.9l.3-.7v-.2a13.8 13.8 0 011-1l1-.9a4.6 4.6 0 011.3-.9l.4-.1-.4-1.5v-.5a8.8 8.8 0 00-1 .2l-2 .5-1 .4-1.2-.2-.2-.3a1.6 1.6 0 01-.5-.5 2 2 0 01-.1-.4l-.2-.5.2-1 .2-.1a2.5 2.5 0 011.4-1l1-.2 1-.3 1.2-.3.3-.1-.1-.7a9.6 9.6 0 01-.2-1 2.9 2.9 0 010-1.3l.1-.3.3-.2a1.6 1.6 0 01.5-.4 2.3 2.3 0 01.4-.2l.5-.1 1 .2.3.3a1.7 1.7 0 01.4.5 2.4 2.4 0 01.2.5v.3l.4 1.7.6-.1 1.5-.3c.5 0 1-.2 1.4-.3a5.1 5.1 0 011.3-.2 5 5 0 01.6 0h.4l.2.3a1.6 1.6 0 01.5.5 2.2 2.2 0 01.1.4l.2.5-.3 1-.1.2a2.4 2.4 0 01-.4.3 2.3 2.3 0 01-.4.3l-.3.1h-.2.2l.2.3a1.6 1.6 0 01.4.6 2.2 2.2 0 01.2.4v1.6l.5.2h.1a7.6 7.6 0 011.7 1.5 9.9 9.9 0 011.2 1.7 10.4 10.4 0 01.8 1.9l.5 1.9.1.2-.2 1-.3.3a1.6 1.6 0 01-.5.5 2.2 2.2 0 01-.4.1l-.5.1-1-.2-.3-.3a5.2 5.2 0 01-1-2 6.6 6.6 0 00-.4-1.4 5.1 5.1 0 00-.8-1.2l-.4-.3v.3a7 7 0 01-.4.8 3.2 3.2 0 00-.2.6v.2l-.2.2a3.9 3.9 0 01-.4.8 5.4 5.4 0 01-.3.6l.1.6.4.8-.3 1.2-.2.2a1.6 1.6 0 01-.6.5 2.1 2.1 0 01-.4.1l-.5.1-.9-.2h-.1a1.6 1.6 0 01-.3-.2 5.6 5.6 0 01-.6.4 4.7 4.7 0 01-1 .5l-.8.2H68.4zm-.4-5.8a1 1 0 000 .1v.5a1.5 1.5 0 000 .3 4.3 4.3 0 01.1.4 2.2 2.2 0 00.2.3 2.3 2.3 0 00.2.2l.1.1a3.7 3.7 0 01.6-.2l.5-.4a3 3 0 00.2-.2l.5-.6V56a3.5 3.5 0 01-.4-.7l-.2-.7v-.3a2.3 2.3 0 00-.5.3l-.8.7a2.8 2.8 0 00-.5.5zm4.2-6.6a3.5 3.5 0 01.6 0h.4a2.3 2.3 0 01.1-.8 4.3 4.3 0 01.2-.6v-.2l.3-.2-2 .4z"/><path class="cls-1" d="M79.7 58l-.5-.1a4.2 4.2 0 01-.7-1.6 7.5 7.5 0 00-.6-1.7 6.1 6.1 0 00-1-1.4 7.1 7.1 0 00-1.4-1.1h-.3l-.2.7-.2.8a6 6 0 01-.3.7 4.2 4.2 0 00-.3.7 1 1 0 00-.3.5 2.3 2.3 0 01-.2.5 4.5 4.5 0 01-.3.5 4.3 4.3 0 00-.3.4l.3 1.1.3.7-.1.5-.2.1a.5.5 0 01-.2.2H73l-.3.1h-.5a.6.6 0 01-.2-.3 1.2 1.2 0 01-.1-.2l-.1-.2a1.7 1.7 0 01-.1-.3h-.1a5 5 0 01-.6.6 4.7 4.7 0 01-.7.5 3.6 3.6 0 01-.8.4l-.8.3h-.5a1.4 1.4 0 01-.4 0 3.1 3.1 0 01-.5-.1L67 60a3.3 3.3 0 01-.9-.6 4 4 0 01-.6-.8 7.8 7.8 0 01-.8-2 2.1 2.1 0 010-.7l.1-.7a2.6 2.6 0 01.2-.7l.3-.6a12.9 12.9 0 01.9-1l1-1a3.6 3.6 0 011-.6l1.2-.5-.2-.7-.5-1.6-.2-1.4-1 .2-1 .2-1 .3-1 .2-1 .4H63l-.2-.1a.5.5 0 01-.1-.2 1 1 0 010-.2l-.1-.2v-.5a1.5 1.5 0 011-.6l1-.3 1-.3 1-.3 1.4-.2a8.7 8.7 0 01-.2-.9 8.9 8.9 0 00-.2-.9 8.7 8.7 0 01-.2-.9 1.9 1.9 0 010-.9 1.2 1.2 0 00.2-.1.5.5 0 01.2-.2h.2l.3-.1.5.1.2.2a.8.8 0 01.1.2 1.3 1.3 0 01.1.2v.3l.6 2.6 1.5-.4 1.5-.3 1.6-.3a4 4 0 011.5-.1 1.2 1.2 0 00.1.1.5.5 0 01.2.2 1.1 1.1 0 010 .2l.1.2-.1.5a1.4 1.4 0 01-.2.2 1.2 1.2 0 01-.2.2h-.3l-.3.2-5 1 .7 2.9.2.4.6-.2a2.5 2.5 0 01.7 0h.7a3.1 3.1 0 00.6-.1l.1-.5a1.2 1.2 0 000-.5 1.1 1.1 0 010-.4 3.4 3.4 0 01.2-.5 1.2 1.2 0 00.1-.1.5.5 0 01.2-.2h.2l.2-.1h.5a1.2 1.2 0 00.2.2.5.5 0 01.1.2 1.2 1.2 0 01.1.2v2l1.1.5a6.6 6.6 0 011.5 1.3 8.8 8.8 0 011 1.5 9.3 9.3 0 01.8 1.7l.5 1.9v.5l-.2.1a.5.5 0 01-.2.2h-.2zm-9.5-.5l.8-1-.2-1a2.4 2.4 0 01-.3-.7l-.2-.7-.2-.7-.2-.7-.2.1a6.6 6.6 0 00-.9.4 3.3 3.3 0 00-.8.6l-.6.6a3.8 3.8 0 00-.7.7 2.5 2.5 0 000 .4l-.2.5a2.5 2.5 0 000 .4.8.8 0 000 .5l.3.4a3.2 3.2 0 00.2.5 3.2 3.2 0 00.3.4 1.4 1.4 0 00.5.3h.7a2.7 2.7 0 01.4-.1 1.1 1.1 0 00.5-.3l.4-.3a4.1 4.1 0 00.4-.3zm2.2-3l.3-.7a3.8 3.8 0 00.3-.6l.2-.7a5.6 5.6 0 00.1-.6 1.2 1.2 0 01-.4 0 1.7 1.7 0 00-.4 0H72l-.4.1.2 1 .5 1.6zM90.9 56.6a4 4 0 01-1-.1 6.2 6.2 0 01-1.2-.5 3.6 3.6 0 01-1.2-1.2 5.7 5.7 0 01-.6-1.4 3.6 3.6 0 010-1.8 6.5 6.5 0 01.6-1.5V50a5.2 5.2 0 012-1.7 9 9 0 012.1-.7h-.3a10.6 10.6 0 00-1.1.1c-.7.4-1.3.8-1.9 1a7.2 7.2 0 00-1.4 1v.1l-.3.4a3.1 3.1 0 01-.4.5 1.8 1.8 0 01-1 .4H85l-1-.2-.2-.1a2.4 2.4 0 01-.5-.6 1.8 1.8 0 01-.3-.9v-.2a7.6 7.6 0 01.5-2l.8-1.6a28.5 28.5 0 001.5-2.8l.6-1-3.3.8-.8.3h-.2a4 4 0 01-.5 0 2.6 2.6 0 01-.5-.1l-.1-.1-.1-.1a2.4 2.4 0 01-.6-.6 1.9 1.9 0 01-.3-.9v-.1l.2-.9.1-.2a2.2 2.2 0 011-.7l.7-.3 4.1-1 2-.4a7.7 7.7 0 011.7-.2 7.6 7.6 0 01.8 0h.3l.2.2a2.4 2.4 0 01.5.6 2 2 0 01.4.9v.2l-.3 1-1.7 3-.5.8h.2a17.3 17.3 0 012.1-.1 4.5 4.5 0 012.6.8 7.2 7.2 0 012 2 7.6 7.6 0 011 2.8 5.7 5.7 0 01-.3 2.2 10.3 10.3 0 01-.7 1.7v.1a6.5 6.5 0 01-2.4 2 17.7 17.7 0 01-2.6 1.2h-.1zm0-3.9l1-.5a4 4 0 001-.7 1.3 1.3 0 00.3-.2h-.4a9.5 9.5 0 00-1.4.3l-.7.5a.3.3 0 000 .1 1.8 1.8 0 000 .3v.2z"/><path class="cls-1" d="M91 55.6a3 3 0 01-1-.1 5.2 5.2 0 01-.9-.4 2.6 2.6 0 01-.8-.8 4.7 4.7 0 01-.5-1.2 2.6 2.6 0 010-1.3 5.5 5.5 0 01.5-1.2 4.2 4.2 0 011.6-1.4 8 8 0 012.1-.7 5.5 5.5 0 011 0h1v-.2a5.2 5.2 0 00-.6-.8 6 6 0 00-.8-.7 3.5 3.5 0 00-1.4-.2 11.6 11.6 0 00-1.5.2l-2 1.1a8.2 8.2 0 00-1.7 1.2l-.1.3-.1.2a2 2 0 01-.3.3.8.8 0 01-.5.2l-.5-.1a1.4 1.4 0 01-.3-.3.8.8 0 01-.2-.5 6.5 6.5 0 01.5-1.6l.7-1.6a28.7 28.7 0 001.6-2.9 17.7 17.7 0 011.6-2.8l-1.6.2-4 1-.6.3h-.4a1.7 1.7 0 01-.3-.1 1.4 1.4 0 01-.3-.3.8.8 0 01-.2-.4l.1-.5a1.2 1.2 0 01.6-.4l.7-.3 4-1 2-.4a6.6 6.6 0 012.2-.1 1.4 1.4 0 01.3.3 1 1 0 01.1.4l-.1.7-1.8 2.8a14.8 14.8 0 00-1.4 3l-.3.4h.2a5 5 0 011-.7 7.9 7.9 0 011.2-.4 16.2 16.2 0 012-.1 3.5 3.5 0 012 .6 6.1 6.1 0 011.6 1.8 6.6 6.6 0 01.8 2.4 4.6 4.6 0 01-.2 1.7 9 9 0 01-.6 1.6 5.4 5.4 0 01-2 1.7 16.5 16.5 0 01-2.4 1.1zm2.5-3.4a2.3 2.3 0 00.6-.8 7.6 7.6 0 00.3-1 5.7 5.7 0 00-1.8 0 10.6 10.6 0 00-1.8.3l-1 .9a1.4 1.4 0 00-.2.7 2.9 2.9 0 00.1.8l.5.6h.8l1.4-.6a5 5 0 001.1-.9zM99.2 46.2L99 46a1.6 1.6 0 01-.5-.6 2 2 0 01-.1-.3l-.1-.5.5-1.9.1-.1a7.2 7.2 0 011.2-1.2 5.9 5.9 0 011.4-.8l1.4-.5 1.5-.4a8.3 8.3 0 011.8-.2h.6a13.6 13.6 0 012.1.3 19.5 19.5 0 002 .4 4.2 4.2 0 00.6 0 4.1 4.1 0 00.9-.1 3.7 3.7 0 01.3-.3 1.6 1.6 0 00.3-.1 3 3 0 00.3-.3l.2-.1v-.1a2.7 2.7 0 01.2-.3 1.5 1.5 0 01.6-.5 2.2 2.2 0 01.4-.1l.4-.1 1.1.2.2.2.1.2a1.8 1.8 0 01.4.4 2.2 2.2 0 01.2.4v.5l-.1 1-.2.2a8.8 8.8 0 01-.7.9 6.1 6.1 0 01-1 .7 8.6 8.6 0 01-1 .6 6.7 6.7 0 01-1.2.4 9.2 9.2 0 01-1.7.2h-.8a14 14 0 01-2.4-.4 8.2 8.2 0 00-2-.3 4.6 4.6 0 00-1.7.3 7.2 7.2 0 01-.9.3 2.2 2.2 0 00-.5.2 2.4 2.4 0 00-.4.3l-.4.3-.1.4-.3.5a1.6 1.6 0 01-.6.5 2.1 2.1 0 01-.4.2h-.5z"/><path class="cls-1" d="M112.7 43a8.2 8.2 0 01-2.2 0 13 13 0 01-2.2-.3 9.2 9.2 0 00-2.2-.3 5.5 5.5 0 00-2.1.4 6.2 6.2 0 01-.8.2 3.2 3.2 0 00-.7.3 3.5 3.5 0 00-.6.5l-.6.4-.2.6-.1.2-.1.2a.5.5 0 01-.2.1h-.2l-.3.1h-.5l-.1-.2a.5.5 0 01-.2-.2 1 1 0 010-.2l-.1-.2.4-1.4a6.2 6.2 0 011-1 4.9 4.9 0 011.2-.7l1.3-.5 1.5-.4a7.2 7.2 0 012-.1 12.4 12.4 0 012 .3 20.4 20.4 0 002 .4 5.2 5.2 0 002-.2 2.7 2.7 0 01.4-.2 2.6 2.6 0 00.4-.3 3.8 3.8 0 00.4-.3l.3-.4.1-.1a1.7 1.7 0 01.1-.2.5.5 0 01.2-.2h.2l.3-.1h.5l.2.3a.8.8 0 01.1.2 1.2 1.2 0 01.1.2v.7a7.6 7.6 0 01-.7.8 5 5 0 01-.8.7 7.5 7.5 0 01-1 .5 5.6 5.6 0 01-.8.4z"/><path class="cls-3" d="M33.8 88.6s8.6 9.3 22.6-1.3M29 84.7l4-6 6 4M49.7 83.4l5.3-4.9 5 5.3"/><path d="M33.6 88.7s8.7 9.3 22.7-1.4" stroke-width="3" fill="none" stroke="#fff" stroke-linecap="round" stroke-linejoin="round"/><path class="cls-3" d="M67.6 82L65 86.7M70 84.3L67.3 89M22.3 82l-2.7 4.7M24.6 84.3L22 89"/></svg>