<svg id="ぬりつぶし" xmlns="http://www.w3.org/2000/svg" viewBox="0 0 120 120"><defs><style>.cls-2{fill:#fff}</style></defs><path d="M98.7 60c0 10.5-3.8 21.1-10.7 28S70.5 98.1 60 98.1s-21.2-3.1-28-10-9.1-17.6-9.1-28.1 3.4-20 10.3-26.8 16.3-8.7 26.8-8.7 19.3 2.4 26.2 9.3S98.7 49.5 98.7 60z" fill="#4c1b1b"/><path class="cls-2" d="M50 57.5a4 4 0 01-4 4 3.9 3.9 0 110-7.9 4 4 0 014 4zM79 57.5a4 4 0 01-4 4 4 4 0 01-4-4 3.9 3.9 0 014-3.8 3.8 3.8 0 014 3.8z"/><path d="M46.5 70.3s2.5 9 12.2 9c0 0 10.8 1.4 14.3-8" fill="none" stroke="#fff" stroke-linecap="round" stroke-linejoin="round" stroke-width="5"/></svg>