<svg id="レイヤー_4" data-name="レイヤー 4" xmlns="http://www.w3.org/2000/svg" viewBox="0 0 120 120"><defs><style>.cls-2{fill:none;stroke-linecap:round;stroke-linejoin:round;stroke-width:5px;stroke:#fff}</style></defs><path d="M80 77c0 10-2 20-9 27s-17 12-27 12a41 41 0 01-28-12C9 98 6 87 6 77a37 37 0 0111-27c7-7 16-12 27-12s18 7 25 13 11 15 11 26z" fill="#f4714b"/><path class="cls-2" d="M58 93l6 8 2-9 6 7 2-10"/><path stroke="#f4714b" fill="none" stroke-linecap="round" stroke-linejoin="round" stroke-width="5" d="M82 89l5 8 3-8 5 6 3-10"/><path class="cls-2" d="M22 53l12 6-11 4M54 50l-7 8 11 1M28 71l25-4c3-1-6 29-20 7l-2-3"/></svg>