<svg id="レイヤー_4" data-name="レイヤー 4" xmlns="http://www.w3.org/2000/svg" viewBox="0 0 120 120"><defs><style>.cls-1{fill:#e23b56}.cls-2,.cls-4{fill:none;stroke:#fff;stroke-linecap:round;stroke-linejoin:round}.cls-3{fill:#fff}.cls-4{stroke-width:5px}</style></defs><path class="cls-1" d="M81.4 79.8c0 10.6-3.8 21.1-10.7 28S53.2 118 42.7 118s-21.2-3.1-28-10-9.1-17.6-9.1-28.2S9 60 15.9 53s16.3-8.7 26.8-8.7S62 46.8 69 53.7s12.5 15.6 12.5 26.1z"/><path class="cls-2" d="M16.7 63a1 1 0 01-.2-2c3.2-.6 3.7-1.5 3.8-1.8.1-.5-.5-1.2-.8-1.5a1 1 0 011.4-1.5c.2.2 1.8 1.7 1.3 3.5-.4 1.6-2.2 2.6-5.3 3.3zM23.2 70.5a1 1 0 01-1-.8c-.6-3.2-1.5-3.7-1.8-3.8-.5-.1-1.2.5-1.5.7a1 1 0 01-1.4-1.3c.1-.2 1.6-1.8 3.4-1.3 1.6.4 2.7 2.1 3.3 5.3a1 1 0 01-.8 1.2zM27.2 69a1 1 0 01-.6-.3c-.2-.1-1.9-1.6-1.4-3.4.5-1.6 2.2-2.7 5.3-3.3a1 1 0 01.4 2c-3.2.7-3.7 1.6-3.7 1.8-.2.5.4 1.2.7 1.5a1 1 0 01-.7 1.7zM27.2 61a2.7 2.7 0 01-.7 0c-1.6-.5-2.6-2.2-3.3-5.4a1 1 0 112-.4C26 58.4 26.8 59 27 59c.6.1 1.3-.4 1.5-.7a1 1 0 011.5 1.3 4.1 4.1 0 01-2.8 1.4z"/><path class="cls-3" d="M16.7 63a1 1 0 01-.2-2c3.2-.6 3.7-1.5 3.8-1.8.1-.5-.5-1.2-.8-1.5a1 1 0 011.4-1.5c.2.2 1.8 1.7 1.3 3.5-.4 1.6-2.2 2.6-5.3 3.3zM23.2 70.5a1 1 0 01-1-.8c-.6-3.2-1.5-3.7-1.8-3.8-.5-.1-1.2.5-1.5.7a1 1 0 01-1.4-1.3c.1-.2 1.6-1.8 3.4-1.3 1.6.4 2.7 2.1 3.3 5.3a1 1 0 01-.8 1.2zM27.2 69a1 1 0 01-.6-.3c-.2-.1-1.9-1.6-1.4-3.4.5-1.6 2.2-2.7 5.3-3.3a1 1 0 01.4 2c-3.2.7-3.7 1.6-3.7 1.8-.2.5.4 1.2.7 1.5a1 1 0 01-.7 1.7zM27.2 61a2.7 2.7 0 01-.7 0c-1.6-.5-2.6-2.2-3.3-5.4a1 1 0 112-.4C26 58.4 26.8 59 27 59c.6.1 1.3-.4 1.5-.7a1 1 0 011.5 1.3 4.1 4.1 0 01-2.8 1.4z"/><path class="cls-4" d="M48 67.8l-9.2-4M59.5 66.1l6.3-6.3M43.7 80a18.4 18.4 0 0121.8-2.3"/><path class="cls-1" d="M13 41.5l-.2-.3a6.8 6.8 0 01-1-2l-.6-1.8-.6-2-.3-1-.5 1-.8 1.5-.6 1.6-.1.2-.2.2a1.6 1.6 0 01-.5.4 2 2 0 01-.4.2l-.5.1-1.1-.2-.2-.3a1.5 1.5 0 01-.5-.5 2 2 0 01-.1-.4l-.1-.6v-.2A22.7 22.7 0 016.4 34l1.6-3c.6-1 1-2.2 1.5-3.3a36 36 0 011.9-3.2l.9-1.7v-.1l.2-.2a1.8 1.8 0 01.5-.4 2 2 0 01.6-.3l.5-.1 1.1.2.2.3a1.5 1.5 0 01.5.5 2.2 2.2 0 01.1.4l.1.5-.2 1-.6.8-2 3.6.1.5v.2a1.6 1.6 0 00.1.6 6.3 6.3 0 01.3 1.2l.2 1 .1.9 2 6.4-.2 1-.2.3a1.7 1.7 0 01-.6.4 2.1 2.1 0 01-.4.2l-.4.1z"/><path class="cls-1" d="M14.1 40.7h-.5a5.8 5.8 0 01-.8-1.8l-.6-1.8-.6-1.9-.5-1.9-.3-1.7h-.1a17.6 17.6 0 01-.8 1.6L9 34.8l-.8 1.7-.8 1.6-.1.2a.5.5 0 01-.2.1l-.2.1H6a1.2 1.2 0 00-.1-.2.5.5 0 01-.1-.2 1 1 0 01-.1-.2v-.2a21.7 21.7 0 011.4-3.2l1.6-3.1 1.5-3.2a34.7 34.7 0 011.8-3.1l.9-1.7.2-.3a.8.8 0 01.2-.2 1 1 0 01.3 0l.3-.2.5.1a1.1 1.1 0 00.2.2.5.5 0 01.1.2 1.1 1.1 0 01.1.2v.7l-.6.7-2.3 4v.2l.3.6a2.6 2.6 0 00.1 1 5.3 5.3 0 01.3 1l.1 1 .2 1 2 6.2-.1.5a1.1 1.1 0 00-.2.1.5.5 0 01-.1.2h-.2zM32.2 36l-.8-.1-.2-.3a1.6 1.6 0 01-.5-.5 1.4 1.4 0 01-.3-.6V34l.5-2.6a67.8 67.8 0 001-5l.4-1.1-.7.1a36.4 36.4 0 01-4.3.8l-2.2.5-.7.3H24l-.7.3h-.5a1.4 1.4 0 01-.7-.2H22l-.3-.3a1.6 1.6 0 01-.4-.6 2 2 0 01-.1-.4l-.2-.4.3-1.1.2-.2a1.7 1.7 0 01.6-.5 2.3 2.3 0 01.4-.1l.2-.1h.4l.5-.2.7-.1 2-.6 2.2-.4 2.2-.4 2.2-.3a13.2 13.2 0 011.6 0H35.6l.3.2a1.6 1.6 0 01.4.6 2.2 2.2 0 01.2.4V23.3a30 30 0 01-.5 3 58.1 58.1 0 00-1.3 5.7l-.5 2.9-.1.3-.3.2a1.6 1.6 0 01-.5.5 2 2 0 01-.4.1l-.4.1zm-8-13.6H24a2.6 2.6 0 01-.7-.2H23l-.2-.3a1.6 1.6 0 01-.4-.5 2 2 0 01-.1-.4l-.2-.4.3-1.1.2-.2a1.6 1.6 0 01.6-.5 2 2 0 01.4-.1l.2-.1h.1l2-.3c.7 0 1.3-.2 2-.3l2-.3a8 8 0 011.4-.2 7.6 7.6 0 01.8 0h.4l.2.3a1.6 1.6 0 01.5.6 2 2 0 01.1.4l.1.4-.2 1.1-.2.2a1.6 1.6 0 01-.6.5h-.2a2.2 2.2 0 01-.4.2h-.1l-1.5.2-1.5.2-1.6.4-1.3.2h-.7a3.3 3.3 0 01-.6.2z"/><path class="cls-1" d="M32.4 35.1L32 35l-.2-.1a.5.5 0 01-.1-.2.9.9 0 00-.1-.2.5.5 0 01-.1-.2q.1-1.3.4-2.5t.5-2.5l.6-2.5.6-2.5a12 12 0 00-2.2.3l-2.2.3q-1.2.1-2.1.4l-2.1.6-.7.2h-.5l-.5.2h-.4a.3.3 0 01-.2 0 .6.6 0 00-.2 0l-.2-.2a.5.5 0 01-.1-.2 1 1 0 010-.2l-.2-.2.2-.5.1-.2a.5.5 0 01.2-.1h.2l.3-.1h.2l.7-.3h.6l2-.7 2.2-.3 2.2-.4 2.2-.4a12 12 0 012.1 0l.2.1a.5.5 0 01.1.2 1.2 1.2 0 01.1.2v.3A29 29 0 0135 26l-.7 2.8-.6 2.9-.5 2.9a1.2 1.2 0 00-.2.1.5.5 0 01-.2.2h-.2zm-1-14.8l-1.4.2-1.5.3-1.6.2-1.4.2h-.2a2.3 2.3 0 00-.4.2 2.3 2.3 0 01-.5 0 2.7 2.7 0 01-.4 0 1.6 1.6 0 01-.4 0l-.2-.2a.5.5 0 01-.1-.2 1 1 0 01-.1-.2V20l.2-.2a.5.5 0 01.2-.1l.2-.1h.2l2-.4 2-.3 2-.3a6.8 6.8 0 012-.1l.1.1a.5.5 0 01.1.2 1.1 1.1 0 01.1.2v.7a1.2 1.2 0 00-.2.2.5.5 0 01-.2.2h-.2zM89 114.7a1.9 1.9 0 01-.6-.2h-.1l-.9-.6v-.3a4.9 4.9 0 01-.1-2l.2-1.6.4-2.4.3-2.4-1.2 1c-.7.8-1.4 1.4-2.2 2l-.6.6a13 13 0 00-1.6 1.5l-1 1.1a2.3 2.3 0 01-.9.4 1.9 1.9 0 01-.3 0 2 2 0 01-.7 0l-.2-.1-.7-.6-.1-.2a2.4 2.4 0 01-.2-.7 1.8 1.8 0 010-1l.1-.1.2-.2a41.3 41.3 0 014.4-4.5l3.8-3.3-2.7-.5-1.8-.3h-.2a4 4 0 00-.7-.3 3.3 3.3 0 01-1.2-.7l-.2-.1V99a2.4 2.4 0 01-.3-.7 1.8 1.8 0 01.1-1V97l.5-.7h.2a2 2 0 011-.3h.2l.7.1h.2l.1.1a2.3 2.3 0 00.8.3l.8.1h.5l2.8.5a9.8 9.8 0 001.2.3h.2v-.4l.5-3 .2-.5a1.8 1.8 0 01.7-.8h.1a2.4 2.4 0 01.8-.3h.2a1.9 1.9 0 01.7.2h.1l.7.5.1.2a2.4 2.4 0 01.3.8 2 2 0 01-.2 1v.1L93 98v.6h.1l2 .4h.1a7.4 7.4 0 001.4.4 5.3 5.3 0 012 .7l.2.1.2.3a2.4 2.4 0 01.2.7 2 2 0 01-.1 1v.2l-.6.7h-.2a2 2 0 01-1 .3 4 4 0 01-.7 0l-2.3-.6-2-.4a47.8 47.8 0 01-.7 5.8l-.4 2.4-.4 2.9-.6.8-.2.1a2.4 2.4 0 01-.8.3z"/><path class="cls-1" d="M88.8 113.6l-.5-.3a3.9 3.9 0 010-1.6l.2-1.6.4-2.3.6-5-1 .8-2.1 2-2.2 2-.7.5-.8.7-.8.8-.9 1a1.3 1.3 0 01-.4.2 1 1 0 01-.6 0l-.4-.3a1.4 1.4 0 01-.1-.4.8.8 0 010-.4 40 40 0 014.4-4.4l4.7-4.1.6-.5-2-.5-2.7-.5-1.7-.3a5 5 0 00-1-.4 2.3 2.3 0 01-.8-.4 1.4 1.4 0 01-.1-.4.8.8 0 010-.5l.3-.4a1 1 0 01.6-.1h.7a3.3 3.3 0 001 .5l1.3.2 2.8.5a10.7 10.7 0 001.2.3l1.2.3.3-1.4v-.1l.5-2.9.2-.4a.8.8 0 01.3-.3 1.4 1.4 0 01.4-.2.8.8 0 01.4 0l.5.4a1.4 1.4 0 010 .4 1 1 0 010 .5l-.6 2.8-.2 1.5 1 .3 2 .4a8.4 8.4 0 001.7.4 4.3 4.3 0 011.5.6 1.4 1.4 0 01.2.4 1 1 0 010 .5l-.4.4a1 1 0 01-.5.1 3 3 0 01-.6 0l-2.2-.6-2-.4a1.3 1.3 0 00-.4-.2h-.6l-.2 1q0 1.5-.3 3t-.3 3l-.4 2.2-.4 2.7-.3.4a1.4 1.4 0 01-.4.2.8.8 0 01-.5-.1zM112.2 115.6h-1l-.5-.2-1.7-.3-2-.3c-.8 0-1.6-.2-2.3-.3l-2.2-.4-2.2-.4h-.2l-.2-.1h-.1a1.5 1.5 0 01-.4-.4l-.3-.2-.2-.3a1.6 1.6 0 01-.1-.7 2 2 0 010-.4v-.5l.8-1h.8a14.9 14.9 0 012.7.2l2.8.5q1.3.3 2.7.4l2 .3.7-4.1c0-.3 0-.7.2-1.1s.1-.8.1-1.1l.2-1.4-1.9-.5a25 25 0 00-2.6-.7l-2.7-.6a11.6 11.6 0 01-2.9-1l-.4-.2v-.4a1.6 1.6 0 01-.2-.7 2.1 2.1 0 010-.4v-.5l.7-.9h.3a2 2 0 01.6-.3 1.6 1.6 0 01.3 0h.3l.4.1a17.4 17.4 0 002.7.7l3 .7 2.8.7a17.2 17.2 0 012.9 1l.5.3v.5a7 7 0 010 2l-.2 1.8-.3 1.8-.3 1.8-.8 4.1v1.3l-.7.8-.2.1a2 2 0 01-.9.2z"/><path class="cls-1" d="M100.5 112.7h-.1l-.2-.2a.5.5 0 01-.2 0v-.2a1.3 1.3 0 00-.2-.2.5.5 0 010-.2 1 1 0 010-.2v-.3l.3-.4a13.7 13.7 0 012.8.3l2.8.4 2.8.5 2.8.4 1-5.1.1-1.1.2-1.2.2-1a8 8 0 000-1.2l-2.6-.8-2.7-.7-2.7-.5a10.5 10.5 0 01-2.6-.9 1.2 1.2 0 000-.2.5.5 0 01-.1-.2 1.1 1.1 0 010-.2v-.2l.3-.5a1.1 1.1 0 00.2 0 1 1 0 01.3-.2.7.7 0 01.2 0h.3a18.2 18.2 0 002.8.8l2.9.7 2.8.7a16 16 0 012.8 1 6 6 0 010 1.8l-.3 1.7-.3 1.8q-.2.8-.2 1.8l-.8 4-.1 1.1-.4.4a1 1 0 01-.4.2h-.4l-.5-.1h-.5l-1.6-.4-2.2-.3-2.2-.3-2.2-.4z"/></svg>