<svg id="レイヤー_4" data-name="レイヤー 4" xmlns="http://www.w3.org/2000/svg" viewBox="0 0 120 120"><defs><style>.cls-1{fill:#bf2896}.cls-5,.cls-6{stroke:#bf2896}.cls-4,.cls-5{stroke-width:3px}.cls-3,.cls-5{fill:#fff}.cls-4,.cls-6{fill:none}.cls-4{stroke:#fff}.cls-4,.cls-5,.cls-6{stroke-linecap:round;stroke-linejoin:round}.cls-6{stroke-width:2px}</style></defs><path class="cls-1" d="M87.2 80.4c0 10.2-3.7 20.5-10.4 27.2s-17 9.8-27.2 9.8-20.5-3-27.2-9.7-8.8-17-8.8-27.3 3.3-19.3 10-26 15.8-8.4 26-8.4 18.8 2.3 25.4 9 12.2 15.2 12.2 25.4z"/><path d="M79.6 78s7.3-4.3 11.5-8.5 6.9-4.3 9.1-1.4-3.7 8.4-3.7 8.4L86.3 86" stroke-width="3" stroke-miterlimit="10" stroke="#bf2896" fill="#bf2896"/><path class="cls-3" d="M98.8 60.4h-.2a1 1 0 00-.7.3l2.8-13.9a1 1 0 00.7.6l16.3 3.2-2.6 13z"/><path class="cls-1" d="M101.4 48.4l15.1 3-2.2 11-15-3 2.1-11m-1.2-3.4l-.2 1h-.2l-3 15.1h.2l-2.4 12.1 1.6.3 2.4-12 17.4 3.3 3-15-17.4-3.5.3-1-1.7-.3z"/><path class="cls-4" d="M42.6 76.8s3.9-12.6 8.7-2M64 73.9s3.8-12.6 8.7-1.9"/><path class="cls-3" d="M58.1 94.3a13.2 13.2 0 01-10.8-5.8c-.4-.4-.3-.6-.2-.7 1-2 8.8-4.6 16-4.6a17.2 17.2 0 014.4.4c1.8.5 3 1.2 3.4 2a2 2 0 01-.1 1.6c-1.5 4-5.1 6.3-11 7a15.5 15.5 0 01-1.6 0z"/><path class="cls-3" d="M63.2 84.7a15.8 15.8 0 014 .4 4.9 4.9 0 012.3 1.1 2.2 2.2 0 01-.1.5c-1.3 3.4-4.5 5.4-9.7 6a14 14 0 01-1.6.1 11.5 11.5 0 01-9.3-4.7c1.7-1.3 8-3.4 14.4-3.4m0-3c-8.4 0-20.2 3.5-17.2 7.6a14.7 14.7 0 0012.2 6.5 17 17 0 001.8-.1c5-.6 10.2-2.5 12.2-8 .4-1.2 1.2-4-4.3-5.5a18.6 18.6 0 00-4.7-.5z"/><path class="cls-5" d="M10.3 61.6s-.6 0 2.7-.5c1.9-.3.2 3.4 3.1 2.7 2.6-.6 11.9-5.7 15.2-6.7A189.2 189.2 0 0061.2 45s7.2 4.1 7.7 5.4a200.8 200.8 0 01-36.7 15.1c-3 .9-13-1.7-16.2-1.1-2.7.5-1 4.5-3.6 4.8a28 28 0 01-5.1.1z"/><path class="cls-5" d="M13.6 63.2s10-8 11.4-5.5c0 0 .6 5.4.6 7.5 0 0-4-2.7-12-1z"/><path class="cls-5" d="M13.6 64.3s12.7 4.3 12 1c0 0-4.2-2.8-12-1z"/><path class="cls-5" d="M15 63.2c5.4 4.1 8.1 12.5 8.1 12.5-.7.9-7.8 2-7.8 2l-1.5-14z"/><path class="cls-5" d="M14.2 63.2S13 58.4 3.8 56.1c0 0-1.5 5.3-1.7 7.4 0 0 4.3-2.1 12 .8z"/><path class="cls-5" d="M14 64.3S.8 66.7 2 63.5c0 0 4.6-2.1 12 .8z"/><path class="cls-5" d="M12.9 63C6.9 66.3 3 74.2 3 74.2c.6 1 5.3 4.6 5.3 4.6l5.7-15z"/><path class="cls-6" d="M102.8 40.7s-5.8 0-5.8 3.9M100 37.8s-5.9 0-5.9 3.9"/><path class="cls-1" d="M16 32.3l-1-.5-.1-.3a1.6 1.6 0 01-.3-.5l-.1-.3a2 2 0 010-.4V30l1-2.8 1-2.9 1-2.8.6-1.6-1.5-.2a44.3 44.3 0 00-5.6-.3 12.8 12.8 0 01-3-.4h-.4l-.2-.5a1.6 1.6 0 01-.3-.7 2 2 0 010-.4V17l.4-.8V16a1.8 1.8 0 011-.5 4 4 0 01.8 0h3.9l2.8.3 2.7.2a13.3 13.3 0 012.9.6l.3.2.2.2a2.8 2.8 0 01.3.5 1.8 1.8 0 01.1.7v1l-1.2 3.1-1.1 3-1 3-1.1 3.2-.2.3-.3.2a1.6 1.6 0 01-.7.3 2 2 0 01-.4 0z"/><path class="cls-1" d="M16.3 31.3l-.5-.2a1.2 1.2 0 00-.1-.2.5.5 0 01-.1-.2v-.2a1 1 0 010-.2l.9-2.8 1-2.8 1-2.9 1-2.8-2.7-.3q-1.4-.2-2.9-.2t-2.8-.1a11.8 11.8 0 01-2.7-.3 1.2 1.2 0 00-.2-.2.5.5 0 010-.2 1 1 0 010-.2v-.3l.2-.4a.8.8 0 01.4-.3 3 3 0 01.6 0h1l2.8.2 2.8.2 2.7.2a12.3 12.3 0 012.6.6 1.9 1.9 0 01.2.3.8.8 0 010 .3v.7l-1 3-1.2 3-1 3-1 3-.2.1a.5.5 0 01-.3.1h-.2zM30 31.9a1.8 1.8 0 01-.5-.2l-.3-.2-.2-.2a4.2 4.2 0 01-.6-2l-.1-1.7-.1-1.7v-1.7-2-4a7.3 7.3 0 01.4-2.3l.1-.4.4-.2a1.6 1.6 0 01.6-.3 2 2 0 01.5 0h.4l1 .5.1.2a3.6 3.6 0 01.3.3 1.6 1.6 0 01.2.7v.7l-.1 2.3V27l.7-.3 2-.9 1.8-.9a7.2 7.2 0 012.4-.7h.3l1 .5.1.3a1.6 1.6 0 01.3.7 2 2 0 010 .4v.4l-.5 1-.3.2-2 1-2 .9-2 .9-1.8.8-.3.2a1.6 1.6 0 01-.6.3 1.8 1.8 0 01-.3 0l-.4.2z"/><path class="cls-1" d="M30.6 31h-.4a.5.5 0 01-.1-.1l-.2-.1a3.2 3.2 0 01-.5-1.5l-.1-1.7q-.1-.8 0-1.6v-1.7-2-4a6.3 6.3 0 01.3-2l.2-.1a.5.5 0 01.2-.1h.4l.5.2a2.6 2.6 0 01.2.3.6.6 0 010 .3v11.8h.2l1.9-.8 2-.9 1.9-.9a6.2 6.2 0 012-.6l.4.2a1.2 1.2 0 00.2.2.5.5 0 010 .2 1 1 0 010 .2v.2l-.2.5-2 1-2 .9-2.1.9-2 1-.2.2a.5.5 0 01-.2 0h-.2a.5.5 0 00-.3 0zM52.4 35.3l-1-.5-.1-.3a1.6 1.6 0 01-.3-.5v-.3a2 2 0 010-.4V33l1-2.8c.2-1 .5-2 1-2.9l1-2.8.6-1.6-1.6-.2a44.3 44.3 0 00-5.5-.3 12.8 12.8 0 01-3-.4H44l-.2-.5a1.6 1.6 0 01-.3-.6 2 2 0 010-.4V20l.4-.8.1-.2a1.8 1.8 0 011-.5 4 4 0 01.7 0h3.9l2.8.3 2.7.2a13.3 13.3 0 012.9.7h.3l.2.4a2.8 2.8 0 01.3.4 1.8 1.8 0 01.1.7v1l-1.2 3.1-1.1 3-1 3-1.1 3.2-.2.3-.3.2a1.6 1.6 0 01-.7.3 2 2 0 01-.4 0z"/><path class="cls-1" d="M52.7 34.3l-.5-.2a1.2 1.2 0 00-.1-.2.5.5 0 01-.1-.2v-.2a1 1 0 010-.2l.9-2.8 1-2.8 1-2.9 1-2.8-2.7-.3q-1.4-.2-2.9-.2t-2.8-.1a11.8 11.8 0 01-2.7-.3 1.2 1.2 0 00-.2-.2.5.5 0 010-.2 1 1 0 010-.2v-.3l.2-.4a.8.8 0 01.4-.3 3 3 0 01.6 0h1l2.8.2 2.8.2 2.7.2a12.3 12.3 0 012.6.6 1.9 1.9 0 01.2.3.8.8 0 010 .3v.7l-1 3-1.2 3-1 3-1 3-.3.1a.5.5 0 01-.2.1H53zM64.5 34.9a1.8 1.8 0 01-.6-.2l-.3-.2-.2-.2a4.2 4.2 0 01-.6-2l-.1-1.7-.1-1.7v-1.7-2-4a7.3 7.3 0 01.4-2.3l.1-.4.4-.2a1.6 1.6 0 01.6-.3 2 2 0 01.5 0h.4l1 .5.1.2a3.6 3.6 0 01.2.4 1.6 1.6 0 01.2.7V30.2l.6-.3 2-.9 1.9-.9a7.2 7.2 0 012.3-.7h.3l1 .5.2.3a1.6 1.6 0 01.3.7 2 2 0 010 .4v.4l-.5 1-.3.2-2 1-2.1.9-2 .9-1.7.8-.4.2a1.6 1.6 0 01-.5.3 1.8 1.8 0 01-.4 0l-.3.2z"/><path class="cls-1" d="M65 34h-.4a.5.5 0 01-.1-.1l-.2-.1a3.2 3.2 0 01-.5-1.5l-.1-1.7q-.1-.8 0-1.6v-1.7-2-4a6.3 6.3 0 01.3-2l.2-.1a.5.5 0 01.2-.1h.4l.5.2a2.6 2.6 0 01.2.3.6.6 0 010 .3v11.8h.2l1.9-.9 2-.8 1.9-.9a6.2 6.2 0 012-.6l.4.2a1.2 1.2 0 00.2.2.5.5 0 010 .2 1 1 0 010 .2v.2l-.2.5-2 1-2 .9-2.1.9-2 1-.2.2a.5.5 0 01-.2 0h-.2a.5.5 0 00-.3 0zM94.2 28.5l-3.2-.2h-3.2l-3.3-.2H80a3.2 3.2 0 00-.5 0 3 3 0 01-.4 0 3.3 3.3 0 01-.5 0H78.3l.1-1-.2 1a1.5 1.5 0 01-.5-.2l-.3-.1-.2-.4a1.6 1.6 0 01-.3-.6 2.1 2.1 0 010-.4v-.5l.5-1 .3-.2a5 5 0 012-.3l1.4-.1h6l2.9.2H92.8a9 9 0 012.8.5l.4.1.2.4a1.6 1.6 0 01.3.7 2.5 2.5 0 010 .4v.4l-.5 1-.3.1-.1.1a1.7 1.7 0 01-.6.2h-.3a2.3 2.3 0 01-.4 0z"/><path class="cls-1" d="M94.3 27.6l-3.2-.3h-3.3l-3.3-.2h-3.2l-.6.1H80a4.2 4.2 0 00-.6 0 2.1 2.1 0 01-.7 0H78.4a.5.5 0 01-.1-.1L78 27a1.2 1.2 0 00-.1-.2.5.5 0 01-.1-.2 1.2 1.2 0 010-.3V26l.2-.5a4 4 0 011.5-.2l1.6-.1a13 13 0 011.6 0H87l2.8.2a27 27 0 002.8 0 8 8 0 012.6.5 1.2 1.2 0 00.2.2.5.5 0 010 .2 1.5 1.5 0 010 .2v.3l-.2.4-.2.2a.7.7 0 01-.3 0h-.2z"/></svg>