<svg id="レイヤー_4" data-name="レイヤー 4" xmlns="http://www.w3.org/2000/svg" viewBox="0 0 120 120"><defs><style>.cls-1{fill:#3a98b4}.cls-2{fill:#fff}.cls-3{fill:none;stroke:#fff;stroke-linecap:round;stroke-linejoin:round;stroke-width:5px}</style></defs><path class="cls-1" d="M80.7 77.7c0 10.5-3.9 21-10.8 28s-17.4 10-28 10-21.1-3-28-10-9-17.5-9-28 3.3-20 10.2-26.9 16.3-8.6 26.8-8.6 19.3 2.4 26.2 9.3S80.7 67 80.7 77.7z"/><path class="cls-2" d="M27.8 80.2a4 4 0 01-3.9 4 4 4 0 01-4-4 3.9 3.9 0 014-3.8 3.8 3.8 0 013.9 3.8z"/><path class="cls-3" d="M24.5 93s2.5 9 12.2 9c0 0 10.8 1.4 14.3-8"/><path class="cls-2" d="M70.3 111.7l-1.2-.2a9.3 9.3 0 01-2-.5h-.2a1.5 1.5 0 01-.5.1h-.2l-.8-.1c-3-.5-3.8-2.2-3.8-3.3a3.2 3.2 0 01-1.7-3 3.3 3.3 0 01-1.1-3.2 3.5 3.5 0 01.3-1 5 5 0 01-.4-2.8 4.3 4.3 0 013-3.4 9 9 0 013.3-.6h.8a9.3 9.3 0 00-.3-1.3l-.2-.5a8.4 8.4 0 01-.7-3.9 5 5 0 015-4.4h.7a1.5 1.5 0 011.5 1.4l.2 4 2.7 4 1.1 2 .5.8A11.3 11.3 0 0077 97a1.9 1.9 0 00.3 0l2.2.4a1.5 1.5 0 011.2 1 12.2 12.2 0 01.4 5.4 13.6 13.6 0 01-1.8 5 1.5 1.5 0 01-1.3.7h-.2l-2.2-.3a14.2 14.2 0 01-4.8 2.5 1.5 1.5 0 01-.5.1z"/><path class="cls-1" d="M70.3 85l.3 4.5 3 4.3 1 1.8.4.8a8.1 8.1 0 001 1.7 2 2 0 001.1.4l2.3.3a10.7 10.7 0 01.3 4.7A12 12 0 0178 108l-2.9-.5a13 13 0 01-4.7 2.7l-1.1-.1a8.6 8.6 0 01-2.2-.7l-.8.2-.8-.1q-2.8-.4-2.5-2.5a2.3 2.3 0 010-.3q-2-.5-1.7-2.3a5.2 5.2 0 01.1-.6 2.2 2.2 0 01-1-.8 1.8 1.8 0 01-.2-1.3 2.5 2.5 0 01.6-1.2A3.6 3.6 0 0160 98a3 3 0 012.1-2.3 7.5 7.5 0 012.7-.4 13.3 13.3 0 012 .1l.5.1a10.4 10.4 0 00-.6-3.5l-.2-.6a7.1 7.1 0 01-.5-3 3.5 3.5 0 013.5-3.2h.6m0-3h-.8a6.4 6.4 0 00-6.3 5.6 9.5 9.5 0 00.7 4.5 9.9 9.9 0 00-2.6.6 5.8 5.8 0 00-4 4.6 6.5 6.5 0 00.3 3 5 5 0 00.3 4.1 4.8 4.8 0 00.5.7 4.6 4.6 0 001.8 3.3 4.6 4.6 0 001.3 2.3 6.5 6.5 0 003.7 1.6l.8.1a3 3 0 001 0 10.2 10.2 0 002 .5l1.3.2h.2a3 3 0 00.8-.2 15.3 15.3 0 004.8-2.3l1.6.2a3 3 0 003-1.4 15 15 0 002-5.5 13.7 13.7 0 00-.5-6 3 3 0 00-2.4-2.1l-1.8-.3-.3-.6-.5-.8-1-2H76l-2.5-3.7-.3-3.6a3 3 0 00-3-2.8z"/><path class="cls-3" d="M53.6 84.8l-8-3.2 8.3-4.2"/><path class="cls-1" d="M52.5 35.5h-.2a2 2 0 01-.4-.1l-.4-.2-.8-.8V34a6.2 6.2 0 01.3-2.3l.6-1.9.6-2a13 13 0 00.4-1.8v-.3l.3-.3a1.5 1.5 0 01.4-.4l.3-.3h.3a1.7 1.7 0 01.5-.1H54.7a2 2 0 01.4 0l.4.2.8.8v.4a5.7 5.7 0 01-.3 2.4l-.6 2-.6 2-.6 2v.3l-.9.7H53a1.7 1.7 0 01-.5.1zm-12.6-2a3 3 0 01-.8-.1l-.3-.1-.2-.2.5-1-.6 1a1.6 1.6 0 01-.3-.4l-.3-.3V32a10.6 10.6 0 01.3-3.4l.8-3 1-3.1 1-2.9v-.2l.3-.2.9.5-.9-.6a1.5 1.5 0 01.4-.4l.2-.2.4-.1a1.7 1.7 0 01.5 0h.2a2 2 0 01.4 0l.5.2.8.9v.4a10.8 10.8 0 01-.7 3 39 39 0 00-2 6.2 3.6 3.6 0 01.6 0 2.2 2.2 0 011 .2h.2l.7.8v.3a1.6 1.6 0 010 .7 2 2 0 010 .4l-.2.5-.7.7h-.2a8.1 8.1 0 01-1 .3 8 8 0 00-1 .1l-1 .3a3.2 3.2 0 01-.5 0z"/><path class="cls-1" d="M39.4 32.4h-.2l-.1-.2a.5.5 0 01-.1-.1l-.2-.1a9.6 9.6 0 01.3-3l.9-3 1-3 1-3V20l.2-.2a.5.5 0 01.1 0l.1-.2h.3a.5.5 0 01.2 0h.4l.4.5a9.7 9.7 0 01-.7 2.6l-1 2.6-.7 2.6-.5 2.6a3.4 3.4 0 01.6-.1 4.7 4.7 0 00.6-.2 2.6 2.6 0 01.6 0 1.1 1.1 0 01.6 0l.4.4a1.2 1.2 0 000 .3.5.5 0 010 .2 1 1 0 010 .2l-.1.2-.4.4a7 7 0 01-.9.2 9 9 0 00-1 .2l-1 .2a2 2 0 01-.8 0zm12.6 2l-.4-.5A5.2 5.2 0 0152 32l.6-2 .5-1.9a14 14 0 00.5-2h.1l.1-.2a.5.5 0 01.1-.1l.2-.1h.2a.5.5 0 01.2 0h.4l.4.4a4.7 4.7 0 01-.2 2l-.7 2-.5 2-.6 2-.4.4h-.2a.5.5 0 01-.2 0h-.2zM75 43.6h-.1a2.1 2.1 0 01-.4 0l-.5-.3-.8-.8v-.3a6.2 6.2 0 01.3-2.3l.6-2 .6-2a13.3 13.3 0 00.4-1.7v-.4l.3-.2.1-.1a1.5 1.5 0 01.4-.4l.2-.2h.4a1.7 1.7 0 01.5-.2h.2a2 2 0 01.4.1l.4.2.8.8v.3a5.7 5.7 0 01-.3 2.4l-.6 2-.6 2-.6 2v.3l-.8.7h-.4a1.7 1.7 0 01-.5.1zm-12.6-2a3 3 0 01-.8 0l-.2-.1-.2-.2-.1-.1a1.5 1.5 0 01-.4-.4l-.3-.2v-.4a10.6 10.6 0 01.3-3.4l.8-3 1-3.1 1-3 .1-.2.2-.2a1.5 1.5 0 01.4-.4l.3-.3h.3a1.6 1.6 0 01.5-.1H65.6a2 2 0 01.4 0l.4.2.8 1v.4a10.8 10.8 0 01-.7 2.9 48.3 48.3 0 00-2 6.3 3.6 3.6 0 01.6-.1 2.2 2.2 0 011 .2l.2.1.7.8v.3a1.6 1.6 0 010 .7 2 2 0 010 .4l-.2.4-.7.7H66a8 8 0 01-1 .3 8 8 0 00-1 .2l-1 .2a3.2 3.2 0 01-.5.2z"/><path class="cls-1" d="M62 40.6l-.2-.1-.1-.1a.5.5 0 01-.2-.1V40a9.6 9.6 0 01.2-3l.8-3 1-3q.6-1.4 1-3h.2v-.2a.5.5 0 01.2-.1l.1-.1h.2a.5.5 0 01.3 0h.4l.4.4a9.7 9.7 0 01-.7 2.6l-1 2.7-.7 2.5-.6 2.6h.1a3.4 3.4 0 01.6 0 4.7 4.7 0 00.6-.2 2.6 2.6 0 01.6-.1 1.1 1.1 0 01.6.1l.3.4a1.2 1.2 0 000 .2.5.5 0 010 .2 1 1 0 010 .3v.2l-.4.4a7 7 0 01-1 .2 9 9 0 00-.9.2l-1 .3a2 2 0 01-.9-.1zm12.6 1.9l-.4-.4a5.2 5.2 0 01.3-2l.6-1.9.6-1.9a14 14 0 00.4-2h.2V34a.5.5 0 01.2-.1l.1-.2h.3a.5.5 0 01.2 0h.2l.2.1.4.4a4.7 4.7 0 01-.3 2l-.6 2-.6 2-.5 2-.4.4h-.2a.5.5 0 01-.3 0h-.2zM95.3 54.3a8 8 0 01-1-.1 8.5 8.5 0 01-1-.2l-1-.3h-.1l-.2-.1-.4-.3a3.2 3.2 0 01-.7-.6l-.4-.5a2.7 2.7 0 01-.5-.8 4 4 0 01-.2-.9 5.2 5.2 0 010-.7 4.7 4.7 0 01.1-.8 5.1 5.1 0 01.2-.7V48l.2-.1a2.7 2.7 0 00.2-.4l.4-.5a2.8 2.8 0 01.6-.7 7 7 0 01.6-.4h.2a8.7 8.7 0 011.5-.4 4.9 4.9 0 01.8-.1 5 5 0 01.9 0l1.4.4h.3a.4.4 0 000-.2l-.3-.6a6 6 0 01-.5-.6.8.8 0 00-.2-.2 6.8 6.8 0 00-.7-.4l-.8-.3a5.5 5.5 0 00-1.2-.2H92a7.3 7.3 0 00-1.4.2 5.3 5.3 0 00-1 .2L88.3 48l-1 3.1-.8.8H86a1.7 1.7 0 01-.5 0h-.2a2 2 0 01-.4 0l-.5-.2-.7-.8v-.3a3.5 3.5 0 01.2-2 8 8 0 00.4-1.2l.1-.3h-.2a2.1 2.1 0 01-.4 0l-.5-.2-.8-.9v-.3a1.6 1.6 0 010-.7 2.2 2.2 0 010-.5l.3-.4.1-.1a9.4 9.4 0 011.2-1l1.1-1 1.2-1a.8.8 0 00.3-.5l.2-.7.2-.6-1.6-.4-.7-.8v-.3a1.6 1.6 0 010-.7 2.3 2.3 0 010-.4l.2-.5.7-.7h.2a2 2 0 01.7-.1 2.2 2.2 0 01.6 0l.7.2.6.2.7-1.6.2-.8.2-.2V33a1.5 1.5 0 01.4-.4l.2-.2.4-.1a1.7 1.7 0 01.5 0h.2a2 2 0 01.4 0l.5.2.6.6v.2a1.7 1.7 0 01.2 1.2l-.2.5a1.4 1.4 0 000 .3 2.4 2.4 0 01-.3.8l-.3.7a2.3 2.3 0 01.4.2 1.7 1.7 0 01.6.7V38a1.6 1.6 0 010 .7 2 2 0 010 .4l-.2.4h.2a13.9 13.9 0 011.9.3 13.6 13.6 0 011.8.5 10.7 10.7 0 011.2.7 4.6 4.6 0 011.1 1 10 10 0 01.8 1 7.7 7.7 0 01.7 1.2l.1.4a4 4 0 01.2 1 7 7 0 010 1l-.2 1v.1a3.3 3.3 0 01.4.3 4.1 4.1 0 01.5.5l.5.7v.3a2.1 2.1 0 01.1.5 1.6 1.6 0 010 .6l-.3.5-.7.7h-.4a1.7 1.7 0 01-.5 0h-.2a2.2 2.2 0 01-.4 0l-.4-.2a8.6 8.6 0 01-.8.9 9 9 0 01-.8.8 4.2 4.2 0 01-1.3.7 4 4 0 01-1.2.2zm-1-4l.3.1h.7a1.2 1.2 0 00.2-.2l.6-.5v-.1l-.3-.1-.5-.1-.7-.1H94.3l-.4.1-.2.4.1.2.1.1h.1z"/><path class="cls-1" d="M85 50.8l-.3-.4a2.5 2.5 0 01.2-1.3 9 9 0 00.5-1.4l.4-1.4.5-1.4h-.1L84.8 46h-.2a.5.5 0 01-.2 0H84l-.4-.4a1.2 1.2 0 000-.2.5.5 0 010-.2 1.2 1.2 0 01.1-.3v-.2a8.2 8.2 0 011.2-1l1.1-.9 1.2-.9a1.8 1.8 0 00.7-1.3l.1-.5.2-.5.2-.5.2-.6-.6-.1-1.8-.5-.4-.4a1.2 1.2 0 000-.2.5.5 0 010-.2 1 1 0 010-.2v-.3l.5-.3a1.1 1.1 0 01.7 0l.8.2.7.2.7.1v-.1l.1-.4.8-2 .2-.6h.1l.1-.2a.5.5 0 01.1-.2h.4a.5.5 0 01.2 0h.4l.4.4a.7.7 0 010 .5l-.2.5a2.5 2.5 0 000 .4 1.4 1.4 0 01-.3.5l-.5 1.6a.7.7 0 00.3.3l.4.1a1.6 1.6 0 01.4.2.7.7 0 01.2.3 1.2 1.2 0 000 .2.5.5 0 010 .2 1 1 0 010 .2v.3l-.4.3a.7.7 0 01-.4 0H91l-.4-.1-.4-.2-.6 1.6.1.1a9 9 0 011.7-.2 13.1 13.1 0 011.7 0 13 13 0 011.7.2 12.6 12.6 0 011.7.5 10 10 0 011 .6 3.6 3.6 0 011 .7 9 9 0 01.6 1 6.7 6.7 0 01.6 1.1l.1.3a3 3 0 01.1.8 6 6 0 010 .8l-.1.9-.2.8a2.5 2.5 0 00.4.3 2.5 2.5 0 01.5.3 3.3 3.3 0 01.3.4l.4.4a1.2 1.2 0 000 .2 1 1 0 010 .3.6.6 0 010 .2v.2l-.5.4h-.2a.5.5 0 01-.2 0h-.3l-.2-.2-.8-.7a3.3 3.3 0 01-.5 1 7.7 7.7 0 01-.6.8 8 8 0 01-.8.8 3.2 3.2 0 01-1 .5 2.9 2.9 0 01-.9.1 7 7 0 01-.9 0 7.6 7.6 0 01-.8-.2l-1-.3-.4-.3a2.2 2.2 0 01-.5-.4l-.4-.4a1.7 1.7 0 01-.3-.6 2.9 2.9 0 01-.1-.6 4.3 4.3 0 010-.6 3.6 3.6 0 010-.6 4.2 4.2 0 01.2-.6 3.7 3.7 0 00.3-.5l.3-.5a1.8 1.8 0 01.4-.4 5.6 5.6 0 01.5-.4 7.6 7.6 0 011.4-.3 4 4 0 011.3 0l1.4.3a9 9 0 011.4.5V47a4.1 4.1 0 00.1-.7v-.6a1.4 1.4 0 00-.1-.7l-.3-.6a5.2 5.2 0 01-.6-.6 1.8 1.8 0 00-.6-.6 7.8 7.8 0 00-.7-.3l-.9-.3a6.5 6.5 0 00-1.5-.3H92a8.3 8.3 0 00-1.6.1 6.5 6.5 0 00-1.4.5l-1.7 4.5-1 3-.4.3h-.2a.5.5 0 01-.2 0h-.2zm10.6.6a2.2 2.2 0 00.6-.4l.6-.6a1.9 1.9 0 00.4-.6l.3-.7-1.4-.6-.7-.1-.7-.1a1.8 1.8 0 00-.6 0 6.6 6.6 0 00-.7.2 1.9 1.9 0 00-.3.2 1.3 1.3 0 00-.2.3l-.1.3a2.5 2.5 0 00-.2.3v.7a1 1 0 01.3.3 1.5 1.5 0 00.3.3 1.1 1.1 0 00.3.2l.4.2h.4a1.6 1.6 0 00.5 0h.4zM98.1 63.2l-.1-.3v-.1a1.6 1.6 0 01-.1-.5v-.7a1.8 1.8 0 01.4-.8l.2-.2a2.5 2.5 0 01.4-.3l.1-.2h.3a2 2 0 01.4-.1 2 2 0 01.5-.1 3 3 0 01.4 0H101a1.8 1.8 0 01.8.4 2.5 2.5 0 01.3.4l.4.4.1.8.4.6-.5.4v.1a1.9 1.9 0 01-.4.6 2.5 2.5 0 01-.3.3l-.5.3h-.2l-.2.1a1.6 1.6 0 01-.5.1h-.7l-.2-.1a1.8 1.8 0 01-.6-.4l-.2-.2a3 3 0 01-.3-.4zm4-3.1l-.2-1v-.3a2.7 2.7 0 01.3-.7 2.3 2.3 0 01.6-.6l.8-.6 2.7-1.9 5.3-4 .5-.6 1.2-.2.3.1a1.7 1.7 0 01.6.4 2.3 2.3 0 01.3.3l.4.4.2 1.1-.2.3a1.8 1.8 0 01-.3.7l-.1.2-.1.2-.2.1-5.5 4.3-1.1.8-1 .7-1 .8a3 3 0 01-1.5.7h-.3l-.3-.2a1.8 1.8 0 01-.7-.3 2.2 2.2 0 01-.3-.3z"/></svg>