<svg xmlns="http://www.w3.org/2000/svg" viewBox="0 0 250.4 26.9"><defs><linearGradient id="名称未設定グラデーション_14" x1="227.1" y1="23.4" x2="248.4" y2="2" gradientUnits="userSpaceOnUse"><stop offset=".1" stop-color="#e23b56"/><stop offset=".3" stop-color="#eba016"/><stop offset=".7" stop-color="#39ad36"/><stop offset=".8" stop-color="#3ba380"/><stop offset=".9" stop-color="#3a98b4"/></linearGradient><style>.cls-1{fill:#4b191a}.cls-2{fill:#e23b56}.cls-3{fill:#39ad36}.cls-4{fill:#3a98b4}.cls-5{fill:#eba016}</style></defs><g id="レイヤー_2" data-name="レイヤー 2"><g id="assets"><path class="cls-1" d="M18.6 20.8l-.9 1c-.3.3-.8.3-1.1.6a8 8 0 01-1 .8 8.3 8.3 0 01-1.2.5l-1.2.6a8 8 0 01-1.2.3 8.8 8.8 0 01-1.3.1c-.4 0-.8.4-1.3.4h-.2a8 8 0 01-1.2-.3c-.4 0-.9.2-1.3.1a9 9 0 01-1.2-.3 7.4 7.4 0 01-1.1-.5 7.8 7.8 0 01-1.2-.5c-.3-.2-.4-.8-.8-1s-.8-.3-1-.6-.4-.8-.7-1H.5a2 2 0 01-.5-1.3c0-.4.6-.6 1-1s.7-.6 1.1-.6a1.9 1.9 0 011.2.7A7.7 7.7 0 004 20c.3.3 1 .2 1.4.4s.6.6 1.1.7a6 6 0 001.3.2 6.8 6.8 0 001.4 0h2.5a11 11 0 001.2-.5 7.8 7.8 0 001-.7 5.7 5.7 0 001-.8l1.1-.7c.3-.3.5-1 1-1s.8.4 1.2.7.8.7.8 1a2.2 2.2 0 01-.4 1.4zM15.7 6.2c-.2.6-.3.5-.6 1l-.6 1-.5 1.1-.5 1.1-.6 1a2 2 0 01-1.5 1c-.3 0-.5-.3-.8-.5a1.6 1.6 0 01-.7-1 1.6 1.6 0 01.1-1l.5-1 .5-.8c.2-.4.5-.5.6-1H10l-1.3.2L7.4 7H6.1c-.5 0-.8.2-1.3.3l-1.3.4a2.2 2.2 0 01-1.4-.5 2 2 0 01-.6-1.2 1.9 1.9 0 01.3-1.4 2 2 0 011.3-.5h1.3c.5 0 .8-.4 1.2-.5H7l1.3-.1c.4-.1.9.1 1.3.1l1.3.1c.5 0 .8-.3 1.3-.3l1.1.2 1.2-.2a2 2 0 011.5 1 2 2 0 01-.2 1.7zM49.6 14.3a1.5 1.5 0 01-1.1.6c-.6 0-.6.3-1.1.4s-.6 0-1.1 0-.6-.3-1.2-.3a2.2 2.2 0 00-1 .5h-1.2v.2a6.3 6.3 0 00-1.3.6 9.8 9.8 0 00-1 1 7.6 7.6 0 00-.6 1.2 6.1 6.1 0 00-.7 1.2l.1.7c0 .5-.2 1 0 1.2a3.5 3.5 0 001 .6h1c.3 0 .6.6 1 .6s.9-.4 1.3-.6a5.4 5.4 0 001.3-.5 2.1 2.1 0 011.4 0 1.9 1.9 0 011 1 1.7 1.7 0 010 1.3c-.2.4-.4 1-.8 1.2a8.7 8.7 0 01-1.4.3 9.6 9.6 0 01-1.3.5 11.2 11.2 0 01-1.4-.2c-.4 0-.8.2-1.2.1l-1-.2-1.2-.3c-.3-.1-.6-.7-1-1s-.8-.2-1-.6a5.7 5.7 0 01-.9-1 6 6 0 01-.5-1.2 6 6 0 01-.2-1.2c0-.6.5-1 .6-1.6l.1-1.2a7 7 0 01.7-1l.6-1c-.6-.1-.6.2-1.2.3s-.7-.2-1.3-.2l-1.3.2c-.7 0-.6-.2-1.2-.1h-.2a1.4 1.4 0 01-.8-.2c-.3-.2-.7-.3-.8-.6a1.7 1.7 0 010-1 1.6 1.6 0 01.7-.8l.9-.8 1-.7c.5-.4.1-.7.6-1.1l.9-.7 1-.7.9-.8a3.6 3.6 0 00.8-.9l1-.6c.5-.3 1.2-.1 1-.7s-.6 0-1.2 0S37.7 6 37 6s-.6.3-1.2.3a1.6 1.6 0 01-1.2-.6 1.8 1.8 0 01-.5-1.1 1.6 1.6 0 01.6-1.2c.3-.3.6-.7 1-.7h1.3l1.2.2h1.2c.6 0 .6-.2 1.1-.2h1.2l1.2-.2h1.2c.4 0 .7.4 1 .6a1.4 1.4 0 01.6.7 1.5 1.5 0 010 1c-.2.3 0 .9-.3 1.1l-1 .8-1 .8c-.5.4-.7.2-1.2.6s-.4.6-.8 1-.7.2-1.2.6l-.9 1c-.5.4-.4.5-.9 1s-1.2 0-1 .7.7.1 1.2 0 .6-.4 1.2-.4.6.2 1.2.2h2.4l1.2-.1c.6-.1.6-.3 1.2-.3s.6-.2 1.2-.3.6.4 1.2.3 1-.2 1.4.1a2.2 2.2 0 01.6 1.3c0 .4-.4.8-.7 1.2zM77.7 8.2a1.8 1.8 0 01-1.3.5l-1.2.2c-.6 0-.6-.2-1.2-.1h-1.2c-.6 0-.6.4-1.2.5S71 9 70.4 9a4.1 4.1 0 00-1.2.2l-.7 1.1c-.2.4 0 .8-.2 1.2l-.8 1c-.2.3 0 .8-.2 1.2l-.4 1.2c-.1.4-.4.7-.6 1s0 1-.2 1.3l-.7 1c-.2.3-.1.8-.2 1.2l-.3 1.2c0 .4-.4.7-.4 1.1a1.5 1.5 0 01-.4 1 1.6 1.6 0 01-1.1.5l-.3.1c-.5 0-.7-.6-1-1a1.3 1.3 0 01-.3-1.1l.1-1.3.4-1.1.1-1.3c.1-.4.4-.7.6-1.1l.5-1.2.3-1.2.6-1 .4-1.3c.2-.4 0-.8.2-1.2l.6-1c-.4 0-.4.2-.9.2h-.1a2.2 2.2 0 01-1.3-.5 2 2 0 01-.5-1.2c0-.5.3-.8.7-1.2s.5-.7 1-.7l1.4-.2A5.5 5.5 0 0067 6c.1-.4.5-.5.7-.9l.4-1 .6-1a1.5 1.5 0 01.9-1 1.6 1.6 0 011.2.2 1.5 1.5 0 01.8 1 1.6 1.6 0 01-.1 1.2L70.8 6c.7.1.8-.3 1.4-.4l1.3-.2c.6 0 .7.3 1.4.2l1.2-.2a1.8 1.8 0 011.4.2A1.8 1.8 0 0178 7a2 2 0 01-.3 1.3zm3 16.6c-.2.3-.8.3-1.1.5a7.4 7.4 0 01-1 .8c-.4.2-.9 0-1.3.2a8.8 8.8 0 01-1.2.4 9 9 0 01-1.2.2c-.5 0-.9-.3-1.3-.4a9.5 9.5 0 01-1.3 0 8.2 8.2 0 01-1.1-.7c-.4-.2-1-.1-1.3-.4v-.1a1.6 1.6 0 01-.4-1.2c0-.4-.2-.9.1-1.2a1.7 1.7 0 011.2-.6 1.9 1.9 0 011.4 0 3.8 3.8 0 001.2.9 5.8 5.8 0 001.5.1 6 6 0 001.2-.2 3.8 3.8 0 001.2-.5c.4-.1.9-.1 1.2-.4a1.4 1.4 0 012.3.1 1.5 1.5 0 01.2 1.2c0 .4.1 1-.2 1.3zm-1.1-9.5a2 2 0 01-1.2.8l-1.3-.2c-.6 0-.7.3-1.3.3s-.7-.3-1.4-.2h-1.3c-.7 0-.6.2-1.3.2h-.1a1.5 1.5 0 01-1-.5 1.7 1.7 0 01-.8-1 1.7 1.7 0 01.6-1.2c.3-.3.6-.8 1.1-.8.7 0 .7.3 1.4.3s.6-.4 1.3-.4.7.3 1.3.3.7-.3 1.3-.3.7.2 1.4.1c.4 0 1 0 1.2.2s.3.8.3 1.2a1.6 1.6 0 01-.2 1.2zm2-5.8a1 1 0 01-.4.8 1 1 0 01-.8.4l-.1.2a1.7 1.7 0 01-1.4-1.6c0-.4.3-.8.3-1.3L79 6.7l.2-1.3c0-.5.3-.6.6-.9s.5-.6.9-.6.7.3 1 .6a1.3 1.3 0 01.2 1v1.3l.1 1.4c0 .4-.3 1-.4 1.3zm4.3-3.1c0 .5.3 1 .3 1.4s-.5 1-.6 1.4.1.7-.1 1a1.6 1.6 0 01-1 .5h-.1c-.4 0-.6-.5-.8-.8S83 9.4 83 9l.2-1.3-.1-1.3V5a1.5 1.5 0 01.5-1 1.5 1.5 0 011-.4c.4 0 .6.4.8.6s.7.5.7.8-.3 1-.3 1.4zM112.2 8.3a1.9 1.9 0 01-1.3.6 9.4 9.4 0 00-1 .2c-.1.2-.4.2-.6.3l-1.1.4a9 9 0 00-1.2.5 9.3 9.3 0 00-1 .5c-.4.3-.5.8-.7 1a4.4 4.4 0 00-.7 1.2 4.8 4.8 0 00-.6 1.2 9.1 9.1 0 00-.1 1.4l.3.8V18c.1.3.9.5 1.3.8a3.4 3.4 0 001 .6 5.2 5.2 0 001 .4 7.3 7.3 0 001.2 0c.5 0 .8.5 1 .9a1.5 1.5 0 01.6 1.1 2 2 0 01-.5 1.2 1.9 1.9 0 01-1.3.2l-.2.3-1.3-.3a10.6 10.6 0 01-1.2-.5c-.4-.2-1 0-1.4-.2s-.5-.7-.9-1-.9-.1-1.1-.4a5.7 5.7 0 01-.9-.9 7 7 0 01-.3-1.1 7.5 7.5 0 01-.3-1.2 6.8 6.8 0 01-.1-1.1c0-.4-.3-.8-.3-1.1l.1-1.3a8.4 8.4 0 01.1-1.3 8 8 0 01.5-1.2l.5-1.1 1-.9s-.1-.1 0-.2a7.2 7.2 0 00-1.2 0l-1.2-.2-1.1.2c-.7 0-1.2.2-1.2.2l-1.2-.2c-.6 0-.6.2-1.1.3l-1.2.1h-1.2a1.5 1.5 0 01-1.2-.4 1.4 1.4 0 01-.4-1c0-.5-.1-1 .2-1.3A1.7 1.7 0 0193 7l1.3-.1h1.2c.5 0 .8-.5 1.2-.5h1.3l1.3.2 1.2-.1h1.3L103 6h1.3c.4 0 .8-.4 1.2-.4l1.3.1h2.5c.6 0 .6-.4 1.2-.4a1.8 1.8 0 011.3.5 1.7 1.7 0 01.6 1.1 1.9 1.9 0 01-.3 1.3zM141.1 15.8c0 .4 0 .8-.2 1.2a7.3 7.3 0 01-.3 1.2 7.5 7.5 0 01-.6 1 9.6 9.6 0 01-.7 1.1 7.5 7.5 0 01-.9.8 7.5 7.5 0 01-.9.8 8.1 8.1 0 01-1 .5l-1.1.5-1 .6-1.2.2c-.4.1-.8-.2-1.2-.2l-1.3-.1a8.3 8.3 0 01-1.2-.1l-1.2-.1a1.9 1.9 0 01-1.2.5c-.5 0-.8-.4-1.1-.7a1.6 1.6 0 01-.7-1.1v-1.3-1.2l.2-1.2V17v-1.2l-.1-1.3.2-1.2-.3-1.2V11 9.7 8.4c0-.7.3-.6.3-1.2 0-.4-.1-.8.1-1.1a1.8 1.8 0 011-.7h1.4c.4 0 .9-.4 1.3-.4h1.4c.4 0 .8.4 1.2.4s.9-.2 1.3-.1l1.1.3a7.6 7.6 0 011.2.3 12.2 12.2 0 011.2.5 8 8 0 011.1.5l.8 1c.3.3.4.8.7 1a11.6 11.6 0 01.7 1l.7 1a7.5 7.5 0 01.3 1.2 8.4 8.4 0 01.3 1.2 8.3 8.3 0 010 1.2h.2-.1.1c0 .5-.4.9-.5 1.3zm-3.2-1.3h-.2c0-.4.4-.9.3-1.3a6.7 6.7 0 00-.7-1.3 5.2 5.2 0 00-.7-1 6.3 6.3 0 00-.8-1.2 9.2 9.2 0 00-1.2-.6 7.6 7.6 0 00-1.3-.3 8 8 0 00-1.3-.3 9 9 0 00-1.3 0l-1-.1-1.1.3a3.3 3.3 0 000 1.2v3.7c0 .6.3.6.3 1.2s-.4.6-.4 1.2v1.3a7 7 0 00.2 1.2c0 .6-.3.6-.1 1.2.4.1.8 0 1.1.2s.7.2 1.1.2.7.3 1.1.3a10 10 0 001.4 0 9.2 9.2 0 001.2-.6 6.4 6.4 0 001.3-.5 4.8 4.8 0 001-.9 7.3 7.3 0 00.4-1.2 8.2 8.2 0 00.4-1.3 6.2 6.2 0 00.4-1.3h-.1zM166.3 22.4c-.1.4-.3 1-.7 1.1s-1 0-1.4-.1a1.5 1.5 0 01-.8-1c-.2-.5-.5-.4-.6-1s-.4-.4-.6-.8.2-.7-.1-1.2a1.9 1.9 0 01-.9.3h-2.6c-.7 0-.6.3-1.2.3s-.7-.3-1.3-.3v.3a1.9 1.9 0 01-1.2-.5c-.3-.3-.1-.8-.1-1.2l-.1-.3c-.3.6-.5.5-.8 1s0 .7-.2 1.3l-.5 1.1-.4 1.2h-.1a1.8 1.8 0 01-.6.7c-.3.2-.7.1-1 .1a1.6 1.6 0 01-.7-.1c-.4-.3-.9-.4-1-.8a1.8 1.8 0 010-1.4c.2-.6.5-.4.7-1l.5-1.1c.2-.4 0-1 .1-1.3.3-.7.6-.4.9-1s.1-.7.3-1.2l.5-1.1c.3-.5.4-.5.6-1.1l.3-1.2c.3-.5.1-.6.3-1.2s.7-.4 1-1 0-.7.2-1.3l.3-1.1c.3-.5.6-.5.7-1a2.7 2.7 0 01.7-1.3 2.3 2.3 0 011.4-.4c.5 0 .8.4 1.1.7s.9.5 1 .9l.5 1.1c.3.6 0 .6.3 1.2s.5.5.8 1l.5 1.2.4 1.1.5 1.1.5 1.2c.2.5 0 .6.3 1.2l.5 1 .5 1.2.4 1.2.7 1c.3.5.2.6.4 1.2a1.4 1.4 0 010 1.3zm-6.2-6.7c-.3-.6 0-.6-.3-1.2l-.5-1.1-.5-1c-.2-.5 0-.6-.3-1.1s0-1-.5-1-.5.4-.7 1l-.5 1.2-.4 1.2-.6 1.2-.4 1.2c-.3.6-.5.5-.7 1.2a1.9 1.9 0 011.4-.8h1.2c.6 0 .6.3 1.1.3l1.2-.2c.6 0 1 .6 1.3.1s-.6-.5-.8-1zM190.8 8l-.7 1-.8.8-.7 1c-.4.5-.5.3-.9.8s-.5.3-1 .7-.4.5-.8 1l-.7 1c-.4.5-.6.3-.8.8s.2.8.2 1.4-.2.7-.2 1.4l.1 1.3c0 .7-.2.6-.2 1.3l.2 1.3a1.6 1.6 0 01-.6 1.2 1.5 1.5 0 01-1 .5 1.8 1.8 0 01-1.3-.3 1.7 1.7 0 01-.3-1.3c0-.7-.3-.7-.3-1.3s.3-.7.3-1.4V18l-.1-1.4v-1.3c0-.6-.3-.5-.8-1-.3-.2-.5-.6-.8-1l-.8-.8c-.5-.5-.7-.2-1-.6l-.8-1a3.8 3.8 0 01-.7-1.1c-.4-.4-.6-.2-1-.7l-.7-1a1.6 1.6 0 01-.4-1.2 1.8 1.8 0 01.5-1.1A2 2 0 01176 5a1.8 1.8 0 011.1.7l1 .8c.4.4.1.7.5 1l1 .9c.4.5.6.3 1 .7l.7 1 .8 1c.4.4.3.6.8.8s.2-.5.6-1l.9-.8 1-.7.7-1c.3-.3.3-.8.6-1l.8-.9.8-.9a1.6 1.6 0 011.2-.4 1.6 1.6 0 011.3.3 2 2 0 01.7 1.2c0 .3-.4.7-.7 1.1zM213.2 19.6a7.4 7.4 0 01-.6 1.2 6.1 6.1 0 01-.9 1c-.2.4-.7.4-1 .7a6.4 6.4 0 01-1 .7 11 11 0 01-1 .4l-1.2-.2a6.6 6.6 0 01-1.1 0l-.2.5-1.2-.1c-.4 0-.7-.4-1.1-.5s-.9.2-1.2 0l-1-.6c-.3-.1-.9-.1-1.2-.3l-.8-.9a1.5 1.5 0 01-.5-1.1c0-.4-.1-1 .1-1.3a1.9 1.9 0 011.2-.6 1.9 1.9 0 011.4.3 4.4 4.4 0 001 .5 4 4 0 001 .5 6.2 6.2 0 001.1.3 10.9 10.9 0 001.2.2l.1-.3a6 6 0 001.3 0 5 5 0 001.3-.3 2 2 0 00.8-1.1l.1-.4a1.7 1.7 0 00-.7-1 3.2 3.2 0 00-1-.5l-1.3-.3c-.4-.1-.7-.6-1.2-.7a7.8 7.8 0 01-1.3-.3c-.4-.2-.9-.2-1.3-.3a9.9 9.9 0 01-1-.7 4.7 4.7 0 01-1-.5 5 5 0 01-.8-.8c-.3-.4-.1-1-.3-1.4a4.8 4.8 0 01-.3-1.4 4.9 4.9 0 010-1.5c.2-.5.7-.7.9-1s.2-1 .5-1.3 1-.3 1.3-.5a7 7 0 011-.3c.4-.1.7-.6 1-.7a7.4 7.4 0 011.2 0 9.1 9.1 0 011.4 0c.4 0 .8.5 1.2.6s.9 0 1.3.1a9.3 9.3 0 011 .7 6.8 6.8 0 011.2.7l-.3.4c.3.3.8.6.8 1a1.6 1.6 0 01-.6 1.1 1.5 1.5 0 01-1.1.6 1.9 1.9 0 01-1.4-.3 4.6 4.6 0 00-1-.8c-.4-.1-.7-.5-1.1-.6a6 6 0 00-1.3 0 4.2 4.2 0 00-1.6.5c-.5.3-.7.5-.8.8l-.3.5.4.7a3 3 0 001.1.7l1.2.5c.3.2.9.3 1.3.3l1.2.3 1.2.5a6 6 0 011.1.7 5.5 5.5 0 011.1.8c.3.3.8.5 1 .9a5 5 0 01.4 1.3 4.6 4.6 0 01.5 1.3 4.8 4.8 0 01-.2 1.3z"/><circle class="cls-2" cx="2.4" cy="6.5" r="2.2"/><circle class="cls-2" cx="175" cy="6.1" r="2.2"/><circle class="cls-3" cx="34.8" cy="4.8" r="2.2"/><circle class="cls-3" cx="210.9" cy="8.8" r="2.2"/><circle class="cls-4" cx="63" cy="8.2" r="2.2"/><circle class="cls-4" cx="126.7" cy="7" r="2.2"/><circle class="cls-5" cx="92.5" cy="8.3" r="2.2"/><circle class="cls-5" cx="157.8" cy="6" r="2.2"/><circle class="cls-4" cx="17.8" cy="19.5" r="2.2"/><circle class="cls-4" cx="182.8" cy="23.1" r="2.2"/><circle class="cls-5" cx="46.5" cy="23.4" r="2.2"/><circle class="cls-5" cx="200.5" cy="20.3" r="2.2"/><circle class="cls-2" cx="80.3" cy="23.2" r="2.2"/><circle class="cls-2" cx="127" cy="22" r="2.2"/><circle class="cls-3" cx="108.9" cy="21.5" r="2.2"/><circle class="cls-3" cx="150.7" cy="22.7" r="2.2"/><rect x="225" width="25.4" height="25.4" rx="7" ry="7" fill="url(#名称未設定グラデーション_14)"/><path d="M242.2 8c-1.2 0-1.7.3-2.7 1.5l-.8 3-1.9-3.5c-1-1.2-2-2.2-3.2-2.2h-.6a3.2 3.2 0 00-2.7 3v.9c.2 2.6 1.5 5 10.1 9.5 0-3.7 4.5-5.6 4.7-8.3V11c-.2-2-1.5-3-2.3-3h-.6z" fill="#fff"/></g></g></svg>