<svg xmlns="http://www.w3.org/2000/svg" viewBox="0 0 300 46.31"><defs><linearGradient id="新規グラデーションスウォッチ_1" x1="420.63" y1="44.52" x2="448.44" y2="16.72" gradientTransform="translate(-149.76)" gradientUnits="userSpaceOnUse"><stop offset=".1" stop-color="#e13b56"/><stop offset=".35" stop-color="#ea9f16"/><stop offset=".7" stop-color="#39ac36"/><stop offset=".85" stop-color="#3ba280"/><stop offset=".95" stop-color="#3a97b3"/></linearGradient><style>.cls-1{fill:#4b191a}.cls-2{fill:#e13b56}.cls-3{fill:#39ac36}.cls-4{fill:#3a97b3}.cls-5{fill:#ea9f16}</style></defs><g id="レイヤー_2" data-name="レイヤー 2"><g id="header"><path class="cls-1" d="M22.24 39c-.37.4-.7.81-1 1.18s-1 .44-1.37.77a8.85 8.85 0 01-1.18 1 9.24 9.24 0 01-1.44.63c-.44.19-.85.52-1.37.7a10.14 10.14 0 01-1.47.34 9.82 9.82 0 01-1.55.14c-.48 0-1 .41-1.52.41-.07 0-.18.11-.26.11a9.14 9.14 0 01-1.47-.41c-.48 0-1 .26-1.52.15a10.33 10.33 0 01-1.48-.37A9 9 0 015.22 43a10.21 10.21 0 01-1.37-.67c-.4-.22-.55-.92-1-1.22s-1-.36-1.33-.7-.4-.92-.74-1.29l-.25.19A2.4 2.4 0 010 37.75c0-.52.7-.82 1.15-1.15s.85-.77 1.36-.74a2.33 2.33 0 011.41.85 8.55 8.55 0 00.92 1.41c.41.33 1.14.22 1.62.48s.82.74 1.37.88a6.63 6.63 0 001.59.22 7.49 7.49 0 001.62-.11c.52 0 1 .23 1.52.19s1-.11 1.51-.19a12.08 12.08 0 001.44-.51 8.63 8.63 0 001.22-.89 6.8 6.8 0 001.27-.85c.37-.33 1-.48 1.33-.89s.62-1.1 1.18-1.14 1 .48 1.4.89 1 .73 1 1.25a2.56 2.56 0 01-.67 1.55zm-3.36-17.4c-.33.63-.4.59-.77 1.22s-.37.59-.7 1.22-.34.66-.67 1.29-.18.7-.52 1.33-.37.63-.7 1.26a2.34 2.34 0 01-1.84 1.25c-.34 0-.6-.44-.93-.59a1.85 1.85 0 01-.85-1.14 1.91 1.91 0 01.1-1.51c.33-.55.29-.55.59-1.11s.37-.52.66-1 .56-.56.63-1.18c-.52 0-1.18 0-1.74.07s-1 .11-1.58.15-1.07-.22-1.63-.19-1 0-1.59.08-1 .18-1.58.22-1 .44-1.56.52a2.61 2.61 0 01-1.62-.56 2.32 2.32 0 01-.74-1.48 2.26 2.26 0 01.37-1.62 2.4 2.4 0 011.51-.67c.52 0 1 .12 1.56.08s1-.59 1.47-.63 1-.11 1.55-.15 1 0 1.55-.07 1.08.18 1.56.18 1 .11 1.55.11 1-.36 1.55-.36.92.22 1.36.22 1-.19 1.41-.15a2.37 2.37 0 011.88 1.14 2.34 2.34 0 01-.28 2.04zM59.43 31.28a1.8 1.8 0 01-1.33.63c-.66.08-.63.45-1.29.48s-.67 0-1.37 0-.66-.41-1.36-.33a2.58 2.58 0 00-1.3.55c-.66 0-.62.07-1.29.15-.11.07-.07.11-.15.15a7.28 7.28 0 00-1.44.74 11.79 11.79 0 00-1.22 1.14 10.09 10.09 0 00-.77 1.44 7.23 7.23 0 00-.85 1.44c-.07.3.18.59.18.85 0 .52-.29 1.07 0 1.44a4.13 4.13 0 001.26.7c.37.15.85-.11 1.25 0s.74.67 1.15.67 1-.48 1.55-.63a6.54 6.54 0 001.55-.55 2.51 2.51 0 011.73 0 2.25 2.25 0 011.15 1.18 2.08 2.08 0 01-.11 1.55c-.19.52-.37 1.18-.89 1.4a9.7 9.7 0 01-1.63.45 11.79 11.79 0 01-1.58.55 13.87 13.87 0 01-1.7-.22c-.45 0-.93.18-1.41.15s-.88-.19-1.33-.3-.92-.22-1.32-.37-.74-.81-1.15-1.07-1-.4-1.29-.77a6.81 6.81 0 01-1-1.15 7.23 7.23 0 01-.67-1.44 7.15 7.15 0 01-.14-1.55c0-.63.51-1.26.7-1.88.11-.45 0-1 .11-1.41a8.25 8.25 0 01.81-1.18c.22-.37.48-.85.74-1.22-.74-.18-.78.26-1.52.3S42.74 33 42 33s-.74.11-1.51.18-.78-.18-1.51-.11c-.08 0-.08.08-.15.08a1.62 1.62 0 01-1-.33c-.33-.23-.81-.34-1-.74a2.08 2.08 0 010-1.26 1.87 1.87 0 01.78-.92c.55-.48.55-.48 1.07-1s.62-.37 1.18-.81.18-.89.74-1.33l1.11-.89c.55-.48.66-.33 1.21-.78s.52-.44 1.07-.92a4.18 4.18 0 00.93-1.11c.55-.44.66-.33 1.18-.77s1.44-.15 1.18-.81-.7.07-1.4.07-.74-.26-1.44-.26-.7.33-1.41.33a1.93 1.93 0 01-1.44-.7 2.2 2.2 0 01-.66-1.4 1.89 1.89 0 01.7-1.33c.37-.37.78-.85 1.33-.85s.7.07 1.44 0 .7.14 1.44.14.7.11 1.44.08.7-.26 1.4-.26h1.44c.7 0 .74-.19 1.45-.22s.7 0 1.44 0c.4 0 .77.41 1.1.67a1.65 1.65 0 01.74.92 1.72 1.72 0 01-.07 1.14c-.11.37.07 1-.26 1.3-.59.48-.59.48-1.18 1l-1.18 1c-.59.48-.85.19-1.44.67s-.45.7-1 1.18-.81.26-1.4.74-.52.59-1.08 1.11-.44.66-1 1.14-1.48.15-1.26.89.74.18 1.45.14.7-.55 1.4-.62.74.26 1.44.22.74.15 1.48.07.7 0 1.4 0 .74-.12 1.44-.19.7-.26 1.4-.33.7-.26 1.44-.3.74.45 1.44.37 1.26-.26 1.67.08a2.65 2.65 0 01.73 1.58c.01.54-.51 1.02-.84 1.42zM93.11 23.94a2.09 2.09 0 01-1.51.62l-1.44.15c-.74.07-.74-.18-1.48-.11s-.7.11-1.44.15-.7.37-1.44.44-.74-.19-1.44-.19a5.18 5.18 0 00-1.48.19c-.18.44-.55.85-.77 1.33s-.11 1-.3 1.44-.66.81-.85 1.25-.11 1-.29 1.48-.3.92-.48 1.37-.52.85-.71 1.29-.07 1-.22 1.48-.66.81-.81 1.25-.22 1-.33 1.44-.15 1-.26 1.44-.48.93-.55 1.41a1.89 1.89 0 01-.52 1.18 1.94 1.94 0 01-1.29.59c-.12 0-.26.11-.37.07-.56-.07-.78-.7-1.07-1.14a1.59 1.59 0 01-.45-1.37c.08-.44 0-1 .15-1.48s.33-.92.48-1.4 0-1 .11-1.51.52-.85.67-1.33.4-.93.59-1.41.18-1 .37-1.44.59-.81.77-1.29.22-1 .41-1.44.11-1 .29-1.48.52-.62.7-1.1c-.51-.19-.48.11-1 .14-.07 0-.15.08-.18.08a2.66 2.66 0 01-1.59-.63 2.39 2.39 0 01-.52-1.55c0-.56.37-.92.74-1.33s.63-.89 1.18-.92c.85-.08.85-.15 1.74-.23a6.52 6.52 0 001.7-.14c.18-.45.59-.63.81-1s.29-.88.48-1.29.55-.78.77-1.14a1.88 1.88 0 011-1.08 1.93 1.93 0 011.48.15 1.82 1.82 0 011 1.15 1.89 1.89 0 01-.22 1.47c-.22.45-.41 1.22-.63 1.74.74.18.85-.33 1.63-.41s.77-.18 1.55-.26.85.34 1.62.26.78-.26 1.55-.33a2.1 2.1 0 011.59.33 2.14 2.14 0 01.63 1.52 2.34 2.34 0 01-.37 1.59zm3.69 19.9c-.37.33-1 .37-1.4.63a8.3 8.3 0 01-1.22.92 7.47 7.47 0 01-1.55.19 12.87 12.87 0 01-1.4.48 11.46 11.46 0 01-1.52.25c-.51 0-1-.36-1.51-.4a12.1 12.1 0 01-1.59-.08 9.65 9.65 0 01-1.33-.83c-.48-.22-1.11-.18-1.51-.51l.07-.12a1.9 1.9 0 01-.55-1.4 1.77 1.77 0 01.15-1.51 1.93 1.93 0 011.4-.7 2.15 2.15 0 011.62.11 4.61 4.61 0 001.48 1 6.79 6.79 0 001.77.15 7.24 7.24 0 001.52-.22 4.46 4.46 0 001.36-.59c.48-.22 1.11-.19 1.48-.52a2.12 2.12 0 011.4-.7 2.17 2.17 0 011.33.81 1.82 1.82 0 01.3 1.44c-.04.53.15 1.23-.3 1.6zm-1.4-11.37a2.45 2.45 0 01-1.4.88c-.78 0-.82-.26-1.59-.22s-.81.33-1.59.37-.81-.33-1.62-.3-.78.08-1.59.15-.78.15-1.59.19h-.11a1.79 1.79 0 01-1.29-.67 2 2 0 01-.85-1.25 2 2 0 01.74-1.41c.33-.37.74-1 1.29-1 .81-.07.81.34 1.62.3s.78-.44 1.56-.48.84.41 1.62.37.78-.26 1.59-.3.81.19 1.59.11c.59 0 1.18-.11 1.55.23s.29 1 .33 1.51a2 2 0 01-.26 1.52zm2.44-7a1.18 1.18 0 01-.45.92 1.25 1.25 0 01-1 .48s-.11.34-.14.34a2.09 2.09 0 01-1.66-2c0-.48.33-1 .36-1.52s-.25-1.07-.22-1.58.19-1 .19-1.56.4-.77.7-1.07.59-.81 1.07-.81.85.44 1.15.74a1.54 1.54 0 01.33 1.14c0 .56-.08 1.11-.11 1.63s.22 1.14.18 1.66-.36 1.16-.4 1.61zm5.09-3.69c0 .55.41 1.14.37 1.66s-.62 1.11-.66 1.62.11.89-.19 1.15a1.87 1.87 0 01-1.14.63s-.11.07-.15.07c-.44 0-.7-.63-1-1s-.66-.63-.63-1.07.26-1 .3-1.59-.19-1-.15-1.59.11-1.07.11-1.59h-.07a1.9 1.9 0 011.73-1.73c.45 0 .71.48 1 .77s.85.52.85 1-.37 1.09-.37 1.65zM134.47 24.08a2.19 2.19 0 01-1.51.7c-.63.08-.59.08-1.18.19a1.72 1.72 0 01-.78.37c-.48.15-.92.33-1.33.48s-.92.41-1.33.63a12.65 12.65 0 00-1.33.62c-.4.34-.48.89-.77 1.26a5.15 5.15 0 00-.85 1.29 6 6 0 00-.67 1.44 11.61 11.61 0 00-.18 1.63c0 .33.29.7.33 1.07 0 .66-.15 1.33.07 1.73s1 .6 1.48.93a4.19 4.19 0 001.18.74 6.69 6.69 0 001.33.44 9.38 9.38 0 001.41 0c.59.07.92.66 1.25 1.07a1.86 1.86 0 01.63 1.4 2.32 2.32 0 01-.59 1.4 2.22 2.22 0 01-1.52.3s-.14.33-.22.33c-.51-.07-1-.29-1.55-.4a14.26 14.26 0 01-1.48-.63c-.51-.19-1.14.07-1.66-.15s-.66-.92-1.1-1.22-1-.18-1.37-.52a6.78 6.78 0 01-1-1.07 8 8 0 01-.44-1.36 8.64 8.64 0 01-.3-1.37 8.54 8.54 0 01-.18-1.37c0-.48-.26-.92-.26-1.36s0-1 .07-1.52a10.58 10.58 0 01.15-1.51 9 9 0 01.56-1.44 12.5 12.5 0 01.59-1.4c.25-.45.85-.63 1.18-1 0-.07-.11-.18 0-.26a9.25 9.25 0 00-1.37 0c-.44 0-1-.26-1.44-.22s-1 .26-1.4.26c-.81.07-1.4.18-1.4.18-.7.08-.7-.22-1.41-.18s-.7.18-1.4.26-.7.11-1.37.18-.73-.11-1.44 0c0 0-.07.08-.11.08a1.79 1.79 0 01-1.29-.56 1.63 1.63 0 01-.55-1.25c0-.56-.15-1.15.22-1.52a2 2 0 011.48-.51c.73 0 .55-.08 1.51-.15h1.48c.56 0 1-.55 1.47-.59s1 0 1.52 0 1 .22 1.55.18 1 0 1.51-.07 1 0 1.52 0 1-.37 1.48-.41 1 .08 1.51 0 1-.37 1.48-.41 1.07.19 1.51.15c.59 0 1.07-.11 1.51-.15h1.52c.74 0 .74-.33 1.48-.37a2.11 2.11 0 011.51.6 2 2 0 01.7 1.4 2.21 2.21 0 01-.41 1.66zM169.19 33c-.08.48-.15 1-.26 1.44a8.08 8.08 0 01-.41 1.4 8.86 8.86 0 01-.74 1.3 11.45 11.45 0 01-.74 1.29 8.29 8.29 0 01-1.07 1 9.82 9.82 0 01-1.1 1 9 9 0 01-1.3.55c-.44.22-.85.41-1.29.59s-.81.59-1.26.71-1 .22-1.44.29-1-.26-1.4-.26v-.07c-.51 0-1 0-1.51-.08a9.22 9.22 0 01-1.48-.11c-.48-.11-1 0-1.47-.14a2.26 2.26 0 01-1.44.62c-.56 0-1-.48-1.33-.85a1.92 1.92 0 01-.85-1.32c0-.74.14-.6.14-1.48 0-.41-.07-.92-.07-1.44s.26-1 .26-1.48v-1.48-1.44c0-.44-.19-1-.19-1.47s.26-1 .26-1.48-.4-1-.4-1.44c0-.89-.08-.74-.08-1.48v-1.44-1.48c0-.74.48-.73.48-1.44 0-.51-.18-1 .11-1.4a2.18 2.18 0 011.3-.78c.51-.11 1.07 0 1.62-.07s1-.44 1.55-.44 1.11.11 1.66.11 1 .33 1.44.37 1-.22 1.52-.15.92.3 1.4.41a8.39 8.39 0 011.44.33 12.55 12.55 0 011.33.63 9.76 9.76 0 011.4.62c.37.3.6.82 1 1.15s.45.89.74 1.25a14.6 14.6 0 01.93 1.15c.22.41.66.74.85 1.22a9.4 9.4 0 01.25 1.44 9.25 9.25 0 01.41 1.4 10.53 10.53 0 01.11 1.48h-.07.22-.19.23c-.08.53-.53.97-.56 1.47zm-3.92-1.51h-.15c0-.52.37-1.11.26-1.63a8.26 8.26 0 00-.77-1.47 6.14 6.14 0 00-.85-1.33 7.41 7.41 0 00-1-1.37 10.76 10.76 0 00-1.48-.66 8.55 8.55 0 00-1.51-.37 9 9 0 00-1.55-.37 10.07 10.07 0 00-1.56 0c-.4 0-.85-.11-1.21-.11s-.93.33-1.33.37a3.85 3.85 0 00-.11 1.48v2.95c0 .74.08.7.08 1.44s.37.74.37 1.48-.45.7-.45 1.44.08.74.08 1.48a8.76 8.76 0 00.14 1.44c0 .73-.29.77-.11 1.47.45.15 1 .11 1.37.23s.85.22 1.29.25.85.34 1.29.34a12.68 12.68 0 001.63 0 10.22 10.22 0 001.48-.74 7.25 7.25 0 001.55-.52 6.08 6.08 0 001.22-1.1 9.25 9.25 0 00.55-1.48 10.24 10.24 0 00.48-1.48 7.61 7.61 0 00.44-1.55s-.15-.14-.15-.17zM199.36 40.92c-.19.48-.37 1.15-.89 1.37s-1.14 0-1.66-.22a1.84 1.84 0 01-.92-1.15c-.26-.59-.56-.44-.78-1s-.41-.55-.66-1.11.22-.85-.19-1.37a2.21 2.21 0 01-1 .3c-.77 0-.77.11-1.55.11s-.77-.18-1.55-.18-.74.4-1.51.4-.78-.37-1.55-.37v.3a2.2 2.2 0 01-1.44-.63c-.34-.33-.15-.92-.15-1.44 0-.11-.15-.18-.15-.29-.29.66-.59.55-.88 1.22s0 .81-.3 1.48-.26.7-.55 1.4-.19.7-.45 1.36l-.22-.07a2.17 2.17 0 01-.7 1c-.33.22-.78.11-1.18.11a1.9 1.9 0 01-.74-.22c-.52-.26-1.11-.41-1.29-.89a2.13 2.13 0 010-1.66c.26-.7.59-.44.93-1.22.18-.41.37-.89.59-1.37s0-1.1.15-1.55c.33-.77.7-.48 1-1.14s.15-.78.41-1.44.26-.7.55-1.37.48-.59.78-1.29.07-.78.33-1.44.15-.74.41-1.44.74-.48 1-1.15 0-.77.33-1.47.11-.74.41-1.41.63-.55.85-1.25a3.2 3.2 0 01.81-1.48 2.78 2.78 0 011.66-.52c.59 0 .93.52 1.33.82s1 .59 1.18 1c.3.7.23.7.52 1.4s.15.74.44 1.41.63.55.93 1.22.26.7.55 1.4.26.66.56 1.36l.59 1.37.59 1.33c.29.67.07.78.37 1.48s.33.66.62 1.33.3.66.6 1.36.14.71.44 1.41.55.55.85 1.22.22.73.48 1.4a1.67 1.67 0 01.05 1.58zm-7.5-8.05c-.26-.66 0-.74-.33-1.4s-.22-.67-.52-1.33-.37-.59-.66-1.26-.11-.7-.41-1.36.11-1.22-.59-1.15-.52.52-.85 1.26-.26.74-.55 1.44a14 14 0 00-.48 1.51c-.3.7-.37.67-.67 1.37s-.18.81-.48 1.51-.63.59-.85 1.37a2.3 2.3 0 011.63-.83c.7 0 .7-.18 1.4-.15s.7.48 1.4.48.71-.22 1.41-.22 1.14.67 1.51.08-.66-.65-.96-1.32zM228.72 23.57c-.45.55-.23.59-.78 1.21-.29.34-.7.63-1 1s-.48.92-.78 1.25c-.52.63-.63.41-1.11 1s-.66.37-1.14.93-.48.52-1 1.07-.37.63-.85 1.18-.74.41-1 1.11.3.85.3 1.62-.3.82-.3 1.63.19.77.19 1.59-.26.77-.26 1.58.22.78.22 1.59a1.88 1.88 0 01-.78 1.29 1.73 1.73 0 01-1.29.63 2.09 2.09 0 01-1.51-.4 2.08 2.08 0 01-.33-1.52c0-.81-.34-.81-.34-1.62s.37-.78.37-1.59-.07-.81-.07-1.63-.11-.81-.11-1.62.22-.81.07-1.63-.44-.51-1-1.1c-.29-.34-.55-.78-.88-1.18s-.74-.67-1-1c-.55-.59-.81-.26-1.29-.78s-.4-.63-.88-1.14a4.39 4.39 0 01-.74-1.29c-.48-.52-.78-.26-1.26-.82s-.41-.59-.89-1.11a2 2 0 01-.52-1.52 2.2 2.2 0 01.67-1.4 2.43 2.43 0 011.48-.66 2.14 2.14 0 011.36.85c.48.51.56.44 1.07 1s.26.77.74 1.29.63.4 1.15.92.62.41 1.1.92.41.6.93 1.15.44.52 1 1.07.26.81.92 1.11.19-.63.74-1.26c.26-.33.66-.66 1-1s.88-.48 1.22-.85.55-.78.85-1.15.44-.92.73-1.25c.56-.63.48-.52 1-1s.52-.51 1-1a2 2 0 011.48-.48 1.87 1.87 0 011.48.3 2.28 2.28 0 01.92 1.4c-.07.38-.51.86-.88 1.31zM255.56 37.64a8.87 8.87 0 01-.73 1.44 7.73 7.73 0 01-1 1.18c-.33.37-.93.48-1.37.74a7.83 7.83 0 01-1.07.85c-.41.14-.85.33-1.29.44s-.92-.19-1.41-.15a7.17 7.17 0 01-1.32 0c-.08 0-.15.55-.23.55-.48 0-1-.11-1.4-.14s-.89-.45-1.33-.52-1 .18-1.48 0-.77-.59-1.18-.77-1-.15-1.4-.37-.63-.74-1-1a1.85 1.85 0 01-.55-1.37c0-.52-.19-1.07.15-1.51a2.21 2.21 0 011.44-.71 2.29 2.29 0 011.62.26 4.92 4.92 0 001.15.7 4.34 4.34 0 001.25.52 6.87 6.87 0 001.37.44 11.9 11.9 0 001.4.19c.07 0 .15-.37.19-.37a7.25 7.25 0 001.55 0 5.78 5.78 0 001.51-.3 2.35 2.35 0 001-1.36c0-.15.19-.3.19-.41a2.09 2.09 0 00-.89-1.22 3.77 3.77 0 00-1.29-.62c-.45-.19-1-.26-1.52-.45s-.85-.66-1.4-.85a9.61 9.61 0 01-1.59-.33c-.44-.15-1-.15-1.55-.37a10.94 10.94 0 01-1.11-.77 6.21 6.21 0 01-1.14-.63 6.3 6.3 0 01-1-.93c-.37-.48-.22-1.21-.41-1.73a5.89 5.89 0 01-.4-1.66 5.67 5.67 0 01.11-1.81c.15-.56.74-.85 1-1.26s.25-1.18.62-1.55 1.11-.33 1.55-.55a9.06 9.06 0 011.3-.37c.44-.15.77-.78 1.22-.85a8.19 8.19 0 011.4 0A11.49 11.49 0 01248 20c.52.07.92.63 1.4.74s1.11-.07 1.59.11a10.29 10.29 0 011.29.85 8.15 8.15 0 011.33.85l-.37.41c.41.36 1 .7 1 1.21a2 2 0 01-.73 1.41 1.87 1.87 0 01-1.33.7 2.23 2.23 0 01-1.63-.37 5.55 5.55 0 00-1.15-.91c-.48-.19-.89-.63-1.37-.74a7.3 7.3 0 00-1.55 0 4.93 4.93 0 00-2 .63c-.6.33-.89.59-1 .92s-.37.44-.37.63.29.59.48.85a3.7 3.7 0 001.4.85c.52.22 1 .36 1.44.55s1 .33 1.48.44 1 .19 1.51.34.89.44 1.41.62a7.3 7.3 0 011.36.85 6.92 6.92 0 011.3.89c.4.37 1 .63 1.25 1a6 6 0 01.48 1.59 5.52 5.52 0 01.56 1.55 5.68 5.68 0 01-.22 1.67z"/><circle class="cls-2" cx="2.9" cy="21.84" r="2.61"/><circle class="cls-2" cx="209.82" cy="21.39" r="2.61"/><circle class="cls-3" cx="41.74" cy="19.84" r="2.61"/><circle class="cls-3" cx="252.79" cy="24.66" r="2.61"/><circle class="cls-4" cx="75.46" cy="23.92" r="2.61"/><circle class="cls-4" cx="151.85" cy="22.51" r="2.61"/><circle class="cls-5" cx="110.89" cy="24.02" r="2.61"/><circle class="cls-5" cx="189.14" cy="21.34" r="2.61"/><circle class="cls-4" cx="21.27" cy="37.5" r="2.61"/><circle class="cls-4" cx="219.16" cy="41.75" r="2.61"/><circle class="cls-5" cx="55.77" cy="42.08" r="2.61"/><circle class="cls-5" cx="240.34" cy="38.39" r="2.61"/><circle class="cls-2" cx="96.31" cy="41.93" r="2.61"/><circle class="cls-2" cx="152.2" cy="40.41" r="2.61"/><circle class="cls-3" cx="130.51" cy="39.88" r="2.61"/><circle class="cls-3" cx="180.61" cy="41.25" r="2.61"/><path d="M295.5 15.39h-21.45a4.52 4.52 0 00-4.5 4.51v21.44a4.52 4.52 0 004.5 4.5h21.45a4.52 4.52 0 004.5-4.5V19.9a4.52 4.52 0 00-4.5-4.51zm-1.33 15.31c-.29 3.18-5.66 5.43-5.66 9.89-10.27-5.29-11.83-8.2-12.13-11.38v-1.06a3.84 3.84 0 013.25-3.58h.77c1.43 0 2.62 1.24 3.8 2.65l2.32 4.28.86-3.7c1.19-1.42 1.79-1.86 3.23-1.86h.77c1 .1 2.55 1.17 2.79 3.7z" fill="url(#新規グラデーションスウォッチ_1)"/><path class="cls-1" d="M5.78 7.79a15 15 0 011.28 1.46.24.24 0 01.07.13.3.3 0 01-.07.14 3 3 0 01-.46.39l-.11.09s-.06 0-.1-.08a18.73 18.73 0 00-3.86-3.79c.23-.24.4-.4.5-.49s.07-.06.1-.06a.28.28 0 01.13.06 27.5 27.5 0 011.93 1.57 21.74 21.74 0 003.46-3.55h-5.5c-.73 0-1.56 0-2.47.1H.63a.16.16 0 01-.16-.14c0-.39-.09-.69-.09-.87.62.06 1.55.09 2.77.09h5.08a2.71 2.71 0 00.91-.09.27.27 0 01.14 0 .25.25 0 01.17.08 3.25 3.25 0 01.55.57.32.32 0 01.06.17.24.24 0 01-.12.2 3.22 3.22 0 00-.59.53 26.54 26.54 0 01-3.57 3.49zM12.94 2.61l.49-.61a.15.15 0 01.12 0 .21.21 0 01.11 0 11.65 11.65 0 012.25 1.66.23.23 0 01.07.14.16.16 0 010 .1 3.93 3.93 0 01-.42.54.16.16 0 01-.11.07s-.05 0-.09-.06a13.27 13.27 0 00-2.42-1.84zm.3 6.56a6.82 6.82 0 001.31-.51 23.12 23.12 0 003.62-2.32A21.34 21.34 0 0021.54 3a4.21 4.21 0 00.21.83.41.41 0 01.05.17.5.5 0 01-.14.27 22 22 0 01-3 2.87 26.25 26.25 0 01-3.75 2.44 4.8 4.8 0 00-.69.48.26.26 0 01-.17.09.21.21 0 01-.16-.1 4.56 4.56 0 01-.65-.88zM28 3.52c.05-.64.08-1.08.09-1.33s0-.29 0-.43A5.43 5.43 0 0028 .84 3.78 3.78 0 0129 1c.11 0 .17.1.17.18a.41.41 0 01-.06.2 2.73 2.73 0 00-.17.82c0 .29-.05.72-.11 1.29h3.74c.13 0 .19 0 .19.15v1.15a19 19 0 01-.46 4 2.75 2.75 0 01-.48 1.07 1.47 1.47 0 01-.67.43 4.22 4.22 0 01-1.3.15.2.2 0 01-.21-.15 1.38 1.38 0 00-.43-.7h.47a3.46 3.46 0 001.13-.14.66.66 0 00.4-.29 3.82 3.82 0 00.25-.73 19.52 19.52 0 00.42-4.1h-3.15a9.67 9.67 0 01-1.12 3.51 6.66 6.66 0 01-1.2 1.46A8.46 8.46 0 0125 10.38a.32.32 0 01-.16.06.16.16 0 01-.14-.07A1.61 1.61 0 0024 10a7 7 0 002.87-2.51 8.3 8.3 0 001-3.14h-1.45c-.65 0-1.22 0-1.73.07-.06 0-.1-.06-.12-.17a7.22 7.22 0 01-.07-.75c.58 0 1.23.06 1.93.06zm3.75-2l.45-.33h.14a5.73 5.73 0 011.41 1.51.14.14 0 010 .06.08.08 0 010 .08l-.36.3a.11.11 0 01-.08 0 .1.1 0 01-.08 0 5.09 5.09 0 00-1.5-1.6zM32.83.7l.4-.32h.14a6.81 6.81 0 011.43 1.46.13.13 0 010 .06.09.09 0 01-.06.08l-.33.31h-.07a.09.09 0 01-.08-.06A5.61 5.61 0 0032.83.7zM35.81 3.14A13.49 13.49 0 0037.36 3c2.32-.38 4.9-.74 7.75-1.1a.16.16 0 01.17.11 2.68 2.68 0 01.07.62c0 .09 0 .14-.16.15A5.78 5.78 0 0041 4.91a3.45 3.45 0 00-.82 2.18c0 1.7 1.21 2.64 3.64 2.84.13 0 .2.06.2.14a2.84 2.84 0 01-.07.6c0 .12-.08.18-.17.18a6 6 0 01-3.15-1 3.05 3.05 0 01-1.24-2.57q0-2.62 3-4.25V3c-2.28.36-4 .66-5.07.89a3.09 3.09 0 00-.75.21 1 1 0 01-.24.08.2.2 0 01-.18-.18 7.09 7.09 0 01-.34-.86zm7.64 1.91l.47-.33H44a5.58 5.58 0 011.41 1.51.14.14 0 010 .06.1.1 0 010 .08l-.36.3a.13.13 0 01-.08 0 .08.08 0 01-.08 0 5.15 5.15 0 00-1.44-1.62zm1.11-.83l.4-.31h.07a.1.1 0 01.07 0 6.71 6.71 0 011.42 1.46.07.07 0 010 .06.12.12 0 01-.06.09l-.33.3h-.07a.12.12 0 01-.06-.04 5.43 5.43 0 00-1.44-1.56zM58.37 10.33a1.83 1.83 0 00-.34.47c-.06.13-.12.2-.17.2l-.19-.06A10.79 10.79 0 0153 8v3.26c0 .07 0 .1-.1.1h-.61c-.07 0-.1 0-.1-.1v-.85-2.4a9 9 0 01-2.06 1.8A13.66 13.66 0 0147.8 11l-.2.06s-.09-.06-.16-.19a1.76 1.76 0 00-.36-.44 14.33 14.33 0 002.75-1.12 8.58 8.58 0 001.9-1.44h-4.21c-.07 0-.11 0-.11-.1v-.54c0-.06 0-.09.11-.09h4.74a7.17 7.17 0 00-.08-1.06 6.27 6.27 0 01.81.07c.1 0 .16 0 .16.1a.34.34 0 010 .15.45.45 0 000 .13 2.68 2.68 0 00-.06.61H58c.06 0 .1 0 .1.09v.52a.09.09 0 01-.1.1h-4.47a9.38 9.38 0 002.31 1.6 15.44 15.44 0 002.53.88zm-8.19-6.06a1.05 1.05 0 010 .18s-.05.11-.16.19a18.13 18.13 0 01-1.68 1.09A1.77 1.77 0 0048 6c-.05.07-.09.1-.13.1a.16.16 0 01-.14-.09 3.57 3.57 0 01-.36-.7 4.69 4.69 0 00.78-.31 12.87 12.87 0 001.91-1.21s.04.21.12.48zm-.36-1.87a.13.13 0 010 .07s0 .08-.1.14l-.26.28a.56.56 0 01-.13.11h-.07a8.89 8.89 0 00-1.59-1.39s-.05 0-.05-.06 0-.06.09-.13l.29-.3c.07-.06.11-.09.13-.09h.06a9.24 9.24 0 011.63 1.37zm4.83 3.34c0 .06 0 .09-.1.09h-3.78c-.06 0-.1 0-.1-.09V1.53a.09.09 0 01.1-.1h1.12c.1-.27.2-.52.27-.76a1.85 1.85 0 00.17-.57 5.16 5.16 0 01.73.15c.09 0 .13.07.13.13a.21.21 0 01-.09.13.82.82 0 00-.1.28c-.1.23-.19.45-.3.66h1.9c.07 0 .1 0 .1.1v2.98zM54 3.3V2h-2.6v1.3zm0 1.94V3.86h-2.6v1.38zm4 .1s.06.06.06.08a.42.42 0 01-.07.13l-.21.33c-.06.09-.11.14-.14.14h-.08a13.75 13.75 0 00-2.34-1.54s-.07-.05-.07-.07a.28.28 0 01.06-.13l.22-.28c0-.07.08-.1.11-.1h.08A20.56 20.56 0 0158 5.34zm-.25-3.93c0 .05 0 .1-.14.14a1.25 1.25 0 00-.26.21 11.56 11.56 0 01-1.47 1.35.37.37 0 01-.18.11s-.09-.05-.18-.16a1.19 1.19 0 00-.34-.27 8.15 8.15 0 001.66-1.55 3.89 3.89 0 00.25-.4 3.42 3.42 0 01.55.4.26.26 0 01.11.17zM61.83.57a4.91 4.91 0 011 .18c.13 0 .2.1.2.18a1 1 0 01-.1.33 8.54 8.54 0 00-.15 1.29c-.13 2.21-.19 4.08-.19 5.62A2.15 2.15 0 0063 9.66a1.46 1.46 0 001.1.34 4.94 4.94 0 002.51-.75 8.39 8.39 0 002-1.64 2.89 2.89 0 00.21.73 1.47 1.47 0 010 .17.36.36 0 01-.15.24 6.76 6.76 0 01-4.76 2.1 2 2 0 01-1.69-.66 3 3 0 01-.49-1.86q0-.62.17-5.87v-.73a5.57 5.57 0 00-.07-1.16zM77.72.57a5.57 5.57 0 01.8.6.26.26 0 01.09.17.19.19 0 01-.12.16 1.87 1.87 0 00-.47.32c-1.72 1.59-3 2.77-3.68 3.56a.44.44 0 00-.18.31c0 .08 0 .15.16.22a39.84 39.84 0 014.82 4.15c0 .06.08.1.08.13a.19.19 0 01-.07.12 4.14 4.14 0 01-.47.47.19.19 0 01-.12.07s-.08 0-.12-.09a33.52 33.52 0 00-4.71-4.26 1 1 0 01-.49-.79 1.31 1.31 0 01.44-.81c.42-.45 1-1.07 1.83-1.87l1.66-1.68a3.16 3.16 0 00.55-.78zM89 9.36v1.34h-1.35V9.36zm0-8.55l-.29 7.12h-.8L87.68.81zM105.67 5.83c0 .06 0 .1-.09.1h-4.89v3.84a1.71 1.71 0 01-.13.75 1.06 1.06 0 01-.3.35 2.68 2.68 0 01-1.64.32h-.53a.47.47 0 01-.23 0s0-.09-.08-.22a2.1 2.1 0 00-.27-.62 15.52 15.52 0 001.66.07c.45 0 .68-.25.68-.75V5.9h-3.24L95 5.93a.09.09 0 01-.1-.1v-.61c0-.06 0-.09.1-.09h4.91a10.8 10.8 0 00-.09-1.59l.63.09a15.79 15.79 0 002.64-2.06h-6.85c-.07 0-.1 0-.1-.1V.93c0-.06 0-.09.1-.09L98 .86h5.34a.43.43 0 00.22 0h.13c.07 0 .19.08.35.23s.34.36.34.45-.06.15-.17.21a1.65 1.65 0 00-.43.31 15.13 15.13 0 01-3 2.31v.84h4.89a.08.08 0 01.09.09zM117.57 2.05c0 .07 0 .1-.11.1h-6.28a15.78 15.78 0 01-1.07 1.6c1.7-.07 3.22-.16 4.56-.28-.25-.19-.55-.41-.91-.65a.1.1 0 01-.06-.07s0-.06.08-.11l.25-.22a.14.14 0 01.1-.06h.1a13.21 13.21 0 012.54 2 .21.21 0 010 .09s0 .07-.1.12l-.31.28a.33.33 0 01-.13.08.15.15 0 01-.07-.06 10.44 10.44 0 00-.88-.89c-2 .21-4.45.37-7.22.49a1.32 1.32 0 00-.53.08.3.3 0 01-.14 0c-.06 0-.1 0-.12-.14s-.07-.29-.17-.75h2.12a10.59 10.59 0 001-1.63h-3.63c-.06 0-.09 0-.09-.1v-.4c0-.06 0-.1.09-.1H111.45v-.12a6.06 6.06 0 00.03-1.31 7.74 7.74 0 01.83.07c.1 0 .15 0 .15.11a.7.7 0 01-.07.22 3.61 3.61 0 00-.06.88v.15h5.13a.1.1 0 01.11.1zm-1.91 8a1.16 1.16 0 01-.29.89 2.39 2.39 0 01-1.36.24h-.22a.47.47 0 01-.23 0 .53.53 0 01-.08-.17 1.65 1.65 0 00-.24-.55c.4 0 .79.05 1.18.05a.44.44 0 00.49-.5V9h-5.6V11.18a.09.09 0 01-.1.1h-.56a.09.09 0 01-.1-.1V5.32c0-.07 0-.11.1-.11H115.54a.1.1 0 01.1.11v3.05zm-.75-3.25v-.94h-5.6v.95zm0 1.59v-1h-5.6v1zM119 3.14a13.49 13.49 0 001.52-.14q3.51-.57 7.75-1.1a.16.16 0 01.17.11 2.7 2.7 0 01.08.62c0 .09-.06.14-.17.15a5.78 5.78 0 00-4.23 2.13 3.51 3.51 0 00-.82 2.18c0 1.7 1.22 2.64 3.64 2.84.14 0 .2.06.2.14a2.84 2.84 0 01-.07.6c0 .12-.08.18-.16.18a6 6 0 01-3.15-1 3.05 3.05 0 01-1.24-2.57q0-2.62 3-4.25-3.43.55-5.07.9a3.09 3.09 0 00-.75.21 1 1 0 01-.24.08.18.18 0 01-.17-.11 6.11 6.11 0 01-.29-.97zM136.4 7.79a12.74 12.74 0 011.28 1.46.19.19 0 01.07.13.23.23 0 01-.07.14 2.55 2.55 0 01-.46.39l-.1.05s-.07 0-.11-.08a18.24 18.24 0 00-3.86-3.75l.5-.49a.18.18 0 01.1-.06.3.3 0 01.14.06c.78.59 1.42 1.12 1.92 1.57a21.82 21.82 0 003.47-3.55h-5.5c-.74 0-1.56 0-2.48.1a.15.15 0 01-.16-.14C131 3.26 131 3 131 2.78c.63.06 1.55.09 2.78.09h5.07a2.78 2.78 0 00.92-.09.24.24 0 01.13 0 .27.27 0 01.18.08 3.57 3.57 0 01.53.59.27.27 0 01.07.17.23.23 0 01-.13.2 4.07 4.07 0 00-.59.53 26 26 0 01-3.56 3.44zM148.28 7.79a15 15 0 011.28 1.46.24.24 0 01.07.13.3.3 0 01-.07.14 3 3 0 01-.46.39l-.1.09s-.06 0-.1-.08a18.73 18.73 0 00-3.9-3.79c.23-.24.4-.4.5-.49s.07-.06.1-.06a.28.28 0 01.13.06 27.5 27.5 0 011.93 1.57 21.74 21.74 0 003.46-3.55h-5.5c-.73 0-1.56 0-2.47.1h-.05a.16.16 0 01-.16-.14c-.05-.39-.09-.69-.09-.87.62.06 1.55.09 2.77.09h5.08a2.71 2.71 0 00.91-.09.27.27 0 01.14 0 .25.25 0 01.17.08 3.25 3.25 0 01.54.59.32.32 0 01.06.17.24.24 0 01-.12.2 3.22 3.22 0 00-.59.53 26.54 26.54 0 01-3.53 3.47zM155.88 1.21a4.42 4.42 0 01.82.34c.12.07.18.14.18.2a.42.42 0 01-.09.22 1.76 1.76 0 00-.25.65 19.16 19.16 0 00-.54 4.32 10.56 10.56 0 00.19 2.15l.42-1.09.45-1 .3.5a.15.15 0 01.07.12.53.53 0 01-.06.2c-.35.81-.62 1.48-.81 2a.85.85 0 000 .32v.27a.11.11 0 01-.09.12 3.78 3.78 0 01-.56.12c-.06 0-.11 0-.14-.12a7.93 7.93 0 01-.43-1.8 12.92 12.92 0 01-.13-1.83 23.19 23.19 0 01.51-4.26 8 8 0 00.16-1.43zm2.74 6.34h.67c.05 0 .07 0 .07.12 0 .92.79 1.38 2.27 1.38a20 20 0 002.46-.17c.06 0 .09 0 .09.13v.58a.2.2 0 010 .11.42.42 0 01-.14 0 19.69 19.69 0 01-2.24.13 6.36 6.36 0 01-1.78-.2 2.09 2.09 0 01-1-.59 2 2 0 01-.4-1.49zm.43-4v-.68a.17.17 0 01.14-.18 17 17 0 012.65-.22c.81 0 1.4 0 1.78.06.12 0 .19.05.19.13v.58c0 .12 0 .12-.1.12h-.05a18.74 18.74 0 00-2-.07 16.13 16.13 0 00-2.61.24zM167.51 1.05v1.31l-.72 1.69h-.56l.64-1.69h-.71V1.05zm2.07 0v1.31l-.71 1.69h-.57l.7-1.69h-.71V1.05zM182.1 7.19a.09.09 0 01-.1.1h-10.73c-.06 0-.09 0-.09-.1v-.56a.08.08 0 01.09-.09h2.98V3.69h-2.32c-.07 0-.11 0-.11-.1v-.53c0-.07 0-.1.11-.1h2.32V2a10.33 10.33 0 00-.09-1.66 7.31 7.31 0 01.84.07c.11 0 .16.05.16.1a1.15 1.15 0 01-.1.28A8.37 8.37 0 00175 2v1h3.13V2a10.33 10.33 0 00-.09-1.66 8.15 8.15 0 01.84.07c.11 0 .16.05.16.1a1.15 1.15 0 01-.1.28 8.37 8.37 0 000 1.21v1h2.48c.07 0 .1 0 .1.1v.55c0 .07 0 .1-.1.1h-2.48v2.81h3.08c.07 0 .1 0 .1.09zm-6.66 1.12s-.05.11-.16.17a2.41 2.41 0 00-.31.32 9.82 9.82 0 01-3 2.33l-.19.06s-.1-.06-.19-.17a1.5 1.5 0 00-.41-.39 8.79 8.79 0 002.92-2 2.49 2.49 0 00.52-.8 4.65 4.65 0 01.68.33c.1.05.14.1.14.15zm2.71-1.75V3.69H175v2.87zm3.79 4a2 2 0 00-.4.46c-.09.14-.15.2-.19.2a.33.33 0 01-.16-.07 11.27 11.27 0 01-3.4-2.8.18.18 0 010-.08l.12-.1.37-.23h.09a.14.14 0 01.09 0A10.77 10.77 0 00180 9.48a9.2 9.2 0 001.94 1.07zM194.17 6.29a2.68 2.68 0 01-.53 1.15 1 1 0 01-.77.29c-.56 0-1.14-.45-1.74-1.36a7.62 7.62 0 01-1.4 1.24.55.55 0 01-.2.1.34.34 0 01-.2-.12 1.1 1.1 0 00-.36-.25 7.64 7.64 0 001.82-1.54 11.42 11.42 0 01-1-3.65H185v1.11a13.13 13.13 0 01-.09 1.34c-.05.51-.11.89-.16 1.14a6.56 6.56 0 01-.94 2.15c-.07.1-.11.15-.14.15s-.09 0-.19-.13a1.31 1.31 0 00-.45-.26 5.56 5.56 0 001-2 12.19 12.19 0 00.27-2.79V1.55c0-.07 0-.1.1-.1h5.42v-.5a5.46 5.46 0 00-.12-.91c.28 0 .54 0 .78.08s.14.05.14.11a.59.59 0 010 .21.74.74 0 000 .3v.74H193.8c.06 0 .09 0 .09.1v.49a.08.08 0 01-.09.09h-3.3a11.6 11.6 0 00.74 3 6.57 6.57 0 00.76-1.44 3.08 3.08 0 00.18-.74 4.16 4.16 0 01.62.23c.09 0 .13.08.13.13a.37.37 0 01-.09.16 1.14 1.14 0 00-.17.33 10.6 10.6 0 01-1 2 3.61 3.61 0 00.73.9.94.94 0 00.56.3c.22 0 .38-.14.5-.41a6.56 6.56 0 00.26-1 1.48 1.48 0 00.37.31c.13.08.2.14.2.21a.86.86 0 01-.12.15zm-9 2.27a6.69 6.69 0 01-1.35 2.22c0 .05-.07.07-.08.07a.33.33 0 01-.14-.07l-.32-.22c-.08-.07-.12-.11-.12-.14v-.07a5.47 5.47 0 001.29-2q0-.09.09-.09a.33.33 0 01.14 0l.33.13c.09 0 .13.08.13.11a.13.13 0 01.06.06zm4.05-5c0 .06 0 .1-.09.1H185.52c-.05 0-.08 0-.08-.1v-.47c0-.07 0-.11.08-.11h3.65c.06 0 .09 0 .09.11zM189 6.82c0 .07 0 .1-.1.1h-3.13c-.06 0-.09 0-.09-.1V4.51c0-.06 0-.1.09-.1H188.9a.09.09 0 01.1.1V6zm2.54 2.9a1.42 1.42 0 01-.69 1.21 7.26 7.26 0 01-2.33.23 9.12 9.12 0 01-1.83-.11.73.73 0 01-.56-.81V9a7.35 7.35 0 00-.05-1 4.65 4.65 0 01.75.08c.09 0 .13.05.13.11a.38.38 0 010 .16 1.68 1.68 0 00-.06.55v1c0 .29.11.45.31.49a7.16 7.16 0 001.35.09 5.54 5.54 0 001.9-.2c.25-.14.4-.52.44-1.15a1.87 1.87 0 00.49.25c.14 0 .21.11.21.19a.72.72 0 01-.07.15zm-3.17-3.4V5h-2.08v1.3zm1.33 2.54a.15.15 0 010 .06s0 .07-.12.13l-.29.2a.36.36 0 01-.15.08.09.09 0 01-.08-.06A7.21 7.21 0 00187.87 8a.08.08 0 01-.05-.07s0-.06.11-.11l.25-.18a.42.42 0 01.13-.07.17.17 0 01.11.06 7.18 7.18 0 011.27 1.23zM192.75 1s.05.05.05.07 0 .06-.1.12l-.22.19c-.08.06-.13.1-.16.1s0 0-.08-.06a5.66 5.66 0 00-1.11-.92s-.06 0-.06-.07 0-.07.09-.12l.27-.19a.19.19 0 01.1 0h.07a5.51 5.51 0 011.15.88zm1.18 9.12a.19.19 0 010 .08s0 .07-.11.11l-.36.19a.33.33 0 01-.14.05.12.12 0 01-.09-.06 8.91 8.91 0 00-1.35-2 .13.13 0 010-.07l.12-.1.3-.18.12-.05s.06 0 .11.06a9.16 9.16 0 011.4 1.98zM196.43 1.05v1.31l-.72 1.69h-.56l.64-1.69h-.71V1.05zm2.07 0v1.31l-.71 1.69h-.56l.64-1.69h-.7V1.05zM202.94.57a5.71 5.71 0 011 .12.16.16 0 01.15.16.82.82 0 010 .18 1.3 1.3 0 000 .26c0 .25 0 .52.07.8a17.35 17.35 0 00.49 2.65c1.18-.58 1.92-1 2.23-1.13a2.22 2.22 0 00.72-.58 5.35 5.35 0 01.64.71.25.25 0 01.05.16c0 .11-.06.17-.2.19a4.59 4.59 0 00-1.1.4c-1.25.58-2.19 1-2.84 1.42a5.1 5.1 0 00-1.46 1.16 1.79 1.79 0 00-.39 1.11 1.15 1.15 0 00.87 1.15 6.65 6.65 0 002.07.22 23.92 23.92 0 003.21-.26h.05q.1 0 .12.12a4 4 0 01.08.65c0 .09-.06.14-.17.14a29.75 29.75 0 01-3.33.18 5.75 5.75 0 01-2.8-.52 1.78 1.78 0 01-.92-1.67 2.58 2.58 0 01.7-1.73 7.59 7.59 0 011.73-1.36 20.31 20.31 0 01-.66-3.32 5.47 5.47 0 00-.31-1.21zM213 1.05v1.31l-.72 1.69h-.56l.64-1.69h-.71V1.05zm2.07 0v1.31l-.71 1.69h-.56l.64-1.69h-.71V1.05zM227.87 2.42c0 .06 0 .09-.1.09H219v1.7a24.15 24.15 0 01-.22 3.57 8.87 8.87 0 01-1 3.19c0 .1-.09.15-.13.15s-.08 0-.16-.12a1.72 1.72 0 00-.48-.37 8 8 0 00.99-3.14 24.33 24.33 0 00.18-3.39V1.87c0-.06 0-.09.11-.09h4.25V1a6.33 6.33 0 00-.07-1 7.56 7.56 0 01.82.06c.1 0 .15.05.15.1a.58.58 0 01-.08.24 1.92 1.92 0 00-.06.6v.8h4.44c.07 0 .1 0 .1.09zm-6.93 3.94a11.84 11.84 0 01-1.09 3.36s0 .06-.08.06l-.14-.06-.37-.19c-.09 0-.13-.08-.13-.11a.13.13 0 010-.07 9.64 9.64 0 001.07-3.17q0-.09.06-.09h.15l.36.09c.1 0 .15.06.15.11a.08.08 0 01.02.07zM226.25 9a4.08 4.08 0 01-.24 1.28 1.21 1.21 0 01-.39.49 3.19 3.19 0 01-1.7.31 3.31 3.31 0 01-1.76-.3 1.34 1.34 0 01-.3-1V6.92a13.05 13.05 0 00-.08-1.6 7.11 7.11 0 01.81.09c.11 0 .17.07.17.11a.63.63 0 01-.09.25A4.74 4.74 0 00222.6 7v2.33a4.43 4.43 0 000 .66.46.46 0 00.18.28 2.3 2.3 0 001.15.16 2.11 2.11 0 001.2-.24 1 1 0 00.31-.61 7.56 7.56 0 00.1-1.11 1.79 1.79 0 00.5.25c.13 0 .2.11.2.17a.88.88 0 01.01.11zm-1.31-4.31s.06 0 .06.07a.56.56 0 01-.08.14l-.26.32c-.08.09-.13.14-.15.14h-.06a12.19 12.19 0 00-2.35-1.68l.1-.15.23-.29c.06-.06.1-.1.13-.1a.13.13 0 01.07 0 12.51 12.51 0 012.31 1.58zm3.13 4.44v.06c0 .06-.06.08-.17.13l-.34.16-.16.07-.06-.09a13.35 13.35 0 00-1.27-3.23.25.25 0 010-.07s.05-.06.14-.1l.32-.14.13-.06.07.06a13.67 13.67 0 011.34 3.24zM232.35 3.28a.1.1 0 01-.11.11h-1.12v2.52a11.76 11.76 0 001.11-.5 4.12 4.12 0 000 .51.56.56 0 010 .24.36.36 0 01-.16.1c-.15.08-.44.21-.89.4V10a1.85 1.85 0 01-.09.67.66.66 0 01-.24.32 2 2 0 01-1.13.22h-.17c-.12 0-.2 0-.24-.05a.47.47 0 01-.07-.21 1.76 1.76 0 00-.22-.53 7.31 7.31 0 001 0 .37.37 0 00.34-.13.71.71 0 00.09-.41V7l-.64.23a1.63 1.63 0 00-.48.26.21.21 0 01-.15.07.13.13 0 01-.18-.16 7.5 7.5 0 01-.22-.73 8.4 8.4 0 001.12-.3l.25-.08.25-.09V3.36H228.89a.1.1 0 01-.1-.11v-.49a.09.09 0 01.1-.1H230.36v-1a10 10 0 00-.09-1.51 5.57 5.57 0 01.8.07c.11 0 .16 0 .16.09a.63.63 0 01-.07.25 3.89 3.89 0 00-.08 1.08v1h1.12c.07 0 .11 0 .11.1zm7.79 7.47a1.25 1.25 0 00-.31.45c-.05.14-.11.21-.17.21h-.18a9.78 9.78 0 01-2.94-1.41 9.33 9.33 0 01-2.81 1.38.54.54 0 01-.18 0c-.06 0-.12-.06-.19-.18a1.14 1.14 0 00-.32-.37 8.77 8.77 0 003-1.3 7 7 0 01-1.44-1.68 8.8 8.8 0 01-2.43 3.19.46.46 0 01-.17.1s-.1 0-.16-.14a1.84 1.84 0 00-.38-.35 7.94 7.94 0 003-4.65h-1.72c-.06 0-.08 0-.08-.1v-.46c0-.06 0-.09.08-.09H234.6a7.14 7.14 0 00.12-1H232.92c-.07 0-.11 0-.11-.1v-.41c0-.07 0-.1.11-.1h4.39a10.59 10.59 0 00.77-1.59 2.67 2.67 0 00.17-.64c.23.05.46.12.72.2.07 0 .11.07.11.14A.22.22 0 01239 2a.67.67 0 00-.17.24c-.27.59-.53 1.09-.77 1.5h1.64c.07 0 .1 0 .1.1v.44c0 .07 0 .1-.1.1h-4.25c0 .45-.09.78-.14 1H239.87c.07 0 .11 0 .11.09v.49c0 .07 0 .1-.11.1h-4.71a9.34 9.34 0 01-.26 1h3.1a.58.58 0 00.25 0 .27.27 0 01.13 0c.08 0 .19.07.32.23a.68.68 0 01.2.33s0 .1-.11.14a1.22 1.22 0 00-.33.38 8.32 8.32 0 01-1.34 1.58 11 11 0 003.02 1.03zm-.73-10c0 .08-.07.11-.21.11l-.45.08a37.34 37.34 0 01-5.48.62h-.1a.22.22 0 01-.16-.05.67.67 0 01-.1-.18 2.25 2.25 0 00-.26-.43 28.52 28.52 0 005.49-.55 2.56 2.56 0 00.63-.21 2.79 2.79 0 01.55.44.24.24 0 01.09.13zm-4.71 2.4v.06s-.05.06-.14.1l-.32.14a.47.47 0 01-.14 0s-.05 0-.07-.08a5 5 0 00-.6-1.23.13.13 0 010-.07s.05-.07.14-.11l.28-.11a.38.38 0 01.14 0s.05 0 .08.07a5.66 5.66 0 01.63 1.19zm3.16 4.44H235a6.34 6.34 0 001.51 1.62 5.46 5.46 0 001.35-1.66zM236.68 3a.26.26 0 010 .07s0 .08-.12.11l-.3.11-.16.05s-.06 0-.07-.09A6.09 6.09 0 00235.5 2a.39.39 0 010-.06s.05-.06.14-.1l.25-.11h.14a.12.12 0 01.09.06 5.84 5.84 0 01.56 1.21zM242.4 1.05v1.31l-.72 1.69h-.56l.64-1.69h-.71V1.05zm2.07 0v1.31l-.71 1.69h-.56l.64-1.69h-.7V1.05zM252.75.42a3.81 3.81 0 01.93.28.15.15 0 01.1.14.17.17 0 01-.08.13 2 2 0 00-.22.35c-.1.2-.24.52-.42 1a23 23 0 002.63-.41h.09s.05 0 .07.07c.05.34.07.52.07.55s-.06.13-.17.15c-.92.16-1.94.3-3 .41a10.9 10.9 0 01-1.28 1.86 2.63 2.63 0 011.53-.58 1.43 1.43 0 011.57 1.46c.78-.34 1.42-.64 1.95-.89a3.65 3.65 0 001-.64 2.36 2.36 0 01.61.72.34.34 0 01.05.14c0 .08-.06.13-.17.15a3.39 3.39 0 00-.69.2l-1.42.58-1.23.5v2.1a.14.14 0 01-.13.15 3.12 3.12 0 01-.55.05c-.07 0-.11-.05-.11-.16v-1.8c-1.37.69-2.05 1.38-2.05 2.08a.86.86 0 00.59.83 4.33 4.33 0 001.54.21 24.17 24.17 0 003-.25c.05 0 .08 0 .1.09a3.15 3.15 0 01.07.61c0 .1 0 .15-.09.17a24.1 24.1 0 01-3.1.18c-1.92 0-2.89-.6-2.89-1.79a2.16 2.16 0 01.7-1.56 7.53 7.53 0 012.07-1.35 1.39 1.39 0 00-.29-1 1.06 1.06 0 00-.76-.22 3.46 3.46 0 00-2.05 1c-.25.24-.65.64-1.19 1.22 0 0-.07.07-.1.07a.12.12 0 01-.08 0 2.91 2.91 0 01-.44-.49.23.23 0 010-.09.14.14 0 01.05-.09 13.4 13.4 0 002.9-3.47h-2.35c-.07 0-.12 0-.13-.13a4.9 4.9 0 01-.07-.62H252.21c.22-.57.37-1 .44-1.25a2.13 2.13 0 00.11-.59z"/><path d="M291.38 25.94h-.77c-1.44 0-2 .44-3.23 1.86l-.86 3.7-2.32-4.28c-1.18-1.41-2.37-2.65-3.8-2.65h-.77a3.84 3.84 0 00-3.25 3.58v1.06c.3 3.18 1.86 6.09 12.13 11.38 0-4.46 5.37-6.71 5.66-9.89v-1.06c-.24-2.53-1.79-3.64-2.79-3.7z" fill="#fff"/></g></g></svg>