<svg xmlns="http://www.w3.org/2000/svg" viewBox="0 0 357.97 95.49"><defs><linearGradient id="名称未設定グラデーション_2" x1="323.53" y1="-12538.04" x2="356.07" y2="-12505.5" gradientTransform="matrix(1 0 0 -1 0 -12445.01)" gradientUnits="userSpaceOnUse"><stop offset=".1" stop-color="#e13b56"/><stop offset=".35" stop-color="#ea9f16"/><stop offset=".7" stop-color="#39ac36"/><stop offset=".85" stop-color="#3ba280"/><stop offset=".95" stop-color="#3a97b3"/></linearGradient><style>.cls-1{fill:#4b191a}.cls-2{fill:#e13b56}.cls-3{fill:#39ac36}.cls-4{fill:#3a97b3}.cls-5{fill:#ea9f16}.cls-7{fill:#4a1819}.cls-8{fill:#e23b56}.cls-9{fill:#3a98b4}</style></defs><g id="レイヤー_2" data-name="レイヤー 2"><g id="header"><g id="レイヤー_2-2" data-name="レイヤー 2"><g id="_1242_2208px_-_1" data-name="1242 2208px - 1"><path class="cls-1" d="M26.52 86.72c-.44.49-.84 1-1.24 1.41s-1.14.53-1.63.93a12.67 12.67 0 01-1.4 1.14 11.34 11.34 0 01-1.72.75c-.54.22-1 .62-1.64.84a10.42 10.42 0 01-1.76.39 11.48 11.48 0 01-1.85.18c-.57 0-1.19.49-1.81.49-.08 0-.22.13-.3.13a10.27 10.27 0 01-1.77-.49c-.57-.09-1.23.31-1.8.18a12 12 0 01-1.77-.44 10.86 10.86 0 01-1.63-.65 11.13 11.13 0 01-1.63-.79c-.48-.27-.65-1.11-1.14-1.46s-1.15-.44-1.59-.83S1.36 87.39 1 87l-.31.22A2.83 2.83 0 010 85.28c.05-.62.84-1 1.37-1.36S2.38 83 3 83a2.7 2.7 0 011.67 1 11 11 0 001.11 1.67c.48.4 1.36.27 1.94.57s1 .88 1.63 1.06a8.13 8.13 0 001.9.26 9 9 0 001.94-.13c.65 0 1.24.27 1.81.23s1.23-.14 1.8-.23a13 13 0 001.72-.61A11.55 11.55 0 0020 85.81a8.31 8.31 0 001.49-1c.45-.4 1.15-.58 1.59-1.06s.75-1.3 1.41-1.37 1.15.57 1.68 1.06 1.19.88 1.23 1.5a3.14 3.14 0 01-.88 1.78zM22.51 66c-.4.75-.48.7-.93 1.46s-.44.73-.84 1.46-.4.8-.8 1.55-.22.84-.65 1.58-.44.75-.83 1.5a2.78 2.78 0 01-2.2 1.5c-.4 0-.71-.53-1.11-.71a2.21 2.21 0 01-1-1.36 2.27 2.27 0 01.09-1.77c.4-.64.35-.64.7-1.29s.44-.65.79-1.24.65-.65.76-1.4c-.62 0-1.42 0-2.07.08s-1.24.14-1.9.18-1.3-.26-1.94-.22-1.24 0-1.9.09-1.23.22-1.89.26-1.2.53-1.86.65a3.14 3.14 0 01-1.93-.7 2.81 2.81 0 01-.88-1.76 2.66 2.66 0 01.44-1.94 2.81 2.81 0 011.81-.8c.64 0 1.23.13 1.85.09s1.16-.71 1.78-.75 1.23-.13 1.85-.17l1.86-.09c.62-.05 1.29.22 1.85.22s1.23.13 1.84.13 1.24-.44 1.85-.44 1.11.26 1.63.26 1.15-.22 1.68-.17a2.8 2.8 0 012.25 1.36 2.51 2.51 0 01-.3 2.44zM70.9 77.56a2.17 2.17 0 01-1.59.74c-.79.09-.75.53-1.54.58s-.8 0-1.64 0-.79-.48-1.63-.4a3.25 3.25 0 00-1.54.65c-.79 0-.75.09-1.54.18-.13.09-.09.13-.17.17a8.5 8.5 0 00-1.72.89 12.51 12.51 0 00-1.46 1.36 10.15 10.15 0 00-.92 1.72 8.23 8.23 0 00-1 1.71c-.09.36.22.71.22 1 0 .65-.35 1.3 0 1.71a4.77 4.77 0 001.49.84c.44.18 1-.13 1.5 0s.88.82 1.37.82c.65 0 1.23-.57 1.85-.75a7.45 7.45 0 001.76-.65 3.07 3.07 0 012.07 0 2.69 2.69 0 011.37 1.41 2.47 2.47 0 01-.13 1.85c-.22.62-.44 1.41-1.06 1.68a12.74 12.74 0 01-2 .53 15.61 15.61 0 01-1.89.65 18.25 18.25 0 01-2-.27c-.53 0-1.1.22-1.67.18a10.21 10.21 0 01-1.59-.36 12.6 12.6 0 01-1.58-.44c-.49-.17-.89-1-1.37-1.29a7.42 7.42 0 01-1.49-.91 8.72 8.72 0 01-1.15-1.36 9.22 9.22 0 01-.79-1.72 8.86 8.86 0 01-.18-1.85c0-.76.65-1.5.84-2.26.13-.52 0-1.18.13-1.67a9.79 9.79 0 011-1.41c.26-.44.57-1 .88-1.45-.88-.22-.92.3-1.8.35s-.93-.22-1.85-.18-.89.13-1.81.22-.93-.22-1.81-.13c-.09 0-.09.09-.17.09a2 2 0 01-1.2-.4c-.39-.26-1-.39-1.14-.88a2.56 2.56 0 010-1.5 2.23 2.23 0 01.93-1.08l1.3-1.15c.65-.57.75-.44 1.41-1s.22-1.06.88-1.59l1.3-1.06c.64-.57.79-.39 1.45-.92s.62-.53 1.3-1.1a5.28 5.28 0 001.1-1.3c.65-.53.79-.39 1.41-.93s1.72-.17 1.41-1-.83.09-1.67.09-.88-.31-1.72-.31-.84.39-1.68.39a2.29 2.29 0 01-1.72-.84 2.62 2.62 0 01-.8-1.68 2.26 2.26 0 01.81-1.53c.43-.45.93-1 1.58-1 .84 0 .84.09 1.72 0s.84.17 1.72.17.84.14 1.72.09.84-.31 1.67-.31h1.72c.85 0 .88-.22 1.72-.26s.83 0 1.72 0c.48-.05.92.48 1.29.79a2 2 0 01.89 1.1 2.12 2.12 0 01-.09 1.42c-.13.45.09 1.24-.31 1.55-.71.57-.71.57-1.41 1.19l-1.41 1.15c-.71.57-1 .22-1.72.79s-.53.83-1.19 1.41-1 .31-1.67.88-.62.71-1.3 1.3-.53.79-1.23 1.36-1.77.18-1.5 1.06.88.22 1.72.18.83-.65 1.67-.76.88.32 1.72.27.88.18 1.76.09.84 0 1.67 0 .89-.14 1.72-.22.84-.32 1.68-.4.83-.31 1.72-.36.88.54 1.72.44 1.5-.3 1.94.1a3.16 3.16 0 01.89 1.89c.12.58-.5 1.15-.89 1.64zM111.08 68.79a2.52 2.52 0 01-1.8.75l-1.72.18c-.88.09-.88-.22-1.76-.13s-.84.13-1.72.17-.84.44-1.72.53-.88-.22-1.72-.18a6.16 6.16 0 00-1.76.22c-.22.54-.65 1-.92 1.59s-.14 1.19-.36 1.72-.79 1-1 1.5-.13 1.19-.35 1.76-.36 1.1-.58 1.63-.62 1-.84 1.54-.08 1.24-.26 1.77-.8 1-1 1.49-.27 1.2-.4 1.72-.17 1.2-.3 1.72a14.63 14.63 0 00-.65 1.68 2.19 2.19 0 01-.62 1.4 2.25 2.25 0 01-1.54.71c-.13 0-.31.14-.44.09-.65-.09-.93-.84-1.3-1.37a1.88 1.88 0 01-.53-1.63c.09-.53 0-1.15.18-1.76s.4-1.1.57-1.68 0-1.23.13-1.8.62-1 .8-1.59.48-1.1.7-1.67.22-1.15.44-1.72.71-1 .93-1.54.26-1.15.49-1.72.13-1.19.35-1.77a13.47 13.47 0 00.83-1.29c-.61-.22-.57.13-1.23.17-.09 0-.18.09-.22.09a3.24 3.24 0 01-1.9-.75 2.86 2.86 0 01-.61-1.85c0-.65.44-1.1.88-1.59s.75-1.06 1.41-1.1c1-.09 1-.18 2.07-.26a8.54 8.54 0 002-.18c.22-.53.71-.75 1-1.24s.35-1.06.57-1.54a12.56 12.56 0 01.93-1.36 2.16 2.16 0 011.23-1.3 2.3 2.3 0 011.76.17 2.14 2.14 0 011.19 1.37 2.31 2.31 0 01-.26 1.76c-.27.53-.49 1.46-.75 2.08.88.22 1-.4 2-.49s.92-.22 1.85-.31 1 .4 2 .31.93-.31 1.85-.4a2.07 2.07 0 012.57 1.43 2 2 0 01.08.77 2.79 2.79 0 01-.55 1.9zm4.4 23.75c-.44.4-1.18.44-1.67.75a10.25 10.25 0 01-1.45 1.1c-.57.27-1.3.09-1.85.22a12.78 12.78 0 01-1.68.57 12.22 12.22 0 01-1.81.31c-.61 0-1.19-.44-1.8-.48a15.11 15.11 0 01-1.9-.09 12.16 12.16 0 01-1.58-1c-.58-.27-1.3-.22-1.81-.65l.09-.13a2.28 2.28 0 01-.65-1.67c-.09-.65-.26-1.3.18-1.82a2.34 2.34 0 011.66-.77 2.63 2.63 0 011.94.13 5.53 5.53 0 001.76 1.19 8.71 8.71 0 003.9-.09 5.36 5.36 0 001.63-.7c.57-.27 1.29-.22 1.76-.65a2.59 2.59 0 011.68-.84 2.53 2.53 0 011.6 1 2.14 2.14 0 01.36 1.72c-.04.62.16 1.46-.36 1.9zM113.81 79a2.93 2.93 0 01-1.67 1c-.93 0-1-.3-1.9-.26s-1 .39-1.89.44-1-.4-1.95-.35-.92.09-1.9.17-.92.18-1.89.22h-.1a2.13 2.13 0 01-1.55-.79 1.8 1.8 0 01-.13-3.17c.4-.44.88-1.15 1.55-1.15 1-.09 1 .4 1.94.36s.93-.54 1.86-.58 1 .49 1.95.44.92-.33 1.87-.33 1 .22 1.9.13c.7 0 1.41-.13 1.85.27s.35 1.14.4 1.8a2.37 2.37 0 01-.35 1.76zm2.91-8.37a1.41 1.41 0 01-.53 1.11 1.55 1.55 0 01-1.15.57s-.13.39-.17.39a2.36 2.36 0 01-1.41-.83 2.31 2.31 0 01-.57-1.5c0-.57.39-1.19.44-1.81s-.31-1.29-.27-1.89.22-1.24.22-1.86.48-.92.84-1.3.7-1 1.3-1 1 .53 1.36.88a1.77 1.77 0 01.4 1.36c0 .65-.09 1.3-.13 2s.26 1.37.22 2a18.62 18.62 0 01-.55 1.9zm6.08-4.4c0 .65.48 1.36.45 2s-.76 1.29-.8 1.94.13 1.06-.22 1.37a2.23 2.23 0 01-1.37.75s-.13.09-.17.09c-.53 0-.84-.75-1.15-1.15s-.79-.75-.75-1.3.31-1.23.35-1.89-.22-1.23-.17-1.9.13-1.29.13-1.89h-.1a2.28 2.28 0 012.07-2.07c.53 0 .84.57 1.19.93s1 .65 1 1.14c0 .71-.47 1.35-.47 2zM160.44 69a2.7 2.7 0 01-1.8.84 13.52 13.52 0 00-1.42.22 2.07 2.07 0 01-.92.44c-.57.18-1.1.4-1.59.57a13.25 13.25 0 00-1.58.75 14.46 14.46 0 00-1.59.75c-.48.4-.57 1.06-.92 1.5a5.78 5.78 0 00-1 1.54 6.42 6.42 0 00-.8 1.72 12.65 12.65 0 00-.22 1.95c0 .39.35.83.4 1.29 0 .8-.18 1.59.08 2.07s1.19.71 1.77 1.11a4.78 4.78 0 001.41.88 8 8 0 001.59.53 11.61 11.61 0 001.67 0c.7.09 1.1.79 1.49 1.3a2.19 2.19 0 01.76 1.67 1.95 1.95 0 01-2.52 2s-.17.39-.26.39c-.65-.08-1.23-.35-1.85-.48s-1.15-.57-1.77-.75-1.36.09-1.94-.17-.8-1.11-1.3-1.46-1.23-.22-1.63-.61a8.62 8.62 0 01-1.19-1.3 10.34 10.34 0 01-.53-1.63 11.42 11.42 0 01-.36-1.64 11.07 11.07 0 01-.22-1.62c0-.58-.3-1.11-.3-1.63s0-1.24.09-1.81a12.18 12.18 0 01.17-1.81 11.91 11.91 0 01.65-1.72c.22-.57.44-1.14.7-1.67s1-.75 1.42-1.23c0-.1-.14-.23 0-.32a11.1 11.1 0 00-1.63 0c-.53 0-1.14-.31-1.72-.27s-1.14.31-1.67.31c-1 .1-1.67.23-1.67.23-.85.09-.85-.27-1.68-.23s-.84.23-1.68.32-.84.13-1.63.21-.88-.13-1.72 0c0 0-.08.09-.13.09a2.16 2.16 0 01-1.54-.65 2 2 0 01-.65-1.5c0-.65-.18-1.37.27-1.81a2.41 2.41 0 011.76-.61c.88 0 .65-.09 1.8-.18h1.77c.66 0 1.14-.65 1.76-.71s1.19 0 1.81 0 1.23.27 1.85.23 1.19 0 1.81-.09 1.19 0 1.8 0 1.15-.44 1.77-.49 1.23.09 1.8 0 1.19-.44 1.77-.49 1.3.22 1.8.18c.71 0 1.3-.13 1.81-.18h1.81c.89 0 .88-.39 1.76-.44a2.51 2.51 0 011.8.71 2.36 2.36 0 01.84 1.67 2.62 2.62 0 01-.56 2.03zM201.87 79.63c-.09.57-.18 1.14-.31 1.72a10.67 10.67 0 01-.49 1.67 11.08 11.08 0 01-.87 1.54 13.72 13.72 0 01-.89 1.54 10 10 0 01-1.31 1.15 10 10 0 01-1.3 1.14 11 11 0 01-1.55.65c-.52.27-1 .49-1.53.71s-1 .71-1.5.84-1.15.26-1.72.35-1.15-.31-1.68-.31v-.09c-.62 0-1.19 0-1.81-.08a11.5 11.5 0 01-1.76-.14c-.57-.13-1.14 0-1.77-.17a2.67 2.67 0 01-1.71.74c-.65 0-1.15-.57-1.59-1a2.31 2.31 0 01-1-1.58c0-.89.17-.71.17-1.77 0-.49-.08-1.1-.08-1.72s.3-1.14.3-1.76.05-1.15.05-1.76-.05-1.15-.05-1.72-.22-1.19-.22-1.76.31-1.19.31-1.77-.48-1.23-.48-1.72c0-1-.09-.88-.09-1.76v-1.71-1.77c0-.88.57-.88.57-1.72 0-.61-.22-1.23.13-1.67a2.56 2.56 0 011.55-.93c.65-.13 1.3 0 1.94-.09s1.24-.53 1.85-.53 1.3.14 2 .14 1.15.39 1.72.44 1.2-.27 1.81-.18a17.25 17.25 0 011.68.49 11.26 11.26 0 011.72.39c.52.22 1.09.49 1.58.75a12.64 12.64 0 011.68.75c.44.35.7 1 1.14 1.37s.53 1.06.88 1.5a15.94 15.94 0 011.1 1.36 13.31 13.31 0 011 1.45 11.29 11.29 0 01.31 1.72 12.36 12.36 0 01.45 1.67 11.49 11.49 0 01.13 1.76h-.09.27-.22.26c-.01.72-.53 1.24-.58 1.87zm-4.67-1.81h-.18c0-.62.44-1.3.31-2a10.61 10.61 0 00-.92-1.77 7.75 7.75 0 00-1-1.58 9.17 9.17 0 00-1.14-1.63 14.09 14.09 0 00-1.77-.8 12.43 12.43 0 00-1.8-.44 13.43 13.43 0 00-1.85-.44 14.44 14.44 0 00-1.86 0c-.48 0-1-.13-1.45-.13s-1.11.39-1.59.44a4.74 4.74 0 00-.13 1.76V74.76c0 .89.09.83.09 1.72s.44.88.44 1.76-.53.84-.53 1.72.09.88.09 1.76a9.94 9.94 0 00.18 1.72c0 .88-.35.93-.13 1.76.52.18 1.14.13 1.63.26a9.33 9.33 0 001.54.32c.53 0 1 .39 1.54.39a14.11 14.11 0 001.95 0 12.62 12.62 0 001.76-.89 8.54 8.54 0 001.85-.61 7.51 7.51 0 001.46-1.3 11 11 0 00.64-1.77 12.08 12.08 0 00.58-1.76 9.69 9.69 0 00.53-1.85s-.26 0-.26-.1zM237.87 89.06c-.22.57-.44 1.36-1.06 1.63a2.78 2.78 0 01-2-.27 2.17 2.17 0 01-1.1-1.36c-.31-.71-.65-.53-.93-1.24s-.48-.65-.79-1.3.26-1-.22-1.62a2.88 2.88 0 01-1.19.35c-.92 0-.92.13-1.85.13s-.92-.22-1.85-.22-.88.49-1.8.49-.93-.44-1.86-.44v.44a2.73 2.73 0 01-1.72-.75c-.4-.4-.18-1.11-.18-1.72 0-.13-.17-.22-.17-.35-.35.79-.7.64-1.06 1.45s0 1-.35 1.76-.31.84-.65 1.68-.22.84-.53 1.63l-.26-.09a2.58 2.58 0 01-.84 1.19c-.39.27-.92.13-1.41.13a2.26 2.26 0 01-.88-.27c-.61-.3-1.3-.48-1.54-1a2.56 2.56 0 010-2c.31-.84.7-.53 1.1-1.46.22-.48.44-1 .71-1.63s-.05-1.3.17-1.85c.4-.92.84-.57 1.2-1.36s.17-.93.48-1.72.31-.84.65-1.63.57-.71.92-1.55.09-.92.4-1.72.18-.88.49-1.72.87-.57 1.23-1.36 0-.93.4-1.76.13-.89.48-1.68.75-.65 1-1.5a4 4 0 011-1.76 3.38 3.38 0 012-.65c.7 0 1.1.65 1.58 1s1.19.7 1.42 1.24c.35.83.25.83.61 1.67s.18.88.53 1.67.75.65 1.1 1.46.31.83.65 1.67.3.79.65 1.63.35.8.7 1.64l.71 1.58c.35.79.09.93.44 1.76s.39.8.74 1.59.36.8.71 1.63.18.84.53 1.68.65.65 1 1.45.26.88.57 1.67a2 2 0 01.07 1.76zm-9-9.61c-.3-.79 0-.88-.39-1.67s-.26-.79-.62-1.59-.44-.7-.79-1.5-.13-.84-.49-1.63.14-1.45-.7-1.36-.61.65-1 1.49-.3.88-.65 1.72-.22.93-.57 1.81-.44.79-.79 1.63-.23 1-.58 1.8-.75.71-1 1.64a2.73 2.73 0 011.95-1c.84 0 .84-.22 1.67-.18s.84.58 1.68.58.83-.27 1.68-.27 1.36.8 1.8.09-.79-.77-1.15-1.56zM272.91 68.34c-.53.65-.27.71-.93 1.46-.35.4-.84.75-1.23 1.23s-.57 1.1-.93 1.5c-.62.75-.75.48-1.3 1.15s-.8.44-1.37 1.1l-1.15 1.3c-.57.65-.44.74-1 1.4s-.87.49-1.19 1.3.35 1 .35 2-.35 1-.35 2 .22.92.22 1.89-.31.92-.31 1.9.27.92.27 1.89a2.32 2.32 0 01-.92 1.54 2.12 2.12 0 01-1.55.75 1.79 1.79 0 01-2.2-2.29c0-1-.4-1-.4-2s.44-.92.44-1.89-.08-1-.08-2-.14-1-.14-1.94.27-1 .09-1.95-.53-.65-1.19-1.3c-.35-.39-.65-.93-1.06-1.41s-.88-.8-1.23-1.19c-.65-.71-1-.31-1.54-.93s-.49-.75-1.06-1.36a5.41 5.41 0 01-.88-1.55c-.58-.61-.93-.3-1.5-1s-.49-.71-1.06-1.3l.05-.05a2.3 2.3 0 01-.62-1.8 2.56 2.56 0 01.79-1.67 2.87 2.87 0 011.76-.8 2.61 2.61 0 011.64 1 14.71 14.71 0 001.3 1.14c.64.61.3.93.87 1.54s.75.49 1.37 1.11.75.48 1.3 1.09.48.71 1.1 1.37.53.65 1.14 1.3.32 1 1.11 1.3.22-.76.88-1.5c.3-.4.79-.79 1.19-1.23s1.05-.58 1.45-1 .65-.93 1-1.37.53-1.1.89-1.5c.64-.74.57-.64 1.14-1.23s.62-.65 1.15-1.23a2.32 2.32 0 011.76-.58 2.28 2.28 0 011.77.36 2.75 2.75 0 011.07 1.65c.06.7-.47 1.28-.91 1.8zM305 85.14a11.62 11.62 0 01-.88 1.72 9.9 9.9 0 01-1.19 1.4c-.4.44-1.1.57-1.63.89a10.53 10.53 0 01-1.3 1c-.48.17-1 .39-1.54.53s-1.1-.22-1.67-.18a8.45 8.45 0 01-1.59 0c-.09 0-.18.65-.27.65-.57 0-1.14-.13-1.67-.17s-1.06-.53-1.59-.62-1.23.22-1.76 0-.92-.71-1.41-.93-1.19-.18-1.67-.44-.76-.88-1.2-1.24a2.17 2.17 0 01-.65-1.62c0-.62-.22-1.3.18-1.81a3.2 3.2 0 013.65-.53 6.22 6.22 0 001.37.84 5.77 5.77 0 001.5.61 8.39 8.39 0 001.63.53 15.57 15.57 0 001.67.22c.09 0 .18-.44.22-.44a8.17 8.17 0 001.85 0 7.34 7.34 0 001.81-.35 2.84 2.84 0 001.14-1.53c0-.18.22-.36.22-.49a2.41 2.41 0 00-1.07-1.41 4.25 4.25 0 00-1.54-.75c-.53-.22-1.14-.31-1.81-.53-.52-.13-1-.79-1.67-1a12.34 12.34 0 01-1.9-.4c-.52-.17-1.18-.17-1.85-.44a11.71 11.71 0 01-1.29-.93 6.73 6.73 0 01-1.39-.72 8.33 8.33 0 01-1.19-1.11c-.44-.57-.26-1.45-.48-2.07a7 7 0 01-.36-4.14c.18-.65.89-1 1.2-1.5s.3-1.41.74-1.85 1.3-.4 1.85-.65a10.51 10.51 0 011.55-.44c.52-.18.93-.92 1.45-1a11.61 11.61 0 011.67 0 12.79 12.79 0 011.85-.08c.62.08 1.11.74 1.68.87s1.3-.08 1.89.14a12.11 12.11 0 011.55 1 9.48 9.48 0 011.59 1l-.44.49c.48.44 1.14.84 1.14 1.45a2.39 2.39 0 01-.88 1.68 2.16 2.16 0 01-1.59.83 2.62 2.62 0 01-1.92-.42 7.27 7.27 0 00-1.37-1.1c-.57-.22-1.05-.75-1.63-.88a8.17 8.17 0 00-1.85 0 6 6 0 00-2.38.75c-.7.4-1.06.71-1.19 1.1s-.44.53-.44.75c0 .4.35.71.57 1a4.13 4.13 0 001.67 1c.65.26 1.2.44 1.72.65s1.24.4 1.77.53 1.23.22 1.8.4 1.06.53 1.68.74a8.58 8.58 0 011.63 1 7.8 7.8 0 011.54 1.06c.49.44 1.19.75 1.5 1.23a7.46 7.46 0 01.58 1.9 6.77 6.77 0 01.65 1.85 7.33 7.33 0 01-.25 1.96z"/><circle class="cls-2" cx="3.43" cy="66.29" r="3.11"/><circle class="cls-2" cx="250.36" cy="65.75" r="3.11"/><circle class="cls-3" cx="49.79" cy="63.9" r="3.11"/><circle class="cls-3" cx="301.63" cy="69.65" r="3.11"/><circle class="cls-4" cx="90.02" cy="68.77" r="3.11"/><circle class="cls-4" cx="181.18" cy="67.08" r="3.11"/><circle class="cls-5" cx="132.3" cy="68.89" r="3.11"/><circle class="cls-5" cx="225.68" cy="65.69" r="3.11"/><circle class="cls-4" cx="25.36" cy="84.97" r="3.11"/><circle class="cls-4" cx="261.51" cy="90.05" r="3.11"/><circle class="cls-5" cx="66.53" cy="90.44" r="3.11"/><circle class="cls-5" cx="286.78" cy="86.03" r="3.11"/><circle class="cls-2" cx="114.91" cy="90.26" r="3.11"/><circle class="cls-2" cx="181.6" cy="88.45" r="3.11"/><circle class="cls-3" cx="155.71" cy="87.82" r="3.11"/><circle class="cls-3" cx="215.5" cy="89.44" r="3.11"/><path d="M351.48 58.59h-23.36a6.49 6.49 0 00-6.49 6.49v23.36a6.5 6.5 0 006.49 6.49h23.36a6.5 6.5 0 006.52-6.49V65.08a6.49 6.49 0 00-6.52-6.49zm-.43 18.27c-.35 3.79-6.76 6.48-6.76 11.79-12.25-6.3-14.11-9.78-14.47-13.57v-1.3a4.53 4.53 0 013.89-4.26c.33 0 .65-.06.92-.06 1.72 0 3.13 1.48 4.54 3.16l2.77 5.11 1-4.41c1.41-1.69 2.13-2.22 3.85-2.22a7.32 7.32 0 01.91 0c1.19.12 3.06 1.39 3.34 4.42z" fill="url(#名称未設定グラデーション_2)"/><path class="cls-7" d="M107.5 4.2l1.54.15 1.62-.08a2.71 2.71 0 011.22.26.92.92 0 01.55.87.83.83 0 01-.11.4 1.6 1.6 0 01-.28.35l-.42.45-.42.4a3.49 3.49 0 00-.32.35l-.38.5-.39.51-.34.42c-.12.13-.29.29-.5.5l-.49.47-.27.28a.38.38 0 00-.11.23.52.52 0 00.06.16 1.77 1.77 0 00.16.22l.25.34.23.31c.07.11.13.22.19.33s.12.26.15.34a2.39 2.39 0 00.13.28 2.33 2.33 0 00.17.26l.22.28.24.28a1.75 1.75 0 01.16.27.91.91 0 01.06.36.9.9 0 01-.24.61.8.8 0 01-.61.26.71.71 0 01-.52-.18 2.73 2.73 0 01-.44-.46 5 5 0 01-.39-.52 3.62 3.62 0 01-.22-.4l-.15-.31-.15-.3a2.92 2.92 0 00-.14-.31l-.15-.21-.22-.22-.24-.2-.23-.15a2.12 2.12 0 01-.24-.2l-.22-.19-.21-.2-.21-.21-.21-.18-.24-.16a1.82 1.82 0 00-.27-.15l-.24-.11-.34-.18a1.37 1.37 0 01-.42-.34.75.75 0 01-.16-.5.83.83 0 01.26-.65.92.92 0 01.65-.24 1 1 0 01.3.06l.28.11a2.2 2.2 0 01.28.18l.25.19a1.11 1.11 0 00.29.14l.31.13a1.14 1.14 0 01.23.15 3.07 3.07 0 01.25.26 5.35 5.35 0 01.58-.68l.78-.81c.3-.32.56-.6.76-.85s.42-.5.61-.76h-1.29a3.27 3.27 0 01-.54 0 5.3 5.3 0 01-.55-.1h-4.57a1 1 0 01-.42 0 .75.75 0 01-.35-.16.89.89 0 01-.24-.3.8.8 0 01-.08-.37 1 1 0 01.11-.5 1 1 0 01.35-.31 1.6 1.6 0 011-.09zM123.56 3.72a2.28 2.28 0 01.37 0l.37.08a2.53 2.53 0 01.36.12l.5.18.47.16a1.33 1.33 0 01.35.19.86.86 0 01.29.31.79.79 0 01.11.45.85.85 0 01-.86.85 1.41 1.41 0 01-.35 0l-.37-.12a3.83 3.83 0 01-.48-.16 5 5 0 00-.5-.18l-.42-.13a1.53 1.53 0 01-.37-.16.68.68 0 01-.26-.27.74.74 0 01-.1-.41.91.91 0 01.24-.65 1 1 0 01.65-.26zm8.89 3.08a.84.84 0 01.61.23.8.8 0 01.25.65 1.29 1.29 0 01-.23.69 5.45 5.45 0 01-.57.7c-.23.24-.45.46-.65.65l-.54.5-.46.36-.34.27a2.91 2.91 0 01-.33.26l-.31.25-.31.26-.4.32-.33.24-.35.21-.35.19-.37.17-.46.18a4.81 4.81 0 00-.48.19l-.38.16-.32.13-.42.19c-.18.08-.37.15-.58.22s-.46.15-.74.23a2.58 2.58 0 01-.73.11.82.82 0 01-.65-.28.91.91 0 01-.24-.65 1.08 1.08 0 01.07-.47.67.67 0 01.22-.25.67.67 0 01.3-.13l.48-.1a4.74 4.74 0 00.65-.16l.61-.2a2.3 2.3 0 00.49-.26.91.91 0 01.34-.14 1 1 0 00.34-.09l.53-.21.61-.28a4.08 4.08 0 00.57-.34l.36-.29a3.07 3.07 0 00.29-.24l.3-.26.27-.22a1.46 1.46 0 01.27-.2l.34-.24.34-.27.34-.29c.12-.11.24-.23.35-.35l.34-.37.25-.24h.08a.73.73 0 01.28-.51.87.87 0 01.66-.28zM146.43 3a1 1 0 01.35.06.58.58 0 01.28.21 1.23 1.23 0 01.19.31.59.59 0 010 .37v1.3c.23 0 .59-.07 1.07-.11l1.2-.14 1-.16a9.3 9.3 0 001-.26.63.63 0 01.36 0 1.21 1.21 0 01.3.2 1 1 0 01.2.35 1.34 1.34 0 01.08.48 1.86 1.86 0 010 .33l-.09.32c0 .1-.09.22-.14.37s-.09.25-.13.37l-.1.33c0 .11-.08.23-.11.34a1.7 1.7 0 00-.06.31 1.94 1.94 0 01-.07.33c0 .11-.08.25-.12.41s-.1.29-.12.38a2.17 2.17 0 00-.08.3l-.06.32a3.94 3.94 0 01-.05.4 1.29 1.29 0 01-.06.42.81.81 0 000 .34 3 3 0 01-.06.32 3.31 3.31 0 01-.1.4c0 .16-.08.29-.11.4s-.06.2-.08.3l-.06.31v.33a3 3 0 010 .39c0 .15 0 .29-.05.39a1.74 1.74 0 00-.08.41 1 1 0 01-.32.51.94.94 0 01-.7.24 3.67 3.67 0 01-1.39-.28.93.93 0 01-.64-.88.78.78 0 01.05-.34 1.17 1.17 0 01.19-.3.64.64 0 01.28-.18.82.82 0 01.35 0l.64.17a3.09 3.09 0 010-.43 2.2 2.2 0 01.06-.37 3.19 3.19 0 01.13-.44 2.9 2.9 0 00.12-.42 1.27 1.27 0 01.08-.34c0-.13.06-.27.08-.41a3 3 0 010-.43l.06-.4c0-.14.05-.26.07-.37s.06-.24.09-.37a4.78 4.78 0 01.12-.48c.05-.18.09-.3.11-.39s0-.22.09-.4.08-.33.11-.45.07-.23.11-.35.08-.25.13-.38a6.89 6.89 0 01-.76.1l-.94.08-1 .08a3.28 3.28 0 00-.72.12 8.57 8.57 0 01-.12 1.29 7.21 7.21 0 01-.24 1.14 5.43 5.43 0 01-.49 1.07 12.22 12.22 0 01-.82 1.17 9.68 9.68 0 01-.95 1.07 1.31 1.31 0 01-.8.42.8.8 0 01-.65-.24.89.89 0 01-.24-.61 1 1 0 01.09-.41 1 1 0 01.23-.35 5.29 5.29 0 01.41-.41 5.44 5.44 0 00.48-.48 6.42 6.42 0 00.48-.65 5.31 5.31 0 00.49-.83 4.25 4.25 0 00.28-.92 4.14 4.14 0 00.1-.93l-1.9.43a1 1 0 01-.37-.08 1.15 1.15 0 01-.29-.2.89.89 0 01-.19-.31.87.87 0 01-.06-.32 1.12 1.12 0 01.1-.48.66.66 0 01.28-.27 1.63 1.63 0 01.37-.13l.49-.11.45-.1.32-.07.42-.11.49-.1a6.84 6.84 0 00.05-.79 6.8 6.8 0 01.07-.89 1.1 1.1 0 01.25-.56.76.76 0 01.57-.26zm6.54 1a.76.76 0 01-.38-.41L152 2.44l-.19-.14a.55.55 0 01-.09-.45.64.64 0 01.33-.34h.32a1.3 1.3 0 01.68.72 3.25 3.25 0 01.55 1.47.68.68 0 01-.34.35zm1.6-.45a.73.73 0 01-.41-.48 3.81 3.81 0 00-.44-.85 2.06 2.06 0 01-.34-.89.62.62 0 01.34-.35h.3a.9.9 0 01.45.45 8.68 8.68 0 00.46.85 1.75 1.75 0 01.26.92.64.64 0 01-.34.33zM171.42 3.33a1 1 0 01.34 0 .61.61 0 01.31.18 1.11 1.11 0 01.22.3.82.82 0 01.09.38.59.59 0 01-.07.29.8.8 0 01-.15.21 1.19 1.19 0 01-.23.16l-.27.14-.21.13c-.07 0-.13.07-.2.12l-.2.16-.21.14-.25.18-.26.17-.19.15a2.18 2.18 0 00-.22.21l-.2.2a.82.82 0 00-.17.2l-.17.22-.18.21-.2.22a1 1 0 00-.14.19l-.15.24a3.37 3.37 0 00-.19.32c-.05.11-.1.24-.16.4a5.52 5.52 0 00-.16.54 3.47 3.47 0 00-.11.56 2.63 2.63 0 000 .56 1.84 1.84 0 00.22.92 1.93 1.93 0 00.48.65 4.07 4.07 0 00.52.41l.45.33a1.7 1.7 0 01.29.31.69.69 0 01.12.39.77.77 0 01-.27.61.83.83 0 01-.6.24 1.6 1.6 0 01-1-.39 5.68 5.68 0 01-1-1 4.85 4.85 0 01-.7-1.15 3.4 3.4 0 01-.24-1.26 6.26 6.26 0 01.48-2.42 7.24 7.24 0 011.3-2.1 10 10 0 00-1.24.22l-1.42.27-1.15.19a7.41 7.41 0 01-1 .07.83.83 0 01-.87-.81 1.21 1.21 0 01.09-.53.61.61 0 01.28-.27 1.19 1.19 0 01.42-.11l.54-.06.52-.08a2.48 2.48 0 00.48-.09 2.43 2.43 0 01.47-.08h.42l.42-.08.41-.07a3.16 3.16 0 00.52-.08l.47-.14 3.42-.57zm1.76 0a.8.8 0 01-.38-.41l-.57-1.2-.23-.14a.59.59 0 01-.08-.41.65.65 0 01.35-.34h.3a1.22 1.22 0 01.65.72 3.13 3.13 0 01.56 1.45.57.57 0 01-.34.34zm1.61-.45a.69.69 0 01-.41-.48 4.61 4.61 0 00-.45-.85 2.18 2.18 0 01-.33-.89.63.63 0 01.33-.35h.32a.92.92 0 01.44.45 7.1 7.1 0 00.46.86 1.73 1.73 0 01.26.92.65.65 0 01-.35.34zM187.58 15.88a3.32 3.32 0 01-1.18-.61 1.11 1.11 0 01-.24-.82l.21-.4a.74.74 0 01.65-.24V11h-.28l-.21.07H185c-.52.06-1 .16-1.56.27a8.86 8.86 0 01-1.62.2 1 1 0 01-.58-.24 1 1 0 01-.21-.75l.22-.42c.61-.15 1.2-.27 1.79-.36l1.72-.31h1.57a2 2 0 01.69-.08 1.56 1.56 0 01.26-1 1 1 0 01.75-.22l.39.2a1.13 1.13 0 01.24.83h.34l.9-.13.91-.11h2.51a2 2 0 01.82.3 1 1 0 01.22.76l-.2.39a1.09 1.09 0 01-.89.22l-.17-.07h-2c-.41.07-.82.12-1.24.16l-1.15.1-.06.65v3.75l-.2.39a1.44 1.44 0 01-.87.28zm-5.51-.82a1.06 1.06 0 01-.58-.24 1.12 1.12 0 01-.2-.78l.2-.43 1.3-.4a4.35 4.35 0 001.08-.48v-.06L185 12l.21-.29.13-.16a1.25 1.25 0 011-.3l.39.2a.89.89 0 01.22.82l-.2.43-.31.17-.05.1h-.07l-.07.16-.24.22c-.6.38-1.22.74-1.84 1.08a5.41 5.41 0 01-2.06.66zm.25-6.85a1.27 1.27 0 01-.6-.24 1.08 1.08 0 01-.2-.76l.2-.41 1.37-.8a8.85 8.85 0 011.47-.59l.41.22a1 1 0 01.23.75 1.86 1.86 0 01-.4.6l-1.21.62zm1.3-3.12a11.07 11.07 0 01-1.45-.65.94.94 0 01-.22-.75l.21-.41a1.07 1.07 0 01.81-.19l1.3.58a1 1 0 01.22.77l-.2.39a1.09 1.09 0 01-.71.26zM186 8.48l-.4-.21a1 1 0 01-.25-.58V5.26l-.07-.17V3l-.08-.35a2.85 2.85 0 01.33-.94 9 9 0 01.97-.71 2 2 0 00.74-.77A1.13 1.13 0 01188 0l.39.2a1 1 0 01.23.76l-.47.78v.05h-.2a5.82 5.82 0 011.72-.11l.48.27a4.79 4.79 0 01.2 1.05c0 .36.05.72.05 1.08l-.14 1.4v1.86l-.2.39a.94.94 0 01-.75.22L189 7.8a2.33 2.33 0 01-.86.22 5.88 5.88 0 00-.95.11l-.29-.07-.1.22a1.11 1.11 0 01-.77.2zm.72-4l.11-.18a3.51 3.51 0 011.67-.3l.38.18h-.09l.06-.65-.06-.2h-.07c-.3.06-.6.11-.93.15a6.24 6.24 0 01-.86 0v1l-.11-.1zm1.94 1.91v-.96h.11a3.69 3.69 0 01-1.54.24l-.4-.19.1.07v.94h.46a3.16 3.16 0 011.3-.1zm5 9a7.12 7.12 0 01-1.12-.76l-.32-.27a4.76 4.76 0 01-1.33-.72l-.61-.51V13l-.19-.12-.18-.17a1.28 1.28 0 01-.6-.25 1 1 0 01-.27-.76l.2-.41a1.65 1.65 0 011-.2 2.38 2.38 0 01.65.34l.2.18.11.09.49.42a2.39 2.39 0 00.74.51v.05a3.56 3.56 0 01.8.41l.29.24.45.22.1.21.19.11a1 1 0 01.25.81l-.2.4a1 1 0 01-.74.23zm.11-8c-.39-.15-.76-.3-1.11-.46s-.73-.32-1.12-.48a1 1 0 01-.23-.77l.21-.39a1 1 0 01.83-.23 4.48 4.48 0 011 .39l1 .51a1 1 0 01.25.78l-.2.39a1.15 1.15 0 01-.68.26zm-1.55-3l-.41-.2a1.15 1.15 0 01-.22-.8l.2-.4.65-.6a1.2 1.2 0 011.09-.39l.39.2a1 1 0 01.23.75l-.21.42-.14.05-.46.36-.28.27a1.08 1.08 0 01-.86.27zM205.27 3.53a.92.92 0 01.36.07.86.86 0 01.27.2.79.79 0 01.18.29.74.74 0 010 .36L206 5.64v4.86l.12 1a.54.54 0 01.16.21l.14.3a3.18 3.18 0 00.16.32 1.48 1.48 0 00.26.3 1.35 1.35 0 00.51.25 2.37 2.37 0 00.65.12 3.44 3.44 0 00.64 0 1.79 1.79 0 00.46-.09 2.15 2.15 0 00.32-.13 1.38 1.38 0 00.24-.14l.28-.19a3.62 3.62 0 00.37-.26l.4-.32.38-.32a3.07 3.07 0 00.26-.25 1.16 1.16 0 01.2-.18.58.58 0 01.24-.14 1.34 1.34 0 01.35 0 .85.85 0 01.61.24.88.88 0 01.24.65.73.73 0 01-.12.41 1.69 1.69 0 01-.3.36l-.37.34a4.35 4.35 0 01-.41.34c-.15.1-.32.23-.52.39l-.48.36-.41.26a3.94 3.94 0 01-.55.26 3.1 3.1 0 01-.84.19c-.33 0-.7.05-1.1.05a2 2 0 01-.6-.06l-.64-.18a5.59 5.59 0 01-.61-.26 1.5 1.5 0 01-.4-.25 2.65 2.65 0 01-.24-.25 1.5 1.5 0 01-.18-.24l-.14-.24-.18-.3a2.59 2.59 0 01-.17-.3l-.13-.23c0-.09-.08-.18-.11-.27l-.08-.27a2.51 2.51 0 010-.27V11a.69.69 0 000-.26V5.4a6.54 6.54 0 010-.73 2.62 2.62 0 01.19-.78.74.74 0 01.67-.36zM229.11 2a1 1 0 01.65.23.77.77 0 01.27.65.54.54 0 01-.08.28 2.62 2.62 0 01-.24.34c-.09.12-.19.23-.29.34l-.24.29a5.88 5.88 0 00-.44.65c-.15.22-.29.45-.42.68l-.16.38c-.06.14-.13.28-.2.42s-.24.38-.38.56-.3.39-.45.55l-.34.4c-.09.11-.16.22-.25.34a3.24 3.24 0 00-.21.35 1.39 1.39 0 00-.16.35 5.92 5.92 0 01.7.45c.22.17.44.35.65.54l.59.56c.19.17.49.47.91.9s.8.84 1.12 1.24a5.13 5.13 0 01.85 1.32.64.64 0 01-.07.31 1 1 0 01-.2.28 1.26 1.26 0 01-.28.19.72.72 0 01-.32.08.66.66 0 01-.36-.11 1.49 1.49 0 01-.32-.24 4 4 0 01-.27-.31l-.34-.44a6.44 6.44 0 00-.48-.56l-.5-.5-.44-.46c-.13-.15-.26-.27-.36-.37l-.31-.28-.39-.35a4.92 4.92 0 00-.58-.44 6.37 6.37 0 00-.55-.35l-.48-.24a1.76 1.76 0 01-.42-.24.65.65 0 01-.24-.28 1.08 1.08 0 010-.73 1 1 0 01.12-.29l.19-.24a2.43 2.43 0 00.24-.32l.21-.3.16-.28c.06-.11.12-.22.19-.33l.22-.26c.07-.08.14-.15.2-.23l.24-.29.26-.3a2.83 2.83 0 00.2-.28l.17-.28c.06-.1.1-.19.15-.27s.15-.3.35-.65a7 7 0 01.41-.65c.07-.09.16-.27.27-.46l.34-.65a2.53 2.53 0 01.48-.55 1 1 0 01.63-.15zM248.08 12.65a1.07 1.07 0 01.76.32 1.15 1.15 0 01.34.84 1.45 1.45 0 01-.29.9 1.27 1.27 0 01-1.67.08 1 1 0 01-.27-.74 1.58 1.58 0 01.32-1 1 1 0 01.81-.4zm.12-11a.86.86 0 01.61.25 1 1 0 01.24.7 10.4 10.4 0 01-.05 1.34 6.73 6.73 0 01-.24 1.25l.24 4.44a2.24 2.24 0 01-.05.59 2.36 2.36 0 01-.12.54 1 1 0 01-.26.43.64.64 0 01-.48.16.7.7 0 01-.42-.11.89.89 0 01-.29-.32 1 1 0 01-.16-.4 1 1 0 010-.43v-.48L247 5.19a.94.94 0 010-.37.62.62 0 01.05-.31c0-.1 0-.22.08-.38a2.62 2.62 0 00.06-.36 1.41 1.41 0 000-.29v-.76c0-.14.05-.27.08-.4a.9.9 0 01.93-.67zM47.54 41.69a3.24 3.24 0 01-.93-.51v-.07l-.56-.38-.16-.14-.13-.15a1 1 0 01-.21-.74l.21-.39a.93.93 0 01.83-.22l.36.19.47.39.56.41h.15a4.44 4.44 0 00.75-.75c.13-.42.27-.84.42-1.24a3.6 3.6 0 00.19-1.3l-.23-1.65a13.59 13.59 0 01-3 .64 29.82 29.82 0 01-3.13.16.86.86 0 01-.82-1.06l.2-.39a1.11 1.11 0 01.94-.26.62.62 0 00.42.1 23.47 23.47 0 002.64-.21 14.27 14.27 0 002.42-.51 5.64 5.64 0 00-.42-1.15 6.55 6.55 0 00-.61-1h-.07a1.63 1.63 0 01-.27-.72 1.14 1.14 0 01.24-.59 1 1 0 01.72-.28l.41.2.19.32a1.45 1.45 0 00.7-.35l.76-.74.57-.72v.2h-1.1c-.7.09-1.4.22-2.09.37a7.39 7.39 0 01-2.2.18l-.4-.21a1 1 0 01-.25-.78l.22-.45a18.09 18.09 0 002.31-.33c.74-.15 1.49-.28 2.24-.39h2.33a3.6 3.6 0 01.75.34 1.14 1.14 0 01.23.87 1.71 1.71 0 01-.31.75l-.29.28-.14.29-.15.13-.38.54v.06h-.11l-.09.16-.53.43-.24.24a3 3 0 01-.94.54v-.05a8.75 8.75 0 01.3.86c.09.31.16.57.21.8h1.37a18.09 18.09 0 001.82.19 8.31 8.31 0 011.85.3 1 1 0 01.22.78l-.2.39a1.36 1.36 0 01-.91.25c-.65-.09-1.3-.15-2-.2l-1.8-.12v.08c.07.44.12.87.17 1.3a8.3 8.3 0 010 1.41c-.16.45-.31.9-.44 1.34a4.77 4.77 0 01-.59 1.3l-.1.12c-.23.26-.47.5-.73.76a2.79 2.79 0 01-1.64.38zM63.9 33a1.62 1.62 0 01-.79-.27 1.35 1.35 0 01-.24-.65 2 2 0 01.29-.7h.09v-.07l.15-.17.31-.31.51-.53.5-.5v-.07h-.12c-.6.07-1.22.13-1.85.18s-1.3.11-1.9.2a1 1 0 01-.57-.24 1 1 0 01-.21-.75l.21-.43a10.5 10.5 0 012.72-.43 17.52 17.52 0 002.6-.28 1.91 1.91 0 01-.26-1.07l.2-.4a1 1 0 01.84-.22l.41.2a5.58 5.58 0 00.51 1.3h.7l2-.19c.65-.05 1.34-.08 2.06-.08l.4.2a1.05 1.05 0 01.22.76l-.22.43a22.57 22.57 0 01-2.71.35l-2.6.19a.77.77 0 01-.22.5l-.26.14v.13l-.19.22-.21.22-.27.35-.23.22V31l2-.42v-.3l.2-.41a1.19 1.19 0 01.91-.23l.94.53.17.2.24.28v.06l.6.37.32.27a1 1 0 01.22.79l-.22.4a1 1 0 01-.75.22l-.48-.22-.43-.37-.56-.44h.15v.07l-2.49.64a25.72 25.72 0 01-2.69.56zm.58 9.74l-.41-.2a3.17 3.17 0 01-.24-1.66l.1-.42v-6.18a1.2 1.2 0 01.24-.58 1 1 0 01.74-.21h.5a16.66 16.66 0 001.72-.16c.57-.1 1.15-.18 1.75-.24l.43.2.24.44v4.34l-.1 2.6.07 1.3-.21.41a1.72 1.72 0 01-1 .24 7.58 7.58 0 01-1.42-.72 1 1 0 01-.23-.76l.21-.39a1.18 1.18 0 01.89-.22h.07l.07-1.68h.1v.1a2.47 2.47 0 01-1 .24l-.92.05a1 1 0 01-.6-.27l-.1-.26h.13v1.82a3.58 3.58 0 00-.09.93 2 2 0 01-.22 1 1 1 0 01-.72.29zm.86-4.46v-.08l.18-.27a2.24 2.24 0 011-.26h1.06l.41.21v.1h-.1v-3.12H68c-.41.07-.83.13-1.3.17l-1.18.11V36h-.15l.15-.26a3.13 3.13 0 011.81-.27l.39.21a1 1 0 01.26.87l-.2.37a1 1 0 01-.74.23l-.53-.15a.82.82 0 01-.55.1l-.41-.2-.16-.35h.16v1.74l-.1-.11zM88.37 29.3a.65.65 0 01.31 0 1.17 1.17 0 01.3.19.84.84 0 01.22.3.79.79 0 01.07.37.57.57 0 01-.08.34.82.82 0 01-.2.25 3 3 0 01-.35.23 3.65 3.65 0 01-.34.18 1.82 1.82 0 00-.27.15l-.27.16-.32.23-.26.2a1.81 1.81 0 01-.29.19l-.36.24a3.2 3.2 0 00-.27.22l-.3.29a1.93 1.93 0 00-.35.46c-.13.21-.24.43-.36.65s-.21.45-.3.68l-.22.65a4.64 4.64 0 00-.21 1.43 1.73 1.73 0 00.18.7 2.4 2.4 0 00.46.68 3.61 3.61 0 00.61.5 4.18 4.18 0 00.65.37c.23.11.4.18.51.22a1.37 1.37 0 01.32.16 1 1 0 01.26.27.86.86 0 01.1.41.83.83 0 01-.26.61 1 1 0 01-.65.25 3.82 3.82 0 01-2.6-1.33 4 4 0 01-1.33-2.84 7.7 7.7 0 01.44-2.56 7.05 7.05 0 011.27-2.27l-1.09.17-1.24.2c-.35.05-.69.09-1 .11a8.65 8.65 0 01-.88.05.86.86 0 01-.65-.24 1 1 0 01-.06-1.17.74.74 0 01.49-.29l2.87-.3c.2 0 .6-.12 1.23-.24l1.59-.3c.44-.08.87-.18 1.3-.29s.96-.15 1.33-.28zM102.39 30.5l1.54.15 1.63-.08a2.67 2.67 0 011.21.26.9.9 0 01.54.87.8.8 0 01-.11.4 1.54 1.54 0 01-.27.36l-.43.44-.42.43a2.52 2.52 0 00-.3.35l-.39.49-.39.51c-.11.14-.22.28-.35.42s-.28.3-.49.5l-.49.47-.27.28a.33.33 0 00-.1.23.52.52 0 00.06.16 1.5 1.5 0 00.15.23l.25.33.23.31a2.21 2.21 0 01.18.34 2 2 0 01.16.33 1.43 1.43 0 00.13.28 2.33 2.33 0 00.17.26l.22.28a2.39 2.39 0 01.23.28.92.92 0 01.16.27 1 1 0 01.08.37.87.87 0 01-.26.6.81.81 0 01-.61.27.76.76 0 01-.52-.19 3.19 3.19 0 01-.44-.46 5 5 0 01-.39-.52 3.5 3.5 0 01-.24-.42l-.15-.32-.14-.3-.15-.31a1.37 1.37 0 00-.15-.21 1 1 0 00-.21-.21 2.52 2.52 0 00-.25-.21l-.23-.15a2.12 2.12 0 01-.24-.2l-.22-.19-.21-.2-.21-.21-.21-.17-.24-.17-.25-.15-.23-.11-.37-.19a1.37 1.37 0 01-.42-.34.75.75 0 01-.16-.5.83.83 0 01.26-.65.91.91 0 01.65-.23.84.84 0 01.31.05l.27.11a1.67 1.67 0 01.28.18l.25.19a1.11 1.11 0 00.29.14l.31.13a1.62 1.62 0 01.48.42 4.82 4.82 0 01.58-.69l.78-.81c.3-.31.56-.6.77-.85s.42-.5.6-.76h-1.29a2.46 2.46 0 01-.53 0 3.66 3.66 0 01-.56-.1H97.7a1 1 0 01-.42 0 .75.75 0 01-.35-.16.89.89 0 01-.24-.3 1 1 0 010-.87.76.76 0 01.34-.3 1.57 1.57 0 01.47-.13 1.46 1.46 0 01.51 0zM120.09 30.5l1.53.15 1.63-.08a2.71 2.71 0 011.22.26.9.9 0 01.54.87.8.8 0 01-.11.4 1.54 1.54 0 01-.27.36l-.43.44-.42.43a3.52 3.52 0 00-.31.35l-.38.49-.4.51-.34.42-.49.5-.49.47a3.66 3.66 0 00-.28.28.37.37 0 00-.1.23.52.52 0 00.06.16l.15.23.25.33.23.31a2.27 2.27 0 01.19.34 3.36 3.36 0 01.16.33 1 1 0 00.13.28 2.26 2.26 0 00.16.26c.06.08.13.17.23.28s.16.2.23.28a.92.92 0 01.16.27.94.94 0 01.06.35.89.89 0 01-.24.6.84.84 0 01-.61.27.76.76 0 01-.52-.19 2.45 2.45 0 01-.45-.46 3.85 3.85 0 01-.38-.52 2 2 0 01-.24-.42l-.15-.36-.15-.31c0-.12-.11-.22-.15-.3a1.64 1.64 0 00-.14-.22 2.18 2.18 0 00-.22-.21 2.43 2.43 0 00-.25-.2l-.22-.16a1.12 1.12 0 01-.24-.19l-.22-.2-.22-.19-.21-.21a.91.91 0 00-.21-.18l-.23-.16-.28-.16-.23-.11-.34-.17a1.4 1.4 0 01-.42-.34.79.79 0 01-.17-.51.88.88 0 01.26-.65 1 1 0 01.65-.23 1.06 1.06 0 01.31 0l.28.11.27.18.26.19a.76.76 0 00.28.15l.31.12a1.62 1.62 0 01.48.42 5.57 5.57 0 01.58-.69c.22-.21.48-.48.78-.8s.56-.61.77-.86.42-.5.61-.75h-1.29a2.46 2.46 0 01-.53 0l-.56-.1h-4.57a1.55 1.55 0 01-.43 0 .88.88 0 01-.35-.17.76.76 0 01-.23-.3 1 1 0 010-.86.78.78 0 01.34-.31 1.31 1.31 0 01.47-.12 1.46 1.46 0 01.51 0zM134 29.42a.75.75 0 01.6.25 1.07 1.07 0 01.19.28.83.83 0 01.07.34 2.21 2.21 0 00-.28.65 6.77 6.77 0 00-.15 1.5v.78a4.51 4.51 0 01-.08.6c0 .21-.07.48-.12.8s-.09.61-.11.83 0 .46 0 .69l.18 1.5a.63.63 0 01.4-.21 1.06 1.06 0 01.46.1.83.83 0 01.35.32.94.94 0 01.14.51 1.06 1.06 0 01-.58.86 2 2 0 01-1 .39 1.18 1.18 0 01-.95-.39 2.65 2.65 0 01-.49-.94 4.84 4.84 0 01-.2-1.06v-1.79a3.3 3.3 0 01.07-.56c0-.18.07-.4.12-.65s.07-.47.08-.65 0-.36 0-.65a2.11 2.11 0 010-.53 2.32 2.32 0 00.06-.56 7.83 7.83 0 01.12-1 3.16 3.16 0 01.36-1 .84.84 0 01.76-.41zm4.22 7.65a.84.84 0 01.27 0 1.15 1.15 0 01.25.12l.28.2.36.26a1.69 1.69 0 00.5.2 4.88 4.88 0 00.55.12 3.68 3.68 0 00.47 0h.35a1.15 1.15 0 00.26 0 3.4 3.4 0 01.46.09 1.16 1.16 0 01.55.28.71.71 0 01.23.6.77.77 0 01-.28.62 1.14 1.14 0 01-.73.24 7.15 7.15 0 01-1.3-.12 8.11 8.11 0 01-1.36-.39 4.4 4.4 0 01-1.23-.65 1 1 0 01-.52-.84.83.83 0 01.85-.8zm.73-6h.47l.45.06a3.48 3.48 0 01.44.1 4.84 4.84 0 00.51.14l.53.12a1.72 1.72 0 01.4.14 1 1 0 01.32.29.81.81 0 01.13.48.78.78 0 01-.07.33 1 1 0 01-.23.27 1.53 1.53 0 01-.3.19.45.45 0 01-.3 0l-2.3-.45-.61.12a.79.79 0 01-.37-.07 1.46 1.46 0 01-.28-.21.68.68 0 01-.17-.28 1 1 0 01-.05-.33.76.76 0 01.39-.76 2.17 2.17 0 011-.19zM149.14 29.93a.84.84 0 01-.09-.62v-.2a9.69 9.69 0 01.71-1.4 4.81 4.81 0 011-1.22h.47a1.21 1.21 0 01.6.56v.47a7.06 7.06 0 00-.89 1.4 7.2 7.2 0 01-.89 1.42h-.5a1 1 0 01-.41-.41zm2.55 0l-.05-.46.33-.56.32-.76a7.8 7.8 0 01.46-.85 2.53 2.53 0 01.65-.74.78.78 0 011.09.2.69.69 0 01.1.19v.48a4 4 0 00-.87 1.47 3.23 3.23 0 01-1 1.48l-.46.06a.94.94 0 01-.57-.51z"/><path class="cls-8" d="M158 35.08l-.55-.3a1.7 1.7 0 01-.34-.87 1.51 1.51 0 01.34-.8 8.94 8.94 0 012.21-.66c.77-.12 1.49-.22 2.14-.29v-3.95h.14l-1.26.27a1.6 1.6 0 01-.8-.32 1.37 1.37 0 01-.27-1l.27-.55a8.67 8.67 0 011.76-.59v-1l.13-1.12v-.2a1.52 1.52 0 01.23-.7 1.36 1.36 0 011-.27l.53.27a2.38 2.38 0 01.39 1.58l-.19 1.11.09.1h.52a10.48 10.48 0 011.67-.23c.59 0 1.11-.07 1.55-.11V23.5a1.53 1.53 0 01.32-.78 1.36 1.36 0 011-.27l.54.27.28.55v2.1h-.09l1.64-.14.52.25a1.3 1.3 0 01.32 1l-.29.57a5.88 5.88 0 01-2 .5v.16c.09.61.18 1.2.27 1.78v2.38h1.34a5.18 5.18 0 011.36-.18h1.43l.52.27a1.29 1.29 0 01.3 1l-.28.57a8.05 8.05 0 01-1.95.34c-.65 0-1.29.08-1.94.13a15.8 15.8 0 01-2.17-.22h-2.74c-1.3.18-2.63.33-4 .46a19.5 19.5 0 00-3.94.84zm1.89 6.7a1.47 1.47 0 01-.77-.32 1.37 1.37 0 01-.28-1l.28-.53.29-.25.14-.13.71-.55.38-.25v-.1l.57-.59.25-.22a2.4 2.4 0 01.48-.87 1.41 1.41 0 011-.28l.52.28a1.46 1.46 0 01.29 1.05l-.61 1.29-.16.14-.27.35-.35.27-.34.34-.07.18-.81.48v.17H161l-.35.27a1.62 1.62 0 01-.81.27zm8-10.06v-.39a6 6 0 00.09-1.46c-.06-.39-.11-.79-.16-1.2s-.08-.78-.09-1.1h-.25l-1.64.18-1.74.18h-.1V32h.22l1.3-.23zm5.31 9.88a2 2 0 01-1.07-.5l-.23-.21-.91-.43-.32-.59-.45-.26-.39-.73-.39-.16a1.51 1.51 0 01-.29-1l.27-.52a1.81 1.81 0 011.3-.3l.7.41.41.73.23.14.23.22a1.34 1.34 0 00.59.65 2 2 0 01.71.39h.09v.16l.39.21a1.28 1.28 0 01.29 1l-.27.52a1.69 1.69 0 01-.93.27zM196.67 35.78a5.18 5.18 0 01-1.61-1l-.52-.46-.18-.18-.23-.25-.68-.79h.13l-.13.09v.09l-1 .86a1.46 1.46 0 01-1 .28l-.52-.28a1.62 1.62 0 01-.34-.86 1.53 1.53 0 01.31-.78l.94-.65.27-.27.21-.18a13.29 13.29 0 01-1.4-2.6A19.18 19.18 0 01190 26c-.89.18-1.8.34-2.74.47s-1.83.26-2.67.4a22.61 22.61 0 01-.55 3.85 11.52 11.52 0 01-1.57 3.72l-.65.57h-.75l-.53-.28a1.34 1.34 0 01-.3-1l.27-.53a3.4 3.4 0 00.76-1 20.48 20.48 0 00.87-3.36c.2-1.17.37-2.36.52-3.57a1.4 1.4 0 011.07-.32h.09a11.26 11.26 0 012.73-.68c1-.13 1.88-.25 2.75-.39a2.58 2.58 0 01-.32-1.3 1.47 1.47 0 01.32-.77 1.41 1.41 0 011-.28l.54.28c.25.65.46 1.24.65 1.78h.6l1.14-.1.53.28a1.3 1.3 0 01.29 1l-.27.55a3.59 3.59 0 01-1.6.41c.21.65.43 1.29.65 1.94a7.09 7.09 0 00.85 1.75h-.11l.3-.53a1.38 1.38 0 011.18-.33l.55.27a1.3 1.3 0 01.3 1l-.3.59h-.07a3 3 0 01-.41.87H195v.1h.09v.13l.3.27.28.44.2.09v.14h.14l.05.14h.13v.15h.13l.05.09h-.18a7.3 7.3 0 01.46-1.08 1.34 1.34 0 011-.29l.55.28a2.09 2.09 0 01.27 1.36 12.68 12.68 0 01-.87 2.08 1.59 1.59 0 01-.93.59zm-15.61 6.4l-.53-.27a1.58 1.58 0 01-.3-1l.3-.59v-.09h.1a3.89 3.89 0 00.61-.85 7.91 7.91 0 00.6-1.48 1.43 1.43 0 011.07-.32l.52.29a1.25 1.25 0 01.32 1 3.72 3.72 0 01-.47 1.37c-.23.41-.51.84-.83 1.3h-.07v.14l-.23.23a1.39 1.39 0 01-1.09.27zm10.26-.09a22.27 22.27 0 01-2.51-.47 7.11 7.11 0 01-2.32-1l-.25-.29-.46-.46v-.05l-.16-.06-.05-.18-.12-.09a6.61 6.61 0 00-.85-1.3 2.47 2.47 0 01-.56-1.51l.28-.52a1.25 1.25 0 011-.29l.52.27.78 1 .65 1.09h.06l.21.21.18.18.28.3V39a7.9 7.9 0 002.38.72 17.44 17.44 0 002.7.21h.17V40a2.17 2.17 0 01-.28-1.14l.28-.53a1.48 1.48 0 011-.29l.53.27a1.37 1.37 0 01.37.65 3 3 0 01.9 2l-.27.54a3.52 3.52 0 01-1.3.44l-1.29.11zM186.17 35l-1.17-.45a4.41 4.41 0 01-.39-1.42 14.84 14.84 0 01-.07-1.51l.34-.64a20 20 0 011.95-.51 14.91 14.91 0 012-.29 1.07 1.07 0 01.65.65v2l-.5 1.07h-.16l-.18.32a6.86 6.86 0 00-1.18.41 3.37 3.37 0 01-1.29.37zm-.37-5.67l-.59-.35a1.08 1.08 0 01-.21-.78 1.11 1.11 0 01.58-.57 4.76 4.76 0 011.4-.27 12.12 12.12 0 001.47-.11 1.12 1.12 0 01.62.59v.45a1.18 1.18 0 01-.8.69 10.64 10.64 0 00-1.26.07 6.25 6.25 0 00-1.21.28zm.69 3.89l1.12-.41a1.24 1.24 0 00.15-.82l-1.48.36v.53a.61.61 0 01.15.43h-.13zm4.27 5.68a2.55 2.55 0 01-1-.46h-.1v-.09a7.75 7.75 0 01-.57-1.11v-.05a1.47 1.47 0 01-.29-1l.27-.53a1.51 1.51 0 011.05-.29l.54.27.28.6h.09l.25.48a1.06 1.06 0 011 1.33l-.28.51a1.81 1.81 0 01-1.24.38zm5.84-13.36a1.36 1.36 0 01-.77-.34l-.48-.84h-.07l-.57-.65a1.34 1.34 0 01-.28-1l.28-.53a1.52 1.52 0 011.07-.29l.57.32.44.45.14.16a3.16 3.16 0 01.77 1.85l-.28.52a1.52 1.52 0 01-.82.39zm.65 14l-.55-.28-.41-.65h-.07l-.18-.2-.43-.32a1.51 1.51 0 01-.31-1l.28-.52a1.46 1.46 0 011.16-.3l.75.43.29.3h.05l.16.11a2.3 2.3 0 01.53 1.53l-.28.52a1.31 1.31 0 01-1 .35z"/><path class="cls-7" d="M202.17 29.93a.84.84 0 01-.09-.62v-.2a9.69 9.69 0 01.71-1.4 4.65 4.65 0 011-1.22h.46a1.21 1.21 0 01.6.56v.47a7.06 7.06 0 00-.89 1.4 7.2 7.2 0 01-.89 1.42h-.5a1.08 1.08 0 01-.4-.41zm2.55 0l-.05-.46.33-.56.31-.76c.14-.29.29-.57.46-.85a2.86 2.86 0 01.65-.74.8.8 0 011.1.21 1.62 1.62 0 01.1.18v.48a4 4 0 00-.89 1.5 3.23 3.23 0 01-1 1.48l-.46.07a1 1 0 01-.56-.55zM215.69 29a1.36 1.36 0 01.86.34 5.53 5.53 0 01.87 1c.32.45.6.83.85 1.15a4.83 4.83 0 00.79.84c.19-.19.47-.48.84-.89l.85-1a3.93 3.93 0 01.7-.58 1.43 1.43 0 01.74-.25 1 1 0 01.65.24.8.8 0 01.28.65.9.9 0 01-.09.33 1.55 1.55 0 01-.24.27l-.38.28-.36.26a3.45 3.45 0 00-.28.26c-.1.1-.2.22-.3.33a4 4 0 01-.27.34l-.24.27a2.37 2.37 0 01-.27.28l-.33.31-.29.3a3.34 3.34 0 00-.32.33l-.4.47c-.16.17-.35.41-.59.7a7.91 7.91 0 00-.54.75 5.76 5.76 0 00-.38.69 4.59 4.59 0 00-.29.81 3.36 3.36 0 00-.09.7.59.59 0 00.17.42 1.34 1.34 0 00.49.32 4.84 4.84 0 00.65.19 2.81 2.81 0 00.65 0L222 39a.63.63 0 01.3 0 .82.82 0 01.51.47.91.91 0 01.08.37.78.78 0 01-.13.44.93.93 0 01-.33.26 2.8 2.8 0 01-.41.13l-.48.07-.59.06h-1.42a8.13 8.13 0 01-1.48-.11 2.89 2.89 0 01-1.15-.45 2.74 2.74 0 01-.8-.93 2.45 2.45 0 01-.34-1.21 5.16 5.16 0 01.62-2.37 8.08 8.08 0 011.57-2.18l-.25-.3-.34-.34-.33-.32-.23-.27a4 4 0 01-.23-.39 3.42 3.42 0 00-.26-.4l-.22-.31-.24-.26a1.87 1.87 0 00-.35-.28 4.57 4.57 0 01-.36-.29.86.86 0 01-.2-.26.67.67 0 01-.07-.34.84.84 0 01.85-.9zM229.85 29.93a.89.89 0 01-.08-.62v-.2a10.82 10.82 0 01.71-1.4 5.06 5.06 0 011-1.22h.47a1.23 1.23 0 01.59.56v.47a6.26 6.26 0 00-.89 1.4 8.27 8.27 0 01-.89 1.42h-.5a1.07 1.07 0 01-.41-.41zm2.55 0l-.05-.46.34-.56.31-.76a7.8 7.8 0 01.46-.85 2.86 2.86 0 01.65-.74.78.78 0 011.09.2.69.69 0 01.1.19v.48a4.15 4.15 0 00-.89 1.5 3.23 3.23 0 01-1 1.48l-.46.07a1 1 0 01-.56-.55z"/><path class="cls-9" d="M238.46 41.53l-.53-.27a1.77 1.77 0 01-.34-.89c1-2 1.8-3.93 2.55-5.9s1.37-3.89 1.88-5.78h.09a1.32 1.32 0 01-.37-1.05l.32-.59q3.06-.32 6-.72t6-.58l.53.27a1.41 1.41 0 01.29 1l-.29.56-5.32.76c-1.73.24-3.44.41-5.13.5a44.61 44.61 0 01-1.87 6.16q-1.2 3.09-2.65 6.12h-.09l-.05.16a1.35 1.35 0 01-1.02.25zm4.36-.91l-.53-.27a1.73 1.73 0 01-.34-.92c.38-.69.72-1.39 1-2.09s.58-1.43.83-2.19a1.3 1.3 0 011-.3l.53.27a1.54 1.54 0 01.3 1.19c-.13.4-.26.8-.41 1.23a11.41 11.41 0 01-.53 1.3h-.09a6.28 6.28 0 01-.69 1.4h-.07a1.32 1.32 0 01-1 .31zm12.45.09a18 18 0 01-3.6-1 14.48 14.48 0 01-3.25-1.84l-.29-.3-.16-.05-.39-.45c-.36-.9-.75-1.75-1.15-2.6a8.35 8.35 0 01-.83-2.62 1.46 1.46 0 01.32-.78 1.32 1.32 0 011-.27l.57.3a11 11 0 00.82 2.23 9.1 9.1 0 01.76 2.08l.37.43v.05h.16a3.47 3.47 0 001.16 1c.65.31 1.3.59 1.95.87a10.5 10.5 0 001.85.59v.11a1.36 1.36 0 01-.41-.95 1.53 1.53 0 01.31-.78 1.36 1.36 0 011-.27l.53.25.33.36a1.62 1.62 0 01.39 1.17v1.25a1.35 1.35 0 01-.32.91 1.64 1.64 0 01-1.17.33zm-7.21-15.31l-.54-.27-.08-.18h-.06l-.32-.37-.87-.65a1.56 1.56 0 01-.27-1.09l.27-.52a1.32 1.32 0 011-.29l.65.33v.1l.27.13.65.53a1.68 1.68 0 01.57 1.46l-.27.52a1.29 1.29 0 01-1 .3zm4.43 9.09a2.82 2.82 0 01-1.55-.74 7.8 7.8 0 01-.73-2.08 1.39 1.39 0 01.32-.78 1.32 1.32 0 011-.27l.55.27c.22.51.4.94.52 1.3a1.28 1.28 0 011 .29 1.33 1.33 0 01.32 1l-.32.59a1.67 1.67 0 01-1.07.38zm4.72 1.85a1.41 1.41 0 01-.78-.34l-.59-1.12h-.06a1.42 1.42 0 01-.35-1.1l.28-.53a1.51 1.51 0 011-.29l.61.32a4.47 4.47 0 011 2.21l-.27.55a1.7 1.7 0 01-.84.3zM266.69 42.14c-.55-.22-1.08-.46-1.58-.72a7.46 7.46 0 00-1.6-.65 1.39 1.39 0 01-.32-1l.28-.52a1.8 1.8 0 011.29-.3l.87.3v-4.19h.17a8.88 8.88 0 01-1.54.93V36a1.38 1.38 0 01-1.05.32l-.52-.27a1.47 1.47 0 01-.29-1.05l.31-.59 1.26-.76c.38-.23.76-.48 1.12-.75v-.1l.77-.54a6.65 6.65 0 01.05-1.34 11.52 11.52 0 00.09-1.17h.13c-.35.16-.71.33-1.1.49a7.2 7.2 0 01-1.22.38 1.53 1.53 0 01-.78-.32 1.36 1.36 0 01-.27-1l.27-.54c.53-.26 1.06-.49 1.58-.69s1-.4 1.41-.59v-.09a13.06 13.06 0 01-.24-1.76c0-.61-.07-1.21-.07-1.82A1.38 1.38 0 01266 23a1.46 1.46 0 011-.28l.57.28a7.19 7.19 0 01.3 2 7.33 7.33 0 00.18 1.75 1.91 1.91 0 011.16.32 1.3 1.3 0 01.3 1l-.27.56a4.4 4.4 0 01-1.1.4l-.09 1.69H268h.55l.53.27a1.3 1.3 0 01.29 1l-.29.6H269l-.11.2-.75.59-.21.12c0 .41-.07.83-.13 1.25a9.47 9.47 0 00-.09 1.3v2.6a9.32 9.32 0 00.09 1.29 10.2 10.2 0 01.09 1.35l-.27.53a1.31 1.31 0 01-.93.32zm6.2-.27a1.47 1.47 0 01-.77-.32 1.33 1.33 0 01-.28-1l.28-.55a7.39 7.39 0 001.88-1.11l.13-.24.18-.2a1.83 1.83 0 01-.54-1.44l.27-.52a1.33 1.33 0 011-.3l.59.32c.09.25.18.38.27.41l.42-1h.2a7.25 7.25 0 01-1.3.24 4.82 4.82 0 00-1.25.28l-1.06 1.8-.73.45v.12L272 39l-1 .57-.27.48a1.51 1.51 0 01-1.05.3l-.53-.28a1.3 1.3 0 01-.29-1l.39-.8.27-.25.62-.5.32-.14v-.06l.91-.74a5.86 5.86 0 00.65-1.21 14.87 14.87 0 01.68-1.39h.05V34h.16a4.52 4.52 0 01-1.78.56 1.41 1.41 0 01-.77-.33 1.29 1.29 0 01-.28-1l.28-.55 1.53-.58a8.26 8.26 0 011.39-.42v-.43h-.65l-.53-.27a1.3 1.3 0 01-.29-1l.27-.55c.68-.27 1.36-.52 2-.73a7.27 7.27 0 012.22-.32l.52.28a1.28 1.28 0 01.29 1l-.27.55a5.92 5.92 0 01-1.6.43v-.07a.7.7 0 01.17.45h-.12a8.67 8.67 0 002-.31 9.36 9.36 0 012.11-.32l.52.27a1.28 1.28 0 01.3 1l-.27.54a11.22 11.22 0 01-2.6.69 10.58 10.58 0 00-2.39.59l-.09.55h.6a8 8 0 011.27-.37 6 6 0 011.47-.09l.54.27a2 2 0 01.28 1.35 1.8 1.8 0 01-.37.85h-.07c-.15.37-.34.79-.56 1.24s-.42.84-.6 1.17a8.87 8.87 0 002.19.9 18.66 18.66 0 002.55.54 1.37 1.37 0 01.32 1.16l-.28.5a1.18 1.18 0 01-.95.3 8 8 0 01-2.77-.56 19.82 19.82 0 01-2.49-1.2l-.05-.09-.16.16-.16.14-.4.36a12.82 12.82 0 01-1.09.72 3.8 3.8 0 01-1.26.49zm.19-13.53a1.49 1.49 0 01-.83-.36l-.29-.3-.6-.73-.09-.65a1.43 1.43 0 01.33-.79 1.29 1.29 0 011-.28l.55.28.23.54.24.16.21.21a1.4 1.4 0 01.32 1.07l-.27.53a1.66 1.66 0 01-.83.32zm.38-3.19l-.55-.29a1.53 1.53 0 01-.29-1.05l.27-.56 1.91-1a7.16 7.16 0 012.09-.65l.54.28a1.51 1.51 0 01.3 1.05l-.27.55a20.78 20.78 0 00-1.95.91 11.8 11.8 0 01-2.08.77zm2 2.37l-.93-.48a1.67 1.67 0 01-.53-1.37l.27-.52a1.28 1.28 0 011-.29l.53.24.27.28.36.2a1.37 1.37 0 01.3 1.12l-.27.53a1.29 1.29 0 01-1 .29zm2.69.09a1.45 1.45 0 01-.77-.31 1.41 1.41 0 01-.28-1l.33-.65.47-.39.5-.41a1.69 1.69 0 01.32-.55 1.56 1.56 0 011.08-.3l.52.27a1.33 1.33 0 01.3 1l-.57 1.05v.11H280l-.39.38h-.05v.16a3 3 0 01-1.32.61z"/><path class="cls-7" d="M285.34 29.93a.84.84 0 01-.09-.62l.05-.2a9.63 9.63 0 01.7-1.4 5.06 5.06 0 011-1.22h.47a1.21 1.21 0 01.6.56v.47a7.06 7.06 0 00-.89 1.4 7.2 7.2 0 01-.89 1.42h-.5a1 1 0 01-.45-.41zm2.55 0l-.06-.46.34-.56.31-.76c.14-.29.29-.57.46-.85a2.86 2.86 0 01.65-.74.78.78 0 011.09.2.5.5 0 01.1.19l.06.48a3.89 3.89 0 00-.89 1.5 3.32 3.32 0 01-1 1.48l-.46.07a.93.93 0 01-.55-.55zM302 27.76a.75.75 0 01.7.37 1.92 1.92 0 01.23 1 1.17 1.17 0 010 .32v-.16a1.37 1.37 0 00-.07.34l1.78-.31a.55.55 0 01.31 0 1.38 1.38 0 01.28.19 1 1 0 01.21.3.94.94 0 01.07.37.72.72 0 01-.13.45.76.76 0 01-.32.27 2.16 2.16 0 01-.43.14 2.78 2.78 0 01-.5.11l-.49.08-.54.11a4.88 4.88 0 01-.53.07h-.41l-.56 1.8a3.08 3.08 0 011.16.16 2.19 2.19 0 01.94.65 1.07 1.07 0 01.26-.26 2.85 2.85 0 01.37-.23l.39-.19.3-.17.36-.26.36-.27a1.3 1.3 0 01.32-.14 1.2 1.2 0 01.38-.05.92.92 0 01.65.24.83.83 0 01.27.65.79.79 0 01-.32.6 6.17 6.17 0 01-.86.58c-.37.2-.65.38-.9.53s-.44.32-.65.49c0 .11.12.29.22.51s.18.4.25.52a4.08 4.08 0 01.19.42 1.33 1.33 0 01.09.49.86.86 0 01-.25.6.77.77 0 01-.6.26.71.71 0 01-.56-.19 1.37 1.37 0 01-.29-.42 6.1 6.1 0 01-.25-.65 2.65 2.65 0 00-.3-.55l-.61.57a7.28 7.28 0 00-.76.81 3.3 3.3 0 00-.47.7 2.24 2.24 0 00-.23.84 1.34 1.34 0 00.38.14 3.07 3.07 0 00.53.07h1l1.06-.07a.65.65 0 01.31 0 .84.84 0 01.28.18.9.9 0 01.21.3.94.94 0 01.07.37.79.79 0 01-.24.6.89.89 0 01-.54.3h-2.79a4.26 4.26 0 01-1.5-.6 1.56 1.56 0 01-.54-1.34 3.38 3.38 0 01.25-1.3 4.37 4.37 0 01.65-1.13 7.11 7.11 0 01.9-.92l1.1-1-.29-.12-.55.1a2.92 2.92 0 00-.37.24l-.43.29-.35.19a.66.66 0 01-.33.09.86.86 0 01-.65-.24.84.84 0 01-.22-.6 1.62 1.62 0 01.16-.61c.09-.24.23-.54.41-.91s.33-.68.45-1a6.81 6.81 0 00.26-.76l-1.6.32a.57.57 0 01-.36-.06 1 1 0 01-.48-.47.87.87 0 01-.06-.32.76.76 0 01.33-.71 3.53 3.53 0 01.94-.34l1-.21c.27-.05.55-.1.83-.13a3.07 3.07 0 01.17-.42c.06-.14.09-.15.08 0s0 .12.05 0 .06-.26.09-.4l-.06-.36a1.15 1.15 0 010-.37.62.62 0 01.17-.28.73.73 0 01.28-.19 1.07 1.07 0 01.34-.02z"/></g></g><path d="M351.05 76.86c-.35 3.79-6.76 6.48-6.76 11.79-12.25-6.3-14.11-9.78-14.47-13.57v-1.3a4.53 4.53 0 013.89-4.26c.33 0 .65-.06.92-.06 1.72 0 3.13 1.48 4.54 3.16l2.77 5.11 1-4.41c1.41-1.69 2.13-2.22 3.85-2.22a7.32 7.32 0 01.91 0c1.19.12 3.06 1.39 3.34 4.42z" fill="#fff"/></g></g></svg>